<svg width="602" height="579" fill="none" xmlns="http://www.w3.org/2000/svg"><mask id="a" style="mask-type:alpha" maskUnits="userSpaceOnUse" x="19" y="82" width="564" height="497"><path d="M19.5 82.2h563.4v496.2H19.5V82.2Z" fill="#fff"/></mask><g mask="url(#a)"><path fill-rule="evenodd" clip-rule="evenodd" d="M578.8 315 453.3 97.5a30.6 30.6 0 0 0-26.5-15.3H175.7c-11 0-21 5.9-26.6 15.3L23.6 315a30.6 30.6 0 0 0 0 30.6L149 563.1a30.6 30.6 0 0 0 26.6 15.3h251c11 0 21.1-5.9 26.6-15.3l125.5-217.5a30.6 30.6 0 0 0 0-30.6Z" fill="#F5F5F5"/></g><path fill-rule="evenodd" clip-rule="evenodd" d="M122.9 462.4c-.2-1.2-.4-2.4-.8-3.4l-.6-1.6-.7-1.5c-1.7-3.9-4.3-6.5-4.3-6.5-1.8.8-7.2 5.4-10.5 13.6a37.6 37.6 0 0 0-2.3 14.6c.2 2.1.6 4.3 1.2 6.6l-12.8-22.1c-.3-3.4 1.3-5.5 3.4-8 2.8-3.1 6.5-6.8 9-13.7a17.8 17.8 0 0 0 0-11.5l-.6-1.6-.6-1.5c-1.8-3.8-4.3-6.4-4.3-6.4-1.8.8-7.2 5.5-10.5 13.7-1 2-1.5 4.3-1.9 6.7-.3 2.4-.5 5-.3 7.9.2 2 .6 4.2 1.2 6.5l-14-24.1c.3-2.7 1.9-4.5 3.9-6.6 3-3 6.8-6.5 9.6-13.2a17.8 17.8 0 0 0 .8-11.5l-.6-1.6-.5-1.5c-1.6-4-4-6.6-4-6.6-1.8.6-7.5 5-11.2 13a37.5 37.5 0 0 0-3 14.5c0 2 .3 4 .8 6.1L55 398.1c.3-3 2-4.8 4.1-6.8 3.1-2.9 7-6.2 10.1-12.8a17.8 17.8 0 0 0 1.2-11.5l-.5-1.6-.5-1.6c-1.4-4-3.7-6.7-3.7-6.7-1.9.5-7.7 4.7-11.7 12.6a37.6 37.6 0 0 0-3.5 14.3c0 2.5.3 5 .8 7.7L37.1 367c.5-3.8 2.6-5.6 5.4-7.5 3.5-2.4 7.9-5.1 11.9-11.2a17.7 17.7 0 0 0 2.9-11.2l-.3-1.6-.2-1.7c-.8-4.1-2.7-7.2-2.7-7.2-2 .3-8.3 3.6-13.5 10.8A37.7 37.7 0 0 0 35 351a40.8 40.8 0 0 0 .4 13C26.9 349.2 21 338.7 20 336.8c-.3-.7-.3-2.4 1.3-6.8 2.2-1.7 4.5-1.7 7.3-1.6 3.8.3 8.6 1 15-1.1A16.4 16.4 0 0 0 52 321l.8-1.3.7-1.3c1.8-3.5 2.3-6.8 2.3-6.8-1.6-.9-8-2.2-16 0a34.5 34.5 0 0 0-12 6.6 36.2 36.2 0 0 0-3.5 4c2.4-5.4 5.9-12.8 11-22.8 2.9-1.8 5.5-1.6 8.6-1 4.1.9 9.2 2.2 16.3.8a17.7 17.7 0 0 0 10-5.7l1-1.3 1-1.3c2.5-3.5 3.4-7 3.4-7a27.6 27.6 0 0 0-17-2.2 37.6 37.6 0 0 0-13.7 5.4c-2 1.5-4 3.2-5.8 5.1l12.3-22.5c3.4-2.4 6.2-1.9 9.6-1 4 1.2 9 2.9 16.2 2.1a17.8 17.8 0 0 0 10.4-4.8l1.2-1.3 1-1.2c2.8-3.3 4-6.7 4-6.7-1.5-1.3-8-4-16.9-3.5a37.5 37.5 0 0 0-14.1 4.3 40.8 40.8 0 0 0-8.6 7.1 2185.5 2185.5 0 0 1 14.5-25.5c2.9-2 5.3-1.6 8.2-.8 3.6 1 7.9 2.3 14.2 1.6a15.5 15.5 0 0 0 9-4.4l1-1.1 1-1.1c2.2-2.9 3.2-5.9 3.2-5.9a24 24 0 0 0-14.7-2.8 32.7 32.7 0 0 0-12.2 4c-2 1.2-4.1 2.8-6 4.8l-.8.7 13.4-22.9c2.3-1.1 4.3-.7 6.7 0 3.2.9 7.2 2.3 13 1.7a14.3 14.3 0 0 0 8.4-4c.4-.2.7-.6 1-1l.8-1c2.2-2.5 3.2-5.3 3.2-5.3-1.2-1-6.4-3.3-13.6-2.9a30.2 30.2 0 0 0-11.4 3.5c-1.6 1-3.3 2.3-5 3.8l10-16.6c1.7-1.7 3.7-2.7 5.7-3.9a49.7 49.7 0 0 0 4.6-2.8c1.6-1.1 3.1-2.6 4.7-4.6a16 16 0 0 0 3.4-7 23 23 0 0 0 .7-4.2c.2-3.5-.4-6.3-1-6.8-.4-.4-3.3-.3-6.7 1a22.9 22.9 0 0 0-5.2 2.7c-1.7 1.3-3.3 3-4.6 5a23 23 0 0 0-3.6 12.3c0 2.8 0 5.2-1 8.1l-7.8 13.2c.4-1.3.8-2.5 1-3.7.6-2.3 1-4.4 1.1-6.5.2-2.1.1-4.2.1-6-.2-7.5-2.5-13.3-3.7-14.3 0 0-3 2-6.2 5.4a31 31 0 0 0-2.2 2.8c-.7 1.1-1.3 2.2-1.8 3.4-1 2.4-1.6 5-1.2 7.8.9 6.7 3.7 9.7 5.8 12.4 1.5 1.9 2.7 3.6 2.7 6.1l-10.6 18c.3-1 .6-2 .7-3 .6-2.4 1-4.7 1-7 .2-2.3.1-4.5 0-6.5-.4-8-3-14.3-4.2-15.4 0 0-3.3 2.2-6.6 6A33.5 33.5 0 0 0 61 205c-.7 1.2-1.4 2.4-1.9 3.7-1 2.6-1.7 5.5-1.2 8.5 1.1 7.2 4.2 10.4 6.5 13.2 1.6 2 2.8 3.6 3.1 6a2860.4 2860.4 0 0 0-11.3 19.8l.7-3c.7-2.8 1.1-5.5 1.3-8.1.2-2.6.2-5.2.1-7.5-.3-9.2-3.1-16.3-4.6-17.6 0 0-3.8 2.4-7.7 6.7a38.4 38.4 0 0 0-2.7 3.5c-.8 1.4-1.6 2.8-2.2 4.3a18 18 0 0 0-1.5 9.6c1.1 8.3 4.6 12 7.2 15.3 1.8 2.3 3.3 4.4 3.5 7.3-5 9-9.5 17.1-13.4 24.5.8-2.7 1.4-5.4 1.7-8 .5-2.8.7-5.5.7-8.1 0-2.6-.3-5.2-.5-7.5-1-9.2-4.5-16-6-17.2 0 0-3.7 2.7-7.2 7.3a38.2 38.2 0 0 0-2.4 3.7c-.7 1.4-1.4 2.9-1.9 4.4a18 18 0 0 0-.7 9.8c1.8 8.1 5.6 11.6 8.4 14.7 2.2 2.4 4 4.5 4.1 8l-3.3 6.5c-4 8-6.8 14-8.7 18.7.5-2.9.8-5.6.7-8.3.2-2.6 0-5-.3-7.5-.3-2.4-.8-4.7-1.3-6.7-2-8.3-6-14.2-7.5-15.1 0 0-3 3-5.7 7.5a35.5 35.5 0 0 0-1.8 3.7L4 301.4c-.5 3-.6 6 .5 9 2.6 7.3 6.5 10 9.4 12.5 2.4 2 4.3 3.8 4.8 7.2-1.6 4.8-1.5 6.8-1 7.9l5.1 9.1-.4-.4c-1.8-1.8-3.8-3.4-5.6-4.8-7.4-5.6-14.7-8-16.6-7.7a41.7 41.7 0 0 0 1.3 14.6 29 29 0 0 0 1.8 4.4 18 18 0 0 0 6.6 7.3c7 4.3 12.2 4 16.4 4.2 2.8 0 5.3.2 7.6 1.8l15.2 26.4a47.9 47.9 0 0 0-5.4-6c-2-2-4.2-3.7-6.3-5.2-2.1-1.5-4.3-2.8-6.3-4-8.2-4.4-15.7-5.6-17.6-5a41.7 41.7 0 0 0 3.5 14.2c.7 1.4 1.5 2.7 2.5 4a18 18 0 0 0 7.5 6.3c7.7 3.2 12.7 2.2 16.9 1.7 3.5-.5 6.5-.7 9.8 1.9L69.4 428a46.2 46.2 0 0 0-7.6-8.3c-2.1-1.9-4.3-3.6-6.5-5s-4.4-2.6-6.5-3.7c-8.2-4.2-15.8-5.1-17.7-4.5a41.7 41.7 0 0 0 4 14.1 29 29 0 0 0 2.6 4 18 18 0 0 0 7.8 6c7.8 3 12.8 1.7 16.9 1 3.6-.6 6.6-.9 10.1 1.8l14 24h-.1a47.5 47.5 0 0 0-6.7-6.2 47.3 47.3 0 0 0-6.7-4.7c-2.2-1.3-4.6-2.4-6.6-3.3-8.5-3.7-16.2-4.3-18-3.5a41.7 41.7 0 0 0 4.8 13.8 29 29 0 0 0 2.8 3.8 18 18 0 0 0 8.1 5.6c7.9 2.5 12.8 1 16.9.1 3.2-.7 5.9-1.1 9 .5a87417.4 87417.4 0 0 0 13.8 23.8 47.6 47.6 0 0 0-6.7-6.2 47.4 47.4 0 0 0-6.6-4.7c-2.3-1.3-4.6-2.4-6.7-3.4-8.5-3.7-16.1-4.3-18-3.6a41.7 41.7 0 0 0 4.8 13.9c.8 1.3 1.7 2.6 2.8 3.8a18 18 0 0 0 8 5.6c8 2.6 12.9 1.1 17 .2 3.1-.7 5.9-1 9 .6l2.8 4.8a1.3 1.3 0 1 0 2.1-1.3l-2.9-5c-.2-3.4 1.4-5.5 3.5-7.9 2.8-3.1 6.5-6.8 9-13.6 1-2.9 1.3-5.6 1-8Z" fill="url(#b)"/><path fill-rule="evenodd" clip-rule="evenodd" d="m480 461 .5-1.6.7-1.5c1.7-3.9 4.3-6.5 4.3-6.5 1.8.8 7.2 5.4 10.5 13.6a37.6 37.6 0 0 1 2.3 14.6c-.2 2.1-.6 4.3-1.2 6.6l12.8-22.1c.3-3.4-1.3-5.5-3.4-8-2.8-3.1-6.5-6.8-9-13.7a17.8 17.8 0 0 1 0-11.5l.6-1.6.6-1.5c1.8-3.8 4.3-6.4 4.3-6.4 1.8.8 7.2 5.5 10.5 13.7 1 2 1.5 4.3 1.9 6.7.3 2.4.5 5 .3 7.9-.2 2-.6 4.2-1.2 6.5l14-24.1c-.3-2.7-1.9-4.5-3.9-6.6-3-3-6.8-6.5-9.6-13.2a17.8 17.8 0 0 1-.8-11.5l.6-1.6.5-1.5c1.6-4 4-6.6 4-6.6 1.8.6 7.5 5 11.2 13a37.6 37.6 0 0 1 3 14.5c0 2-.3 4-.8 6.1l14.3-24.6c-.3-3-2-4.8-4.1-6.8-3.1-2.9-7-6.2-10.1-12.8a17.8 17.8 0 0 1-1.2-11.5l.5-1.6.5-1.6c1.4-4 3.7-6.7 3.7-6.7 1.9.5 7.7 4.7 11.7 12.6a37.8 37.8 0 0 1 3.5 14.3c0 2.5-.3 5-.8 7.7l14.2-24.7c-.5-3.8-2.6-5.6-5.4-7.5-3.5-2.4-7.9-5.1-11.9-11.2a17.7 17.7 0 0 1-2.9-11.2l.3-1.6.2-1.7c.8-4.1 2.7-7.2 2.7-7.2 2 .3 8.3 3.6 13.5 10.8A37.6 37.6 0 0 1 567 353a40.7 40.7 0 0 1-.4 13 1217 1217 0 0 0 15.4-27.2c.3-.7.3-2.4-1.3-6.8-2.2-1.7-4.5-1.7-7.3-1.6-3.8.3-8.6 1-15-1.1a16.4 16.4 0 0 1-8.5-6.4l-.8-1.3-.7-1.3c-1.8-3.5-2.3-6.8-2.3-6.8 1.6-.9 8-2.2 15.9 0a34.5 34.5 0 0 1 12 6.6c1.2 1.1 2.4 2.5 3.6 4-2.4-5.4-5.9-12.8-11-22.8-2.9-1.8-5.5-1.6-8.6-1-4.1.9-9.2 2.2-16.3.8a17.7 17.7 0 0 1-10-5.7l-1-1.3-1-1.3c-2.5-3.5-3.4-7-3.4-7 1.5-1.1 8.3-3.4 17-2.2a37.6 37.6 0 0 1 13.7 5.4c2 1.5 4 3.2 5.8 5.1l-12.3-22.5c-3.4-2.4-6.2-1.9-9.6-1-4 1.2-9 2.9-16.2 2.1a17.8 17.8 0 0 1-10.4-4.8l-1.2-1.3a24.8 24.8 0 0 1-5-7.9c1.5-1.3 8-4 16.9-3.5 2.2 0 4.5.5 6.8 1.2 2.4.8 4.8 1.8 7.3 3.1a40.8 40.8 0 0 1 8.6 7.1 2164 2164 0 0 0-14.5-25.5c-2.9-2-5.3-1.6-8.2-.8-3.6 1-7.9 2.3-14.2 1.6a15.5 15.5 0 0 1-9-4.4l-1-1.1a19 19 0 0 1-1-1.1c-2.2-2.9-3.2-5.9-3.2-5.9a24 24 0 0 1 14.7-2.8 32.8 32.8 0 0 1 12.2 4c2 1.2 4.1 2.8 6 4.8l.8.7-13.4-22.9c-2.3-1.1-4.3-.7-6.7 0-3.2.9-7.2 2.3-13 1.7a14.3 14.3 0 0 1-8.4-4c-.4-.2-.7-.6-1-1l-.8-1c-2.2-2.5-3.2-5.3-3.2-5.3 1.2-1 6.4-3.3 13.6-2.9a30.2 30.2 0 0 1 11.4 3.5c1.6 1 3.3 2.3 5 3.8l-10-16.6c-1.7-1.7-3.7-2.7-5.7-3.9a49.7 49.7 0 0 1-4.6-2.8 24.4 24.4 0 0 1-4.7-4.6 16 16 0 0 1-3.4-7 23 23 0 0 1-.7-4.2c-.2-3.5.4-6.3 1-6.8.4-.4 3.3-.3 6.7 1a22.9 22.9 0 0 1 5.2 2.7c1.7 1.3 3.3 3 4.6 5a23 23 0 0 1 3.6 12.3c0 2.8 0 5.2 1 8.1l7.8 13.2c-.4-1.3-.8-2.5-1-3.7a38 38 0 0 1-1.1-6.5c-.2-2.1-.1-4.2-.1-6 .2-7.5 2.5-13.3 3.7-14.3a33.6 33.6 0 0 0 8.4 8.2c.7 1.1 1.3 2.2 1.8 3.4 1 2.4 1.6 5 1.2 7.8-.9 6.7-3.7 9.7-5.8 12.4-1.5 1.9-2.7 3.6-2.7 6.1l10.6 18c-.3-1-.6-2-.7-3-.6-2.4-1-4.7-1-7-.2-2.3-.1-4.5 0-6.5.4-8 3-14.3 4.2-15.4a36.4 36.4 0 0 0 9 9.1c.6 1.2 1.3 2.4 1.8 3.7 1 2.6 1.7 5.5 1.2 8.5-1.1 7.2-4.2 10.4-6.5 13.2a11.5 11.5 0 0 0-3.1 6 2930.8 2930.8 0 0 1 11.3 19.8l-.7-3c-.7-2.8-1.1-5.5-1.3-8.1-.2-2.6-.2-5.2-.1-7.5.3-9.2 3.1-16.3 4.6-17.6a41.7 41.7 0 0 0 10.4 10.2 29 29 0 0 1 2.2 4.3c1.3 3 2 6.2 1.5 9.6-1.1 8.3-4.6 12-7.2 15.3-1.8 2.3-3.3 4.4-3.5 7.3 5 9 9.5 17.1 13.4 24.5a48 48 0 0 1-1.7-8c-.5-2.8-.7-5.5-.7-8.1 0-2.6.3-5.2.5-7.5 1-9.2 4.5-16 6-17.2a41.6 41.6 0 0 0 9.6 11c.7 1.4 1.4 2.9 1.9 4.4 1 3 1.5 6.4.7 9.8-1.8 8.1-5.6 11.6-8.4 14.7-2.2 2.4-4 4.5-4.1 8l3.3 6.5c4 8 6.8 14 8.7 18.7-.5-2.9-.8-5.6-.7-8.3-.2-2.6 0-5 .3-7.5.3-2.4.8-4.7 1.3-6.7 2-8.3 6-14.2 7.5-15.1a38.4 38.4 0 0 0 7.5 11.2l1.2 4.2c.5 3 .6 6-.5 9-2.6 7.3-6.5 10-9.4 12.5-2.4 2-4.3 3.8-4.8 7.2 1.6 4.8 1.5 6.8 1 7.9l-5.1 9.1.3-.4 5.7-4.8c7.4-5.6 14.7-8 16.6-7.7 0 0 .6 4.5-.3 10.2a38 38 0 0 1-1 4.4 29 29 0 0 1-1.8 4.4 18 18 0 0 1-6.6 7.3c-7 4.3-12.2 4-16.4 4.2-2.8 0-5.3.2-7.6 1.8l-15.2 26.4c1.7-2.2 3.5-4.2 5.4-6 2-2 4.2-3.7 6.3-5.2 2.1-1.5 4.3-2.8 6.3-4 8.2-4.4 15.7-5.6 17.6-5 0 0-.1 4.5-1.8 10a39.1 39.1 0 0 1-1.7 4.2c-.7 1.4-1.5 2.7-2.5 4a18 18 0 0 1-7.5 6.3c-7.7 3.2-12.7 2.2-16.9 1.7-3.5-.5-6.5-.7-9.8 1.9L532.6 430a47 47 0 0 1 7.6-8.3c2.1-1.9 4.3-3.6 6.5-5s4.4-2.6 6.5-3.7c8.2-4.2 15.8-5.1 17.7-4.5 0 0-.3 4.6-2.2 10a38 38 0 0 1-1.8 4.1 29 29 0 0 1-2.6 4 18 18 0 0 1-7.8 6c-7.8 3-12.8 1.7-16.9 1-3.6-.6-6.6-.9-10.1 1.8l-14 24h.1c2.1-2.4 4.4-4.4 6.7-6.2 2.2-1.8 4.4-3.4 6.7-4.7 2.2-1.3 4.6-2.4 6.6-3.3 8.5-3.7 16.2-4.3 18-3.5 0 0-.6 4.5-2.7 9.8a39 39 0 0 1-2 4 29 29 0 0 1-2.9 3.8 18 18 0 0 1-8.1 5.6c-7.9 2.5-12.8 1-16.9.1-3.2-.7-5.9-1.1-9 .5a71400 71400 0 0 1-13.8 23.8c2.1-2.4 4.4-4.4 6.7-6.2 2.1-1.8 4.4-3.4 6.6-4.7 2.3-1.3 4.6-2.4 6.7-3.4 8.5-3.7 16.1-4.3 18-3.6 0 0-.6 4.5-2.7 9.9a37.5 37.5 0 0 1-2 4c-.9 1.3-1.8 2.6-2.9 3.8a18 18 0 0 1-8 5.6c-8 2.6-12.9 1.1-17 .2-3.1-.7-5.9-1-9 .6l-2.8 4.8a1.3 1.3 0 1 1-2.1-1.3l2.9-5c.2-3.4-1.4-5.5-3.5-7.9-2.8-3.1-6.5-6.8-9-13.6a17.8 17.8 0 0 1-.2-11.5Z" fill="url(#c)"/><path fill-rule="evenodd" clip-rule="evenodd" d="M301 472.5a3.8 3.8 0 1 0 0 7.6 3.8 3.8 0 0 0 0-7.6Z" fill="#D8D8D8"/><path d="M436.7 475h-115M281 474.9H166" stroke="#D8D8D8"/><path fill-rule="evenodd" clip-rule="evenodd" d="M309 391.2c0 3.7-1.8 7-5.6 7s-5.6-2.5-5.6-7v-20.3c0-4.6 1.8-7 5.6-7s5.6 3.1 5.6 7v20.3Zm6-20.3c0-6.6-4.6-10.9-11.6-10.9s-11.5 4.4-11.5 10.9v20.3c0 6.5 4.4 10.8 11.5 10.8 7 0 11.5-4.3 11.5-10.8v-20.3Zm-32.4 66.4 4.5-19.7 4.5 19.7h-9Zm8.6-26.8h-6l-9 38.2-2 1v1.9h7.8v-1.8l-2-1 1.9-8.2h10.5l2 8.2-2.1 1.3v1.5h10.2v-1.8l-2-1.3-9.3-38Zm28.9 21h-3.7v-17.1h3.7c4 0 5.3 2.1 5.3 5.9v5.3c0 3.7-1.5 5.8-5.3 5.8Zm10.6 14L328 438a6 6 0 0 0-3.1-3.9c3.7-.7 6.5-3.5 6.5-8.5v-5.3c0-7.1-5-9.5-11.3-9.5h-11.7v1.7l2.2 1.5v34.2l-2.6 1.7v1.7h11v-1.7l-2.6-1.7v-13.4c3.4 0 4.5.8 5.6 4l2.8 7.4c1.2 3.1 1.5 5.7 5.2 5.7 1.2 0 3-.1 4.2-.7v-2.3c-1.9.4-3-1.8-3.5-3.4Zm27.9-4.6c0 3.9-1.4 7-5.6 7h-5l-.1-.3c1-.3 1.2-.8 1.2-1.8v-31.5h3.9c4.2 0 5.6 3.2 5.6 7V441Zm-5.6-30.1h-12.1v1.7l2.2 1.7v34l-2.6 1.7v1.7H353c6.7 0 11.5-3.5 11.5-10.7v-19.6c0-7.6-4.6-10.5-11.5-10.5Zm27 7.9c0-2.8 1.5-4.5 4.2-4.5s4.2 1.6 4.2 4.5v3h6v-11h-4l-.4 2.2h-.3c-1.9-2.1-4.2-2.6-6.5-2.6-4.7 0-9.1 2.3-9.1 8.4v5c0 10.1 14.6 7 14.6 14.7v5c0 2.8-1.4 4.9-4.4 4.9-2.6 0-4.1-1.5-4.1-5v-3.2h-6.5v3.2c0 6.2 4.8 9 10.3 9 5.5 0 10.8-2.5 10.8-9v-5c0-10.8-14.7-7.6-14.7-14.7v-4.9Zm-116-6.1 2.1 1c-1.5 9.6-3.2 19.1-4.8 28.7l-5.6-30.4H252l-5.8 30.7-4.4-28.9 2.4-1v-2h-10.8v1.9l2.2 1.3 6.3 38h5.8l5-23.5 4.5 23.4h6l6.7-38.1 2-1.1v-1.8h-8v1.8Zm-52.6 24.7 4.5-19.7 4.5 19.7h-9Zm8.6-26.8h-6c-2.9 12-6 26.1-9 38.2l-2 1v1.9h7.8v-1.8l-2-1 1.9-8.2h10.6l1.9 8.2-2.1 1.3v1.5h10.2v-1.8l-2-1.3-9.3-38Zm115.9-29.2h-3.7v-17h3.7c4 0 5.3 2.1 5.3 5.8v5.3c0 3.8-1.5 6-5.3 6Zm14 19.8v-2.3c-1.8.4-2.8-1.9-3.4-3.5l-2.7-7.5a6 6 0 0 0-3-3.8c3.6-.8 6.4-3.6 6.4-8.6v-5.3c0-7-5-9.5-11.3-9.5h-11.7v1.7l2.2 1.5V398l-2.6 1.8v1.7h11v-1.7l-2.6-1.8v-13.3c3.4 0 4.5.8 5.6 4l2.8 7.4c1.2 3 1.5 5.7 5.2 5.7 1.2 0 3-.2 4.2-.8Zm83.6-8.8-2 5.6h-9.2v-.3c1-.3 1.2-.9 1.2-1.8v-32l2.2-1.5v-1.7h-10.4v1.7l2.2 1.5V398l-2.6 1.8v1.7H436v-9.2h-2.5Zm-44-5.2 4.5-19.6 4.5 19.6h-9Zm8.6-26.7h-6l-9 38.1-2 1.2v1.8h7.8v-1.8l-2-1 1.9-8.2h10.5l2 8.2-2.1 1.2v1.6h10.2v-1.8l-2-1.3-9.3-38Zm-19.6.2H355l-.2 10.4h2.8l1.8-6.7h4.3v33.4l-2.5 1.8v2h11.1v-2l-2.5-1.8v-33.4h4.2l2 6.7h2.7l-.2-10.4Zm-157.9 31.7h-2.5l-2 5.6h-9.8v-.3c1-.3 1.2-.9 1.2-1.8V383h5.6l1.5 3.1h1.7v-9.8h-1.7l-1.5 3.2h-5.6V364h7.9l1.6 5.7h2.9v-9.2h-20.5v1.6l2.2 1.5V398l-2.6 1.8v1.7h21.6v-9.2Zm47.7-28h3.7c4 0 5.3 2.1 5.3 5.8v7.3c0 3.7-1.5 5.8-5.4 5.8h-3.6v-19Zm2.5 35.5-2.5-1.8v-11.4h3.5c6.4 0 11.5-2 11.5-9.2v-7.3c0-7-5.1-9.5-11.4-9.5h-11.6v1.7l2.1 1.5V398l-2.5 1.8v1.7h10.9v-1.7Zm-86.8-9c0 3.8-1.3 7-5.6 7h-5v-.4c.9-.3 1.2-.8 1.2-1.8v-31.4h3.8c4.3 0 5.6 3.1 5.6 7v19.5Zm-5.6-30.2h-12v1.7l2.1 1.8v34l-2.5 1.7v1.7h12.4c6.8 0 11.6-3.5 11.6-10.8v-19.5c0-7.6-4.7-10.6-11.6-10.6Zm73.8 3 2-1.2v-1.8h-7.9v1.8l2.2 1-7.1 31.2-7.2-30.9 2.2-1.5v-1.6h-10.5v1.8l2.1 1.3 9.3 38h5.9l9-38.1Z" fill="#282828"/><path d="M144.1 259.7h11c1.1 0 2.2.1 3.2.4a7.4 7.4 0 0 1 4.8 3.4c.5 1 .7 2 .7 3.3 0 1.6-.4 3-1.3 4-1 1-2.1 1.7-3.6 2.2.9.2 1.7.4 2.5.8a6.3 6.3 0 0 1 3.2 3.6c.3.8.4 1.6.4 2.5 0 1.6-.3 2.9-.9 3.9-.6 1-1.4 1.8-2.4 2.5-1 .6-2.2 1-3.5 1.3-1.2.3-2.5.4-3.9.4h-10.2v-28.3Zm5 11.5h4.7c1.6 0 2.9-.3 3.7-1 .9-.6 1.3-1.5 1.3-2.6 0-1.2-.4-2-1.3-2.7-.9-.6-2.3-.9-4.2-.9h-4.1v7.2Zm0 12.5h4.7l2-.1c.8-.1 1.5-.3 2-.6a4 4 0 0 0 1.6-1.2c.4-.6.6-1.3.6-2.3 0-1.5-.5-2.5-1.5-3.1a9 9 0 0 0-4.5-.9h-4.8v8.2Zm24.4-3.6c.1 1.4.7 2.5 1.6 3.3 1 .8 2.2 1.2 3.5 1.2 1.2 0 2.2-.2 3-.7.8-.5 1.6-1.1 2.2-1.9l3.4 2.6a9.7 9.7 0 0 1-8.1 3.9c-1.4 0-2.8-.3-4-.7a9.8 9.8 0 0 1-5.6-5.2c-.6-1.3-.8-2.7-.8-4.2s.2-2.9.8-4.1a9.9 9.9 0 0 1 9.6-6 9 9 0 0 1 3.6.7c1.2.5 2.1 1.2 2.9 2 .8 1 1.4 2 1.8 3.3.5 1.3.7 2.8.7 4.5v1.3h-14.6Zm9.8-3.6c0-1.4-.5-2.5-1.3-3.3-.9-.9-2-1.3-3.6-1.3-1.4 0-2.6.4-3.4 1.3-.8.8-1.4 1.9-1.5 3.3h9.8Zm19.5-2.4a4.4 4.4 0 0 0-5.6-1.5c-.6.4-1 .9-1 1.6 0 .6.3 1 .8 1.3l2 .7 2.4.6c1 .1 1.8.5 2.5.9.8.4 1.5 1 2 1.7s.7 1.7.7 3a5.3 5.3 0 0 1-2.7 4.7c-.7.5-1.6.8-2.6 1a14 14 0 0 1-7-.3 7.8 7.8 0 0 1-3.4-2.3l3.2-3c.6.7 1.2 1.3 2 1.7a5 5 0 0 0 2.5.7l1.1-.1 1-.4c.4-.2.6-.5.8-.7.2-.3.3-.6.3-1 0-.7-.2-1.2-.7-1.5-.5-.3-1.2-.6-2-.8l-2.5-.5a11 11 0 0 1-2.5-.9c-.7-.4-1.4-1-1.9-1.6-.5-.7-.7-1.7-.7-2.9 0-1 .2-2 .6-2.7a6 6 0 0 1 1.8-2c.7-.5 1.5-.9 2.4-1.1a11.4 11.4 0 0 1 6.7.3 6 6 0 0 1 3 2.2l-3.2 3Zm5.3-1.2v-4.1h4v-5.6h4.8v5.6h5.3v4h-5.3v8.5c0 1 .2 1.7.5 2.3.4.5 1 .8 2.2.8l1.4-.1 1.2-.5v4a13.2 13.2 0 0 1-3.8.6c-1.3 0-2.4 0-3.2-.4-.8-.2-1.4-.6-2-1.2-.4-.6-.7-1.3-.9-2.2l-.2-3V273h-4Zm28.6 1c0-2.2.3-4.3 1-6.1a14 14 0 0 1 3.2-4.8c1.3-1.3 2.9-2.3 4.7-3 1.8-.7 3.8-1 6-1s4.3.3 6.1 1a13 13 0 0 1 7.9 7.6c.7 1.9 1.1 4 1.1 6.2s-.4 4.2-1.1 6a13.8 13.8 0 0 1-7.9 7.8 17.1 17.1 0 0 1-12.1 0c-1.8-.6-3.4-1.6-4.7-3a14.2 14.2 0 0 1-3.1-4.6c-.8-1.8-1.1-3.8-1.1-6Zm5.2-.3c0 1.6.3 3 .7 4.2.5 1.3 1.2 2.4 2 3.4a9.3 9.3 0 0 0 7 3 9.2 9.2 0 0 0 9-6.3 11.9 11.9 0 0 0 .1-8.2 9.3 9.3 0 0 0-9-6.2c-1.5 0-2.8.3-4 .8a9.9 9.9 0 0 0-5.7 9.3Zm29.2-4.8h4.5v3h.1c.5-.9 1.2-1.7 2-2.4a6 6 0 0 1 3.9-1c1.3 0 2.3.1 3.2.6a6.1 6.1 0 0 1 3.4 4c.3 1 .4 1.9.4 2.9V288h-4.8v-9.7l-.1-1.8c0-.6-.2-1.3-.4-1.8l-1-1.5a3 3 0 0 0-2-.6c-.8 0-1.5.2-2 .4-.6.3-1 .7-1.4 1.1-.4.5-.6 1-.8 1.6a7 7 0 0 0-.2 1.8V288H271v-19.2Zm23-11h4.7v13.4h.2a6 6 0 0 1 .9-1l1.3-.9a8.3 8.3 0 0 1 4.3-1 8.8 8.8 0 0 1 6.7 3c.8.8 1.4 2 1.9 3.1a12 12 0 0 1 0 8 9.2 9.2 0 0 1-4.9 5.3 9.9 9.9 0 0 1-7.7 0 6.2 6.2 0 0 1-2.8-2.6h-.1v2.9H294v-30.2Zm15.9 20.6a6 6 0 0 0-1.6-4 5.4 5.4 0 0 0-4-1.8 5.6 5.6 0 0 0-5.4 3.6 6.6 6.6 0 0 0 0 4.4c.3.7.7 1.3 1.2 1.8s1 1 1.8 1.3c.6.3 1.4.5 2.3.5.9 0 1.7-.2 2.4-.5a5.4 5.4 0 0 0 2.9-3.1 6 6 0 0 0 .4-2.2Zm8.3 0a9.9 9.9 0 0 1 6.4-9.4 11.5 11.5 0 0 1 11.4 2c1 1 1.7 2 2.2 3.3.6 1.2.8 2.6.8 4.1a10 10 0 0 1-3 7.3c-1 .9-2 1.6-3.3 2a11.5 11.5 0 0 1-11.5-2c-1-.9-1.7-2-2.2-3.1-.6-1.3-.8-2.7-.8-4.2Zm4.8 0c0 .7 0 1.5.3 2.2.3.7.7 1.3 1.1 1.8.6.5 1.2 1 1.8 1.3.7.3 1.5.5 2.4.5.9 0 1.7-.2 2.4-.5a5.4 5.4 0 0 0 2.8-3.1 6 6 0 0 0 0-4.4 5.4 5.4 0 0 0-5.2-3.6 5.6 5.6 0 0 0-5.3 3.6c-.2.7-.3 1.5-.3 2.2Zm32.5 7c-.8 1-1.7 1.9-2.7 2.4a9.6 9.6 0 0 1-6.1.4c-.9-.3-1.6-.7-2.3-1.2-.6-.4-1.1-1-1.5-1.8-.4-.7-.6-1.5-.6-2.5s.1-1.9.5-2.6c.4-.8.9-1.4 1.5-1.9s1.4-.9 2.2-1.2a18.9 18.9 0 0 1 5.3-1h3.7v-.5c0-1.2-.4-2-1.2-2.7-.8-.6-1.9-.9-3.2-.9-1 0-2 .2-2.8.6a7 7 0 0 0-2.3 1.4l-2.5-2.5c1-1 2.3-1.9 3.7-2.4a14 14 0 0 1 7.9-.2c1 .3 1.7.7 2.3 1.2.6.4 1.1 1 1.4 1.6.4.7.6 1.3.7 2l.3 1.8V288h-4.3v-2.6Zm-.2-6h-1a35.3 35.3 0 0 0-4.6.5 5 5 0 0 0-1.9.9c-.5.3-.7.9-.7 1.6 0 .4 0 .8.2 1.1l.8.8a3.6 3.6 0 0 0 2.3.6c1.7 0 2.9-.4 3.7-1.2.8-.8 1.2-1.9 1.2-3.2v-1.1Zm9.7-10.6h4.8v3h.1a6 6 0 0 1 7.4-3.2v4.6a9.4 9.4 0 0 0-2.3-.3c-1.1 0-2 .2-2.7.6a5 5 0 0 0-1.6 1.4 5.3 5.3 0 0 0-.9 2.8V288h-4.8v-19.2Zm30 16.3c-.7 1.2-1.6 2-2.8 2.6a10 10 0 0 1-7.8 0 9.2 9.2 0 0 1-4.9-5.3 12 12 0 0 1 0-8 8.7 8.7 0 0 1 4.8-5.3c1.3-.5 2.5-.8 3.9-.8a9.3 9.3 0 0 1 4.2 1c.6.3 1 .6 1.4 1l1 1v-13.5h4.8V288h-4.5v-2.9Zm-11.3-6.7a5.9 5.9 0 0 0 1.5 4 5.6 5.6 0 0 0 4.2 1.8 5.4 5.4 0 0 0 5.2-3.6 6 6 0 0 0 0-4.4 5.4 5.4 0 0 0-5.2-3.6 5.6 5.6 0 0 0-5.3 3.6c-.3.7-.4 1.5-.4 2.2Zm21.5-9.6h4.8V288h-4.8v-19.2Zm-.7-6.5c0-.8.3-1.5.8-2a3 3 0 0 1 2.2-.9 3 3 0 0 1 2.2.8c.7.6 1 1.3 1 2 0 1-.3 1.6-1 2.2-.5.5-1.3.8-2.2.8a2.9 2.9 0 0 1-3-2.9Zm11 6.5h4.6v3c.5-.9 1.2-1.7 2.1-2.4a6 6 0 0 1 3.8-1c1.3 0 2.4.1 3.3.6a6.1 6.1 0 0 1 3.4 4c.2 1 .3 1.9.3 2.9V288h-4.8v-11.5l-.5-1.8c-.2-.6-.6-1-1-1.5a3 3 0 0 0-2-.6c-.8 0-1.5.2-2 .4-.6.3-1 .7-1.4 1.1-.4.5-.6 1-.8 1.6a7 7 0 0 0-.2 1.8V288h-4.8v-19.2Zm42.7 0v17.5a16 16 0 0 1-.6 4.7 8.8 8.8 0 0 1-5.4 5.8c-1.3.5-3 .8-4.8.8-1.8 0-3.5-.2-5.1-.7-1.6-.4-3-1.3-4.4-2.5l2.8-3.9c1 .9 2 1.6 3 2 1 .5 2.3.8 3.6.8 1.2 0 2.2-.2 3-.5a4.5 4.5 0 0 0 2.8-3.4c.2-.7.3-1.6.3-2.6v-1.4c-.8 1-1.7 1.7-2.8 2.2-1.2.4-2.3.6-3.5.6-1.5 0-2.8-.2-4-.7a9.3 9.3 0 0 1-5-5.2c-.4-1.3-.6-2.5-.6-3.9s.2-2.7.6-4c.5-1.2 1.1-2.3 2-3.2.8-.9 1.7-1.6 2.9-2 1.2-.6 2.5-.9 4-.9a9 9 0 0 1 3.8.8c1.2.6 2 1.4 2.8 2.6v-2.9h4.6Zm-10.2 3.8a5.9 5.9 0 0 0-4.1 1.6c-.5.5-.9 1.1-1.2 1.8a6.4 6.4 0 0 0 0 4.5 5.7 5.7 0 0 0 3 3c.7.3 1.4.4 2.2.4a6 6 0 0 0 4.2-1.6c.5-.5.9-1 1.2-1.8.2-.7.4-1.4.4-2.2 0-1.7-.5-3-1.6-4.1-1-1-2.4-1.6-4.1-1.6Z" fill="#518489"/><path d="M261 538c.3-12.7 13.7-18.6 13.7-29.7 0-6.3-4-9.1-10.4-9.1-7.5 0-9.6 4.8-9.6 11.7h6.1c0-2.7-.1-7.7 3.6-7.7 2.5 0 3.8 2.3 3.8 5.2 0 11.3-14 17.2-13.8 31.4v2.2h20.9v-10h-2.7l-2 6H261Zm20.5-27.4v20.9c0 6.7 4.2 11.2 11.3 11.2 7 0 11.2-3.6 11.2-11.2v-21c0-7.5-4.2-11.1-11.2-11.1-7.1 0-11.3 4.5-11.3 11.2Zm6.2 0c0-3.2.9-7.2 5-7.2 4.3 0 5.1 3.4 5.1 7.2v20.9c0 3.8-.8 7.2-5 7.2s-5-4-5-7.2v-21Zm29.1 27.3c.3-12.6 13.6-18.5 13.6-29.6 0-6.3-4-9.1-10.3-9.1-7.5 0-9.6 4.8-9.6 11.7h6c0-2.7 0-7.7 3.7-7.7 2.5 0 3.8 2.3 3.8 5.2 0 11.3-14 17.2-13.8 31.4v2.2H331v-10h-2.7l-1.9 6h-9.6Zm22.2.3-2.7 1.8v2h11.4v-2l-2.6-1.8V500h-9.7v2.5l3.6 1.2v34.5Z" fill="#282828"/><path fill-rule="evenodd" clip-rule="evenodd" d="M394.6 77 353 5c-1.8-3-5.2-5-8.8-5h-83.4c-3.6 0-7 2-8.8 5l-41.6 72a10 10 0 0 0 0 10l41.6 72c1.8 3 5.2 5 8.8 5h83.4c3.6 0 7-2 8.8-5l41.6-72a10 10 0 0 0 0-10Z" fill="url(#d)"/><path fill-rule="evenodd" clip-rule="evenodd" d="m384.6 77.7-37.2-64.2a9 9 0 0 0-7.8-4.5h-74.4a9 9 0 0 0-7.8 4.5l-37.2 64.2a9 9 0 0 0 0 9l37.2 64.3a9 9 0 0 0 7.8 4.5h74.4a9 9 0 0 0 7.8-4.5l37.2-64.2a9 9 0 0 0 0-9Z" fill="#F5F5F5"/><path fill-rule="evenodd" clip-rule="evenodd" d="M234.2 140h135.6c15 0 27.2 12.2 27.2 27.2v2.6c0 15-12.2 27.2-27.2 27.2H234.2c-15 0-27.2-12.2-27.2-27.2v-2.6c0-15 12.2-27.2 27.2-27.2Z" fill="#518489"/><path fill-rule="evenodd" clip-rule="evenodd" d="m245.2 178.1 4.7-24.5h3l4.5 24.3 4-23-1.8-.8v-1.4h6.5v1.4l-1.7.9-5.4 30.5h-4.9l-3.7-18.7-4 18.7h-4.6l-5.1-30.4-1.8-1v-1.4h8.7v1.5l-2 .8 3.6 23.1Zm30.2-22.9v27.4l2 1.4v1.3h-8.8V184l2-1.4v-27.4L269 154v-1.3h8.3v1.3l-1.8 1.2Zm11.5 27.5 2 1.2v1.4h-7.4V184l2-1.2v-27.5l-1.8-1.2v-1.3h5.5c2 0 2.4.2 3 2l4.5 14.5 2.1 9h.1l-.2-7.8v-15L295 154v-1.4h6.8v1.4l-1.8 1.2v30h-4c-1 0-1.7-.6-2-1.6l-7.6-26h-.1l.6 4.7v20.3Zm24.3 0 2 1.2v1.4h-7.3V184l2-1.2v-27.5L306 154v-1.3h5.5c2 0 2.4.2 3 2l4.5 14.5 2 9h.2l-.2-7.8v-15l-1.8-1.3v-1.4h6.9v1.4l-1.8 1.2v30h-4c-1.1 0-1.7-.6-2-1.6l-7.6-26h-.1l.5 4.7v20.3Zm36.5 2.6h-17.5V184l2-1.4V155l-1.7-1.2v-1.2h16.6v7.3h-2.3l-1.4-4.6h-6.3v12.3h4.5l1.2-2.6h1.4v7.9h-1.4l-1.2-2.5H337v10.3c0 .7-.2 1.2-1 1.4v.3h8l1.5-4.5h2v7.3Zm13.6-29.7h-3v13.6h3c3.1 0 4.3-1.7 4.3-4.7v-4.2c0-3-1-4.7-4.3-4.7Zm3.9 25.4-2.3-6c-1-2.4-1.8-3-4.5-3v10.6l2 1.4v1.3h-8.8V184l2-1.4v-27.4l-1.7-1.2v-1.3h9.4c5 0 9.2 1.9 9.2 7.6v4.2c0 4-2.3 6.2-5.3 6.8 1.4.8 2 1.7 2.5 3.1l2.2 6c.5 1.3 1.3 3.1 2.8 2.8v1.8c-1 .5-2.4.6-3.4.6-3 0-3.2-2.1-4.1-4.6Z" fill="#F5F5F5"/><path d="M333.1 65H268l-8-8.2 8-8.3H333V65ZM277.8 71.6H337l7.9 8.2-8 8.3h-59.2V71.6ZM307.4 46.9v-5c0-1.8-1.8-3.3-4-3.3-2.1 0-3.9 1.5-3.9 3.3v5M307.4 106.2V89.7M299.5 89.7v21.4M315.7 114.4c-6-3.8-.4-13.2-.4-13.2-8 .9-11.8 13.2-11.8 13.2l-10-8.2s5.5 8.6-1.4 9.9M299.5 65v5M307.4 70v-5" stroke="#282828" stroke-width="4" stroke-miterlimit="10" stroke-linecap="round" stroke-linejoin="round"/><defs><linearGradient id="b" x1="36" y1="207.3" x2="160.3" y2="285.9" gradientUnits="userSpaceOnUse"><stop stop-color="#7BC0C7"/><stop offset="1" stop-color="#518489"/></linearGradient><linearGradient id="c" x1="566" y1="209.3" x2="441.7" y2="287.9" gradientUnits="userSpaceOnUse"><stop stop-color="#7BC0C7"/><stop offset="1" stop-color="#518489"/></linearGradient><linearGradient id="d" x1="340.9" y1="141.1" x2="288" y2="34.9" gradientUnits="userSpaceOnUse"><stop stop-color="#7BC0C7"/><stop offset="1" stop-color="#518489"/></linearGradient></defs></svg>