<svg xmlns="http://www.w3.org/2000/svg" viewBox="0 0 48 48"><defs/><g fill="none" fill-rule="evenodd"><path fill="#4689C8" d="M2.8 11.2h27.5V5.5H2.8z" opacity=".1"/><path fill="#2173C4" d="M37.8 9.3a.8.8 0 100-1.5.8.8 0 000 1.5zm-3.8 0a.8.8 0 100-1.5.8.8 0 000 1.5zm7.7 0a.8.8 0 100-1.5.8.8 0 000 1.5zm-10.8 1.3h13.9V6.4h-14v4.2zm13.9 19.7v13.2H3.4V12.1h41.3v18.1zM3.4 10.6h26V6.4h-26v4.2zM46.1 34V5.7a.7.7 0 00-.7-.7H2.7a.7.7 0 00-.7.7v38.5c0 .4.3.7.7.7h42.8a.7.7 0 00.7-.7V34zM28.4 20.8l-1.3-.7-6.8 13.5 1.3.7 6.8-13.5zm2.1 13l5.3-5.3c.3-.3.3-.8 0-1l-5.3-5.3-1 1 4.7 4.7-4.7 4.8 1 1zm-12.3 0l1-1.1-4.7-4.8 4.8-4.7-1.1-1-5.3 5.2c-.3.3-.3.8 0 1l5.3 5.3z"/></g></svg>