<svg xmlns="http://www.w3.org/2000/svg" viewBox="0 0 48 48"><defs/><g fill="none" fill-rule="evenodd"><path fill="#4689C8" d="M9.5 7.8l27.7.2 2.2 2-.1 2.1-9.3 9.3-1.2 2.8 3.6-.2 7-6.5v13l-2 2.1H14.5l-7.7 6.8-.1-29.7s.7-2 2.8-2" opacity=".1"/><path fill="#2173C4" fill-rule="nonzero" d="M31.6 16.3a.8.8 0 100-1.5h-17a.8.8 0 100 1.5h17zm-17 7.8a.8.8 0 100 1.6h9.2a.8.8 0 100-1.6h-9.3z"/><g transform="translate(6 6.1)"><mask id="a" fill="#fff"><path d="M0 .9h37.2V35H0z"/></mask><path fill="#2173C4" fill-rule="nonzero" d="M35.3 8L34 9l-2-2L33.3 6c.2-.3.6-.5 1-.5a1.4 1.4 0 011 2.5zM26 17.2l-2.5.5.5-2.5 7-7 2 2-7 7zm6.6 7c0 .8-.7 1.5-1.6 1.5H8.5L8 26l-6.5 6.5V4c0-.8.7-1.6 1.6-1.6h28c.8 0 1.5.8 1.5 1.6v.5l-.4.4-8.5 8.4H8.5a.8.8 0 100 1.6h14l-.8 3.7a.8.8 0 001 .9l3.8-.8c.2 0 .3 0 .4-.2l5.7-5.6v11.3zM34.3 4H34a3.1 3.1 0 00-3-3.1H3A3.1 3.1 0 000 4v30.3a.8.8 0 001.3.5L9 27.3H31a3.1 3.1 0 003.1-3.1V11.3l2.3-2.2A3 3 0 0034.3 4z" mask="url(#a)"/></g></g></svg>