<svg width="130" height="34" viewBox="0 0 130 34" fill="none" xmlns="http://www.w3.org/2000/svg">
<path d="M26.6747 1.24783C26.3017 1.10708 25.9019 1.05148 25.5046 1.08508C25.1074 1.11869 24.7226 1.24065 24.3785 1.44206L8.42432 10.6507L19.0822 22.7634L26.6747 1.24783Z" fill="#0F7B0A"/>
<path d="M28.4405 30.3657V3.78728C28.4443 3.23255 28.2768 2.69018 27.9607 2.23425C27.6446 1.77832 27.1954 1.43106 26.6746 1.23993L19.082 22.7555L27.544 32.3701C27.8271 32.1187 28.0533 31.8099 28.2079 31.4643C28.3625 31.1187 28.4418 30.7443 28.4405 30.3657Z" fill="#0F7B0A"/>
<path d="M28.4405 30.3657V3.78728C28.4443 3.23255 28.2768 2.69018 27.9607 2.23425C27.6446 1.77832 27.1954 1.43106 26.6746 1.23993L19.082 22.7555L27.544 32.3701C27.8271 32.1187 28.0533 31.8099 28.2079 31.4643C28.3625 31.1187 28.4418 30.7443 28.4405 30.3657Z" fill="white" fill-opacity="0.1"/>
<path d="M19.0821 22.7634L8.42425 10.6508L1.3556 14.7313C0.943503 14.9687 0.601248 15.3104 0.363265 15.7221C0.125282 16.1338 0 16.6009 0 17.0764C0 17.552 0.125282 18.0191 0.363265 18.4308C0.601248 18.8425 0.943503 19.1842 1.3556 19.4216L24.38 32.7092C24.8745 32.9973 25.4478 33.1205 26.017 33.0609C26.5862 33.0014 27.1216 32.7622 27.5457 32.3781L19.0837 22.7634H19.0821Z" fill="#0F7B0A"/>
<path d="M19.0821 22.7634L8.42425 10.6508L1.3556 14.7313C0.943503 14.9687 0.601248 15.3104 0.363265 15.7221C0.125282 16.1338 0 16.6009 0 17.0764C0 17.552 0.125282 18.0191 0.363265 18.4308C0.601248 18.8425 0.943503 19.1842 1.3556 19.4216L24.38 32.7092C24.8745 32.9973 25.4478 33.1205 26.017 33.0609C26.5862 33.0014 27.1216 32.7622 27.5457 32.3781L19.0837 22.7634H19.0821Z" fill="black" fill-opacity="0.1"/>
<path d="M43.3367 18.6243C42.1868 18.6243 41.1266 18.4153 40.1559 17.9971C39.1852 17.579 38.3415 17.0115 37.6247 16.2947C36.9228 15.563 36.3703 14.7043 35.9671 13.7187C35.5639 12.7331 35.3623 11.6803 35.3623 10.5603V10.5155C35.3623 9.39554 35.5564 8.35021 35.9447 7.37954C36.3479 6.39394 36.9079 5.53527 37.6247 4.80354C38.3415 4.05687 39.1927 3.47447 40.1783 3.05634C41.1639 2.62327 42.254 2.40674 43.4487 2.40674C44.1655 2.40674 44.8151 2.46647 45.3975 2.58594C45.9948 2.70541 46.5399 2.87714 47.0327 3.10114C47.5255 3.31021 47.981 3.56407 48.3991 3.86274C48.8172 4.16141 49.213 4.48994 49.5863 4.84834L47.8167 6.88674C47.1895 6.30434 46.525 5.83394 45.8231 5.47554C45.1212 5.11714 44.3223 4.93794 43.4263 4.93794C42.6796 4.93794 41.9852 5.08727 41.3431 5.38594C40.7159 5.66967 40.1708 6.06541 39.7079 6.57314C39.245 7.06594 38.8866 7.64834 38.6327 8.32034C38.3788 8.99234 38.2519 9.70914 38.2519 10.4707V10.5155C38.2519 11.2771 38.3788 12.0014 38.6327 12.6883C38.8866 13.3603 39.245 13.9502 39.7079 14.4579C40.1708 14.9657 40.7159 15.3689 41.3431 15.6675C41.9852 15.9513 42.6796 16.0931 43.4263 16.0931C44.382 16.0931 45.2034 15.9139 45.8903 15.5555C46.5772 15.1822 47.2567 14.6819 47.9287 14.0547L49.6983 15.8467C49.2951 16.2798 48.8695 16.6681 48.4215 17.0115C47.9884 17.3401 47.518 17.6313 47.0103 17.8851C46.5026 18.1241 45.9426 18.3033 45.3303 18.4227C44.733 18.5571 44.0684 18.6243 43.3367 18.6243Z" fill="#141414"/>
<path d="M57.8358 16.2723C58.3883 16.2723 58.8811 16.1753 59.3142 15.9811C59.7622 15.7721 60.143 15.4958 60.4566 15.1523C60.7702 14.8089 61.0091 14.4131 61.1734 13.9651C61.3377 13.5022 61.4198 13.0169 61.4198 12.5091V12.4643C61.4198 11.9417 61.3302 11.4489 61.151 10.9859C60.9718 10.523 60.7179 10.1198 60.3894 9.77634C60.0758 9.43287 59.695 9.16407 59.247 8.96994C58.8139 8.76087 58.3286 8.65634 57.791 8.65634C57.2534 8.65634 56.7606 8.76087 56.3126 8.96994C55.8795 9.16407 55.5062 9.43287 55.1926 9.77634C54.879 10.1049 54.6401 10.5006 54.4758 10.9635C54.3115 11.4265 54.2294 11.9118 54.2294 12.4195V12.4643C54.2294 12.987 54.319 13.4798 54.4982 13.9427C54.6774 14.3907 54.9238 14.7939 55.2374 15.1523C55.5659 15.4958 55.9467 15.7721 56.3798 15.9811C56.8278 16.1753 57.3131 16.2723 57.8358 16.2723ZM57.791 18.6243C56.895 18.6243 56.0587 18.4675 55.2822 18.1539C54.5206 17.8254 53.8561 17.3849 53.2886 16.8323C52.7361 16.2798 52.303 15.6302 51.9894 14.8835C51.6758 14.1369 51.519 13.3454 51.519 12.5091V12.4643C51.519 11.6131 51.6758 10.8142 51.9894 10.0675C52.3179 9.32087 52.7585 8.67127 53.311 8.11874C53.8785 7.55127 54.543 7.10327 55.3046 6.77474C56.0811 6.44621 56.9249 6.28194 57.8358 6.28194C58.7467 6.28194 59.583 6.44621 60.3446 6.77474C61.1211 7.08834 61.7857 7.52887 62.3382 8.09634C62.9057 8.64887 63.3462 9.29847 63.6598 10.0451C63.9734 10.7769 64.1302 11.5683 64.1302 12.4195V12.4643C64.1302 13.3006 63.9659 14.0921 63.6374 14.8387C63.3238 15.5854 62.8833 16.2425 62.3158 16.8099C61.7633 17.3625 61.0987 17.803 60.3222 18.1315C59.5457 18.4601 58.7019 18.6243 57.791 18.6243Z" fill="#141414"/>
<path d="M72.3113 16.2499C72.7593 16.2499 73.1923 16.1603 73.6105 15.9811C74.0286 15.8019 74.3945 15.5481 74.7081 15.2195C75.0217 14.8761 75.2681 14.4729 75.4473 14.0099C75.6414 13.547 75.7385 13.0318 75.7385 12.4643V12.4195C75.7385 11.8521 75.6414 11.3369 75.4473 10.8739C75.2681 10.3961 75.0217 9.99287 74.7081 9.66434C74.3945 9.33581 74.0286 9.08194 73.6105 8.90274C73.1923 8.72354 72.7593 8.63394 72.3113 8.63394C71.8484 8.63394 71.4078 8.72354 70.9897 8.90274C70.5865 9.06701 70.2281 9.31341 69.9145 9.64194C69.6009 9.97047 69.3545 10.3737 69.1753 10.8515C68.9961 11.3145 68.9065 11.8371 68.9065 12.4195V12.4643C68.9065 13.0318 68.9961 13.5545 69.1753 14.0323C69.3545 14.4953 69.6009 14.891 69.9145 15.2195C70.2281 15.5481 70.5865 15.8019 70.9897 15.9811C71.4078 16.1603 71.8484 16.2499 72.3113 16.2499ZM71.6617 18.6019C70.9598 18.6019 70.2803 18.4675 69.6233 18.1987C68.9662 17.9299 68.3838 17.5342 67.8761 17.0115C67.3684 16.4889 66.9577 15.8467 66.6441 15.0851C66.3305 14.3235 66.1737 13.4499 66.1737 12.4643V12.4195C66.1737 11.4339 66.323 10.5603 66.6217 9.79874C66.9353 9.03714 67.346 8.39501 67.8537 7.87234C68.3614 7.34967 68.9438 6.95394 69.6009 6.68514C70.2729 6.41634 70.9598 6.28194 71.6617 6.28194C72.6324 6.28194 73.4388 6.49101 74.0809 6.90914C74.723 7.32727 75.2606 7.81261 75.6937 8.36514V2.00354H78.4041V18.3555H75.6937V16.3843C75.2606 16.9966 74.7155 17.5193 74.0585 17.9523C73.4164 18.3854 72.6174 18.6019 71.6617 18.6019Z" fill="#141414"/>
<path d="M89.7815 11.6131C89.7367 11.1801 89.6397 10.7769 89.4903 10.4035C89.341 10.0153 89.1394 9.68674 88.8855 9.41794C88.6317 9.13421 88.3255 8.91021 87.9671 8.74594C87.6237 8.58167 87.2279 8.49954 86.7799 8.49954C85.9437 8.49954 85.2493 8.79074 84.6967 9.37314C84.1591 9.94061 83.8306 10.6873 83.7111 11.6131H89.7815ZM87.0935 18.6243C86.2423 18.6243 85.4434 18.475 84.6967 18.1763C83.965 17.8777 83.3229 17.4595 82.7703 16.9219C82.2327 16.3843 81.8071 15.7422 81.4935 14.9955C81.1799 14.2339 81.0231 13.3977 81.0231 12.4867V12.4419C81.0231 11.5907 81.165 10.7918 81.4487 10.0451C81.7325 9.29847 82.1282 8.64887 82.6359 8.09634C83.1586 7.52887 83.7709 7.08834 84.4727 6.77474C85.1746 6.44621 85.9511 6.28194 86.8023 6.28194C87.7431 6.28194 88.5645 6.45367 89.2663 6.79714C89.9831 7.14061 90.573 7.60354 91.0359 8.18594C91.5138 8.76834 91.8722 9.44781 92.1111 10.2243C92.3501 10.9859 92.4695 11.7923 92.4695 12.6435C92.4695 12.763 92.4621 12.8899 92.4471 13.0243C92.4471 13.1438 92.4397 13.2707 92.4247 13.4051H83.7335C83.8829 14.3758 84.2637 15.1225 84.8759 15.6451C85.5031 16.1529 86.2573 16.4067 87.1383 16.4067C87.8103 16.4067 88.3927 16.2873 88.8855 16.0483C89.3783 15.8094 89.8637 15.4585 90.3415 14.9955L91.9319 16.4067C91.3645 17.0787 90.685 17.6163 89.8935 18.0195C89.117 18.4227 88.1837 18.6243 87.0935 18.6243Z" fill="#141414"/>
<rect width="27.1999" height="12.8" transform="translate(35.9604 20.1155)" fill="#141414"/>
<path d="M38.3604 22.5156H39.7661V26.5384L43.5718 22.5156H45.2975L41.9718 25.9556L45.4461 30.5156H43.7432L41.0118 26.9156L39.7661 28.1956V30.5156H38.3604V22.5156Z" fill="white"/>
<path d="M49.0073 22.5156H50.413V30.5156H49.0073V22.5156Z" fill="white"/>
<path d="M56.806 23.8184H54.2688V22.5156H60.7603V23.8184H58.2231V30.5156H56.806V23.8184Z" fill="white"/>
</svg>
