<svg width="130" height="33" viewBox="0 0 130 33" fill="none" xmlns="http://www.w3.org/2000/svg">
<path d="M14.4044 12.2214V12.2294L28.4408 16.5698C28.4189 16.1193 28.2838 15.6815 28.0477 15.2971C27.8116 14.9128 27.4823 14.5942 27.0903 14.3709L4.06738 1.08062C3.65569 0.8426 3.18857 0.71719 2.71301 0.717041C2.23745 0.716892 1.77024 0.842003 1.3584 1.07976C0.946566 1.31752 0.604656 1.65957 0.367048 2.07144C0.12944 2.48332 0.00451021 2.95049 0.00488365 3.42596V7.77753L14.4044 12.2358V12.2214Z" fill="#E81F76"/>
<path d="M14.4044 12.2214V12.2294L28.4408 16.5698C28.4189 16.1193 28.2838 15.6815 28.0477 15.2971C27.8116 14.9128 27.4823 14.5942 27.0903 14.3709L4.06738 1.08062C3.65569 0.8426 3.18857 0.71719 2.71301 0.717041C2.23745 0.716892 1.77024 0.842003 1.3584 1.07976C0.946566 1.31752 0.604656 1.65957 0.367048 2.07144C0.12944 2.48332 0.00451021 2.95049 0.00488365 3.42596V7.77753L14.4044 12.2358V12.2214Z" fill="black" fill-opacity="0.1"/>
<path d="M14.3995 12.2294L1.38074 32.3647C1.78963 32.598 2.25274 32.7195 2.72352 32.717C3.19431 32.7145 3.65613 32.588 4.0625 32.3504L27.0854 19.0601C27.5206 18.812 27.8777 18.4472 28.1164 18.0068C28.355 17.5665 28.4657 17.0682 28.4359 16.5682L14.3995 12.2294Z" fill="#E81F76"/>
<path d="M14.3995 12.2294L1.38074 32.3647C1.78963 32.598 2.25274 32.7195 2.72352 32.717C3.19431 32.7145 3.65613 32.588 4.0625 32.3504L27.0854 19.0601C27.5206 18.812 27.8777 18.4472 28.1164 18.0068C28.355 17.5665 28.4657 17.0682 28.4359 16.5682L14.3995 12.2294Z" fill="white" fill-opacity="0.2"/>
<path d="M4.22144e-05 7.77753V30.0066C-0.00265673 30.4875 0.124107 30.9604 0.367027 31.3755C0.609948 31.7907 0.960108 32.1329 1.38078 32.3663L14.3995 12.2294L4.22144e-05 7.77753Z" fill="#E81F76"/>
<path d="M41.9032 15.4882C42.7245 15.4882 43.4712 15.3613 44.1432 15.1074C44.8152 14.8386 45.3826 14.4728 45.8456 14.0098C46.3234 13.532 46.6893 12.972 46.9432 12.3298C47.212 11.6728 47.3464 10.9634 47.3464 10.2018V10.157C47.3464 9.39542 47.212 8.68609 46.9432 8.02902C46.6893 7.37195 46.3234 6.81195 45.8456 6.34902C45.3826 5.87115 44.8152 5.49782 44.1432 5.22902C43.4712 4.96022 42.7245 4.82582 41.9032 4.82582H38.812V15.4882H41.9032ZM36.0568 2.31702H41.9032C43.1277 2.31702 44.2477 2.51862 45.2632 2.92182C46.2936 3.31009 47.1746 3.85515 47.9064 4.55702C48.653 5.25889 49.228 6.08769 49.6312 7.04342C50.0344 7.98422 50.236 9.00715 50.236 10.1122V10.157C50.236 11.2621 50.0344 12.2925 49.6312 13.2482C49.228 14.204 48.653 15.0328 47.9064 15.7346C47.1746 16.4365 46.2936 16.989 45.2632 17.3922C44.2477 17.7954 43.1277 17.997 41.9032 17.997H36.0568V2.31702Z" fill="#141414"/>
<path d="M61.2618 11.2546C61.217 10.8216 61.12 10.4184 60.9706 10.045C60.8213 9.65675 60.6197 9.32822 60.3658 9.05942C60.112 8.77569 59.8058 8.55169 59.4474 8.38742C59.104 8.22315 58.7082 8.14102 58.2602 8.14102C57.424 8.14102 56.7296 8.43222 56.177 9.01462C55.6394 9.58209 55.3109 10.3288 55.1914 11.2546H61.2618ZM58.5738 18.2658C57.7226 18.2658 56.9237 18.1165 56.177 17.8178C55.4453 17.5192 54.8032 17.101 54.2506 16.5634C53.713 16.0258 53.2874 15.3837 52.9738 14.637C52.6602 13.8754 52.5034 13.0392 52.5034 12.1282V12.0834C52.5034 11.2322 52.6453 10.4333 52.929 9.68662C53.2128 8.93995 53.6085 8.29035 54.1162 7.73782C54.6389 7.17035 55.2512 6.72982 55.953 6.41622C56.6549 6.08769 57.4314 5.92342 58.2826 5.92342C59.2234 5.92342 60.0448 6.09515 60.7466 6.43862C61.4634 6.78209 62.0533 7.24502 62.5162 7.82742C62.9941 8.40982 63.3525 9.08929 63.5914 9.86582C63.8304 10.6274 63.9498 11.4338 63.9498 12.285C63.9498 12.4045 63.9424 12.5314 63.9274 12.6658C63.9274 12.7853 63.92 12.9122 63.905 13.0466H55.2138C55.3632 14.0173 55.744 14.764 56.3562 15.2866C56.9834 15.7944 57.7376 16.0482 58.6186 16.0482C59.2906 16.0482 59.873 15.9288 60.3658 15.6898C60.8586 15.4509 61.344 15.1 61.8218 14.637L63.4122 16.0482C62.8448 16.7202 62.1653 17.2578 61.3738 17.661C60.5973 18.0642 59.664 18.2658 58.5738 18.2658Z" fill="#141414"/>
<path d="M70.6142 18.221C69.763 18.221 68.8969 18.0717 68.0158 17.773C67.1497 17.4744 66.3433 17.0338 65.5966 16.4514L66.8062 14.6146C67.4483 15.0925 68.0979 15.4584 68.755 15.7122C69.427 15.9512 70.0691 16.0706 70.6814 16.0706C71.2638 16.0706 71.7118 15.9586 72.0254 15.7346C72.3539 15.4957 72.5182 15.1821 72.5182 14.7938V14.749C72.5182 14.525 72.4435 14.3309 72.2942 14.1666C72.1598 14.0024 71.9657 13.8605 71.7118 13.741C71.4729 13.6216 71.1891 13.5096 70.8606 13.405C70.547 13.3005 70.2185 13.196 69.875 13.0914C69.4419 12.972 69.0014 12.8301 68.5534 12.6658C68.1203 12.5016 67.7246 12.2925 67.3662 12.0386C67.0227 11.7698 66.739 11.4413 66.515 11.053C66.291 10.6648 66.179 10.1869 66.179 9.61942V9.57462C66.179 9.02209 66.2835 8.52182 66.4926 8.07382C66.7166 7.62582 67.0153 7.24502 67.3886 6.93142C67.7769 6.61782 68.2249 6.37889 68.7326 6.21462C69.2553 6.05035 69.8078 5.96822 70.3902 5.96822C71.1369 5.96822 71.891 6.08769 72.6526 6.32662C73.4142 6.56555 74.1086 6.89409 74.7358 7.31222L73.6606 9.23862C73.0931 8.89515 72.5182 8.62635 71.9358 8.43222C71.3534 8.22315 70.8158 8.11862 70.323 8.11862C69.8003 8.11862 69.3897 8.23062 69.091 8.45462C68.8073 8.67862 68.6654 8.96235 68.6654 9.30582V9.35062C68.6654 9.55969 68.7401 9.74635 68.8894 9.91062C69.0387 10.06 69.2329 10.2018 69.4718 10.3362C69.7257 10.4557 70.0094 10.5752 70.323 10.6946C70.6515 10.7992 70.9875 10.9037 71.331 11.0082C71.7641 11.1426 72.1971 11.2994 72.6302 11.4786C73.0633 11.6578 73.4515 11.8818 73.795 12.1506C74.1534 12.4045 74.4446 12.7181 74.6686 13.0914C74.8926 13.4648 75.0046 13.9202 75.0046 14.4578V14.5026C75.0046 15.1298 74.8926 15.6749 74.6686 16.1378C74.4446 16.6008 74.131 16.989 73.7278 17.3026C73.3395 17.6013 72.8766 17.8328 72.339 17.997C71.8014 18.1464 71.2265 18.221 70.6142 18.221Z" fill="#141414"/>
<path d="M77.8046 6.16982H80.515V17.997H77.8046V6.16982ZM77.6926 1.77942H80.6046V4.35542H77.6926V1.77942Z" fill="#141414"/>
<path d="M89.4332 14.7714C89.8961 14.7714 90.3366 14.6968 90.7548 14.5474C91.1878 14.3832 91.5612 14.1592 91.8748 13.8754C92.1884 13.5768 92.4348 13.2333 92.614 12.845C92.8081 12.4418 92.9052 12.0013 92.9052 11.5234V11.4786C92.9052 10.9858 92.8081 10.5453 92.614 10.157C92.4348 9.75382 92.1884 9.41035 91.8748 9.12662C91.5612 8.82795 91.1878 8.60395 90.7548 8.45462C90.3366 8.29035 89.8961 8.20822 89.4332 8.20822C88.9553 8.20822 88.5148 8.29035 88.1116 8.45462C87.7084 8.60395 87.35 8.82049 87.0364 9.10422C86.7377 9.38795 86.4988 9.73142 86.3196 10.1346C86.1553 10.5229 86.0732 10.9634 86.0732 11.4562V11.501C86.0732 11.9938 86.1628 12.4418 86.342 12.845C86.5212 13.2333 86.7601 13.5768 87.0588 13.8754C87.3574 14.1592 87.7084 14.3832 88.1116 14.5474C88.5297 14.6968 88.9702 14.7714 89.4332 14.7714ZM89.2092 21.6258C87.238 21.6258 85.4758 21.1554 83.9228 20.2146L84.9308 18.1762C85.558 18.5645 86.215 18.8706 86.902 19.0946C87.5889 19.3186 88.3356 19.4306 89.142 19.4306C90.3516 19.4306 91.2774 19.1245 91.9196 18.5122C92.5617 17.9 92.8828 16.9965 92.8828 15.8018V14.8834C92.39 15.5256 91.815 16.0482 91.158 16.4514C90.5009 16.8546 89.687 17.0562 88.7164 17.0562C88.0145 17.0562 87.3425 16.9293 86.7004 16.6754C86.0582 16.4216 85.4833 16.0632 84.9756 15.6002C84.4828 15.1224 84.087 14.54 83.7884 13.853C83.4897 13.1661 83.3404 12.3896 83.3404 11.5234V11.4786C83.3404 10.6125 83.4897 9.83595 83.7884 9.14902C84.087 8.44715 84.4828 7.86475 84.9756 7.40182C85.4833 6.92395 86.0582 6.55809 86.7004 6.30422C87.3574 6.05035 88.0294 5.92342 88.7164 5.92342C89.7169 5.92342 90.5382 6.12502 91.1804 6.52822C91.8374 6.91649 92.3974 7.38689 92.8604 7.93942V6.16982H95.5708V15.5778C95.5708 17.549 95.0705 19.0349 94.07 20.0354C93.5324 20.573 92.8529 20.9688 92.0316 21.2226C91.2252 21.4914 90.2844 21.6258 89.2092 21.6258Z" fill="#141414"/>
<path d="M98.8394 6.16982H101.55V8.00662C101.744 7.72289 101.953 7.46155 102.177 7.22262C102.416 6.96875 102.685 6.74475 102.983 6.55062C103.297 6.35649 103.633 6.20715 103.991 6.10262C104.365 5.98315 104.783 5.92342 105.246 5.92342C106.59 5.92342 107.628 6.33409 108.359 7.15542C109.091 7.97675 109.457 9.08182 109.457 10.4706V17.997H106.747V11.277C106.747 10.3512 106.523 9.64182 106.075 9.14902C105.642 8.64129 105.022 8.38742 104.215 8.38742C103.424 8.38742 102.782 8.64875 102.289 9.17142C101.796 9.67915 101.55 10.396 101.55 11.3218V17.997H98.8394V6.16982Z" fill="#141414"/>
<rect width="27.1999" height="12.8" transform="translate(35.9607 19.757)" fill="#141414"/>
<path d="M38.3607 22.157H39.7664V26.1799L43.5721 22.157H45.2979L41.9721 25.597L45.4464 30.157H43.7436L41.0121 26.557L39.7664 27.837V30.157H38.3607V22.157Z" fill="white"/>
<path d="M49.0077 22.157H50.4134V30.157H49.0077V22.157Z" fill="white"/>
<path d="M56.8063 23.4599H54.2692V22.157H60.7606V23.4599H58.2235V30.157H56.8063V23.4599Z" fill="white"/>
</svg>
