<svg xmlns="http://www.w3.org/2000/svg" viewBox="0 0 48 48"><defs/><g fill="none" fill-rule="evenodd"><path fill="#4689C8" d="M36.5 10L36 31.4a95 95 0 01-12.6 5.9V10.4c-2.5-2.8-17-.2-17-.2L6.5 40c9-2.4 16.9.2 16.9.2 5.2-3 16.8 0 16.8 0l.4-29.5c-1.8-1-4-.7-4-.7" opacity=".1"/><path fill="#2173C4" fill-rule="nonzero" d="M43 13c.4 0 .7.4.7.8v26.4a3.4 3.4 0 01-3.4 3.4H6.4A3.4 3.4 0 013 40.2V13.8a.7.7 0 011.4 0v26.4c0 1.2.9 2 2 2h16.3v-1.5a14.7 14.7 0 00-5.4-1.2c-6 0-10.7 1.4-10.7 1.4a.7.7 0 01-.6-.1.7.7 0 01-.3-.6V10.4c0-.3.2-.6.5-.7a44 44 0 0111-1.4c3.6 0 6.4 1.4 6.5 1.5.2 0 .3.3.3.6v26c2.1-1.2 7-3.9 11.6-5.5V4.6c-5 2-9.8 5-9.9 5a.7.7 0 11-.7-1.2S30.6 5 36 3a.7.7 0 011 .6v27.8c0 .3-.3.6-.5.6-6 2-12.7 6-12.8 6.1a.7.7 0 01-1-.6V10.8a14.7 14.7 0 00-5.5-1.1 45 45 0 00-10.1 1.2v28.5a45.7 45.7 0 0110.1-1.2c3 0 5.4 1 6.2 1.3.9-.3 3.8-1.3 6.7-1.3 4.6 0 8 .7 9.5 1.1V11l-.8-.1a.7.7 0 01.2-1.4l1.5.3c.3 0 .5.4.5.7v29.8a.7.7 0 01-.9.7 35 35 0 00-10-1.3c-2.5 0-5 .8-6 1.1v1.6h16.2c1.1 0 2-1 2-2V13.7c0-.4.3-.7.7-.7zm-16.9 9.2a.7.7 0 01.3-.9l6.2-2.8a.7.7 0 01.5 1.3c-2 .7-6 2.7-6 2.7a.7.7 0 01-1-.3zm.6-7.8a.7.7 0 01-.3-1.2c.2-.1 4.2-2.1 6.2-2.8a.7.7 0 01.5 1.3 58 58 0 00-6 2.7h-.3zm-.6 3.7a.7.7 0 01.3-.9c.2 0 4.2-2 6.2-2.7a.7.7 0 01.5 1.3c-2 .6-6 2.6-6 2.6a.7.7 0 01-1-.3zm0 8.2a.7.7 0 01.3-1 58 58 0 016.2-2.7.7.7 0 11.5 1.3c-2 .6-6 2.7-6 2.7h-.3a.7.7 0 01-.6-.3zm-6.7-10.8a.7.7 0 11-.3 1.3c-3.8-.9-8.4.3-8.5.3a.7.7 0 01-.3-1.3c.2 0 5-1.3 9.1-.3zm0 4a.7.7 0 11-.3 1.4c-3.8-.9-8.4.3-8.5.3a.7.7 0 01-.3-1.3c.2 0 5-1.3 9.1-.3zm6.7 10.9a.7.7 0 01.3-1c.2 0 4.2-2 6.2-2.7a.7.7 0 01.5 1.3c-2 .6-6 2.6-6 2.7a.7.7 0 01-1-.3zm-6.7-6.7a.7.7 0 11-.3 1.3c-3.8-1-8.4.3-8.5.3a.7.7 0 01-.3-1.3c.2 0 5-1.3 9.1-.4zm0 8a.7.7 0 01-.3 1.4c-3.8-.9-8.4.3-8.5.3a.7.7 0 01-.3-1.3c.2 0 5-1.3 9.1-.3zm0-4a.7.7 0 11-.3 1.3c-3.8-.9-8.4.3-8.5.3a.7.7 0 01-.3-1.3c.2 0 5-1.3 9.1-.3z"/></g></svg>