<svg xmlns="http://www.w3.org/2000/svg" viewBox="0 0 48 48"><defs/><g fill="none" fill-rule="evenodd"><path fill="#4689C8" d="M26.6 25.7a3.7 3.7 0 110-7.5 3.7 3.7 0 010 7.5zM38 23.6a38.1 38.1 0 002.4-4.4L29.4 8c-1.7.7-3.1 1.6-4.5 2.5v-.1a15 15 0 00-18.8 6.2l6.5 6.3c-2 3-2.8 5.2-2.8 5.2l10.5 10.6s2.2-.9 5.2-2.9l6.4 6.5A14.9 14.9 0 0038 23.5zM8 36a4.7 4.7 0 00-4.7 4.6v4.7h4.6A4.7 4.7 0 108 36z" opacity=".1"/><path fill="#2173C4" fill-rule="nonzero" d="M30.8 8.3l9.6 9.6a38.5 38.5 0 003.1-12.7 38.3 38.3 0 00-12.7 3.1zm9 11L29.4 9a36.6 36.6 0 00-4 2.2 39.8 39.8 0 00-6.7 5.6 43.1 43.1 0 00-7.6 10.7l-.2.5 9.8 9.9.6-.3A43.5 43.5 0 0032 30a40.3 40.3 0 005.7-7 37 37 0 002-3.6zm-28 3.9l-6-6a.8.8 0 010-1A15.7 15.7 0 0125 9.8a39 39 0 0119.2-6c.5 0 .8.3.8.7a39.3 39.3 0 01-6 19.2A15.7 15.7 0 0132.5 43a.8.8 0 01-1 0l-6-6a44.7 44.7 0 01-3.6 2 24.5 24.5 0 01-1 .5.8.8 0 01-.9-.2L9.4 28.7a.8.8 0 01-.1-.8 10.7 10.7 0 01.5-1 37.5 37.5 0 012-3.7zm11.7-12.5a14.2 14.2 0 00-16.2 5.8l5.4 5.4a44.6 44.6 0 015-6.1 41.8 41.8 0 015.8-5.1zM38 25a42.2 42.2 0 01-5 6 45 45 0 01-6.2 5l5.4 5.3A14.2 14.2 0 0038 25.1zM4.3 44.5h4a4 4 0 10-4-3.9v4zm-1.5-3.9A5.4 5.4 0 118.1 46H3.5a.8.8 0 01-.8-.7v-4.7zM26.8 19a3 3 0 100 6 3 3 0 000-6zm0-1.5a4.5 4.5 0 110 9 4.5 4.5 0 010-9z"/></g></svg>