<svg xmlns="http://www.w3.org/2000/svg" viewBox="0 0 48 48"><defs/><path fill="#2173C4" d="M13.2 30.1a5.8 5.8 0 007.4 3.3c.9-.3 1.7-.9 2.2-1.6l-1.1-1.1c-.4.5-1 1-1.7 1.3-2.2.8-4.6-.2-5.4-2.4-.8-2.2.2-4.6 2.4-5.4l1-.2-.4-1.5-1.1.3a5.7 5.7 0 00-3.3 7.3zm21 5.5l-.5 1.1-3.7-1.2-1.1-.3c-.2 0-.3.1-.4.3-.8 1.1-1.9 2.1-3 2.9-.3.2-.4.5-.3.8l1.3 4.4-3.3 1.3-2-4.1a.7.7 0 00-.8-.4c-1.4.2-2.8.2-4.2-.1-.3-.1-.6.1-.8.4l-2.2 4-3.3-1.4 1.5-4.3c.1-.3 0-.7-.3-.8-1.1-1-2.1-2-2.9-3.2-.2-.3-.5-.4-.8-.3L3 36l-1.3-3.3 4.1-2c.3-.1.5-.5.4-.8-.2-1.4-.2-2.8.1-4.2.1-.4 0-.7-.3-.8l-4-2.2 1.4-3.3 4.3 1.5c.3.1.7 0 .8-.3.8-1.1 1.9-2.1 3-2.9.3-.2.4-.5.3-.8l-1.3-4.4 3.3-1.3 2 4.1c.1.3.5.5.8.4l.6-.1.3-1.5H17L15 10c-.2-.4-.6-.5-.9-.4l-4.6 1.8c-.4.1-.6.5-.5.9l1.3 4.6c-1 .7-1.9 1.5-2.6 2.5l-4.5-1.6c-.4-.1-.8 0-.9.4l-2 4.5c-.2.4 0 .8.3 1L4.8 26c-.2 1.2-.2 2.4-.1 3.6L.4 31.7c-.4.2-.5.6-.4.9l1.8 4.6c.1.4.5.6.9.4l4.6-1.3c.7 1 1.5 1.9 2.5 2.6l-1.6 4.5c-.1.4 0 .8.4.9l4.5 2c.4.2.8 0 1-.3l2.3-4.2c1.2.2 2.4.2 3.6.1l2.1 4.3c.2.4.6.5.9.4l4.6-1.8c.4-.1.6-.5.4-.9l-1.3-4.6c1-.7 1.9-1.5 2.6-2.5l4.5 1.6c.4.1.8 0 .9-.4l1.2-2.8-1.7.4z"/><path fill="#2173C4" d="M47.6 19.6l-4 .3a9.3 9.3 0 01-1.2 3.1l2.6 3-2.6 2.6-3-2.6c-1 .6-2 1-3.1 1.3l-.3 4h-3.7l-.3-4a9.3 9.3 0 01-3.1-1.3l-3 2.6-2.6-2.6 2.6-3c-.6-.9-1-2-1.3-3l-4-.4V16l4-.3c.2-1 .6-2.2 1.2-3l-2.6-3 2.6-2.7 3 2.6c.9-.6 2-1 3-1.3l.4-3.9h3.7l.3 4c1 .1 2 .6 3 1.2l3-2.6L45 9.5l-2.6 3c.6 1 1 2 1.3 3.1l3.9.3v3.7zM34 14.1c-2 0-3.7 1.7-3.7 3.7s1.7 3.7 3.7 3.7 3.7-1.7 3.7-3.7-1.7-3.7-3.7-3.7z" opacity=".1"/><path fill="#2173C4" d="M34.1 14.8a2.9 2.9 0 100 5.8 2.9 2.9 0 000-5.8zm0-1.5c2.5 0 4.4 2 4.4 4.4 0 2.5-2 4.4-4.4 4.4-2.5 0-4.4-2-4.4-4.4a4.3 4.3 0 014.4-4.4zm13.6 1.9c.4 0 .7.4.7.7v3.7c0 .4-.3.7-.7.7l-3.4.3c-.2.8-.5 1.6-1 2.3l2.2 2.6c.3.3.2.7 0 1l-2.6 2.6c-.3.3-.7.3-1 0L39.2 27l-2.3 1-.3 3.4c0 .4-.4.7-.7.7h-3.7a.7.7 0 01-.7-.7l-.3-3.4c-.8-.2-1.6-.5-2.3-1l-2.6 2.2c-.3.3-.7.2-1 0l-2.6-2.6c-.3-.3-.3-.7 0-1l2.2-2.6-1-2.3-3.4-.3c-.4 0-.7-.4-.7-.7V16c0-.4.3-.7.7-.7l3.4-.3c.2-.8.5-1.6 1-2.3L22.6 10c-.3-.3-.2-.7 0-1l2.6-2.6c.3-.3.7-.3 1 0l2.6 2.2 2.3-1 .3-3.4c0-.4.4-.7.7-.7h3.7c.4 0 .7.3.7.7l.3 3.4c.8.2 1.6.5 2.3 1l2.6-2.2c.3-.3.7-.2 1 0L45.5 9c.3.3.3.7 0 1l-2.2 2.6 1 2.3 3.4.3zm-.9 1.4l-3.3-.3c-.3 0-.6-.3-.7-.6a7 7 0 00-1.2-2.8c-.2-.3-.2-.6.1-.9l2.1-2.5-1.6-1.6-2.4 2.1c-.2.2-.6.2-.9.1-.9-.6-1.8-.9-2.8-1.2-.3-.1-.6-.3-.6-.7L35.2 5h-2.3l-.3 3.3c0 .3-.3.6-.6.7a7 7 0 00-2.8 1.2c-.3.2-.6.1-.9-.1L25.8 8l-1.6 1.6 2.1 2.5c.2.2.2.6.1.9-.6.9-.9 1.8-1.2 2.8-.1.3-.3.6-.7.6l-3.3.3V19l3.3.3c.3 0 .6.3.7.6.2 1 .6 2 1.2 2.8.2.3.1.6-.1.9L24.2 26l1.6 1.6 2.5-2.1c.2-.2.6-.2.9-.1.9.6 1.8.9 2.8 1.2.3.1.6.3.6.7l.3 3.3h2.3l.3-3.3c0-.3.3-.6.6-.7 1-.2 2-.6 2.8-1.2.3-.2.6-.1.9.1l2.5 2.1 1.6-1.6-2.1-2.5a1 1 0 01-.1-.9c.6-.9 1-1.8 1.2-2.8.1-.3.3-.6.7-.6l3.3-.3v-2.3z"/></svg>