<svg width="130" height="66" viewBox="0 0 130 66" fill="none" xmlns="http://www.w3.org/2000/svg">
<mask id="mask0_119_614" style="mask-type:luminance" maskUnits="userSpaceOnUse" x="4" y="1" width="19" height="28">
<path fill-rule="evenodd" clip-rule="evenodd" d="M4.04688 1.64221H22.7867V28.5347H4.04688V1.64221Z" fill="white"/>
</mask>
<g mask="url(#mask0_119_614)">
<path fill-rule="evenodd" clip-rule="evenodd" d="M16.373 1.64221H22.7867L12.7029 11.8081L16.373 1.64221Z" fill="#56B146"/>
<path fill-rule="evenodd" clip-rule="evenodd" d="M9.26589 28.5347C9.26589 28.5347 4.08288 19.0791 4 19.0877L9.15096 19.115L9.26589 28.5347Z" fill="#C3233D"/>
</g>
<path fill-rule="evenodd" clip-rule="evenodd" d="M9.15088 19.115L19.7452 19.1135L9.26581 28.5347L9.15088 19.115Z" fill="#D5246A"/>
<path fill-rule="evenodd" clip-rule="evenodd" d="M19.3426 36.8173L19.7453 19.1135L9.26587 28.5347L19.3426 36.8173Z" fill="#E77A2B"/>
<path fill-rule="evenodd" clip-rule="evenodd" d="M32.0041 28.0071L19.3386 36.8173L19.7452 19.1135L32.0041 28.0071Z" fill="#FAC922"/>
<path fill-rule="evenodd" clip-rule="evenodd" d="M39.8722 16.345L19.7454 19.1134L32.0043 28.0071L39.8722 16.345Z" fill="#56B146"/>
<path fill-rule="evenodd" clip-rule="evenodd" d="M35.2194 1.64221L27.0864 11.6012L39.8723 16.345L35.2194 1.64221Z" fill="#C3233D"/>
<path fill-rule="evenodd" clip-rule="evenodd" d="M54.3086 1.64221H35.2192L39.8721 16.345L54.3086 1.64221Z" fill="#487FB5"/>
<path fill-rule="evenodd" clip-rule="evenodd" d="M19.7454 19.1135L39.8722 16.3451L27.0863 11.6013L19.7454 19.1135Z" fill="#D5246A"/>
<path fill-rule="evenodd" clip-rule="evenodd" d="M57.9272 16.345H39.8723L54.3087 1.64221L57.9272 16.345Z" fill="#23477B"/>
<path fill-rule="evenodd" clip-rule="evenodd" d="M48.873 32.7181L32.0042 28.0071L39.8721 16.345L48.873 32.7181Z" fill="#419845"/>
<path fill-rule="evenodd" clip-rule="evenodd" d="M57.927 16.345L48.8729 32.7181L39.8721 16.345H57.927Z" fill="#014C3D"/>
<path fill-rule="evenodd" clip-rule="evenodd" d="M64.2634 28.0071L48.873 32.7181L57.9271 16.345L64.2634 28.0071Z" fill="#419845"/>
<path fill-rule="evenodd" clip-rule="evenodd" d="M61.4604 37.5626L48.873 32.7181L64.2634 28.0071L61.4604 37.5626Z" fill="#56B146"/>
<path fill-rule="evenodd" clip-rule="evenodd" d="M54.3086 1.64221L68.2079 13.0623L57.9271 16.345L54.3086 1.64221Z" fill="#487FB5"/>
<path fill-rule="evenodd" clip-rule="evenodd" d="M57.927 16.345L68.2078 13.0623L64.2633 28.0071L57.927 16.345Z" fill="#008B47"/>
<path fill-rule="evenodd" clip-rule="evenodd" d="M64.2635 28.0071L78.4857 30.6935L61.4604 37.5626L64.2635 28.0071Z" fill="#014C3D"/>
<path fill-rule="evenodd" clip-rule="evenodd" d="M78.4857 30.6935L78.6577 44.1757L61.4604 37.5626L78.4857 30.6935Z" fill="#419845"/>
<path fill-rule="evenodd" clip-rule="evenodd" d="M61.4604 37.5626L78.6577 44.1757L65.6646 46.3369L61.4604 37.5626Z" fill="#23477B"/>
<path fill-rule="evenodd" clip-rule="evenodd" d="M78.6577 44.1757L71.9836 58.8574L65.6646 46.3368L78.6577 44.1757Z" fill="#56B146"/>
<path fill-rule="evenodd" clip-rule="evenodd" d="M65.6644 46.3369L71.9835 58.8574L62.354 53.5127L65.6644 46.3369Z" fill="#487FB5"/>
<path fill-rule="evenodd" clip-rule="evenodd" d="M71.9835 58.8575L62.4588 65.0756L62.354 53.5127L71.9835 58.8575Z" fill="#23477B"/>
<path fill-rule="evenodd" clip-rule="evenodd" d="M62.354 53.5127L62.4587 65.0756L57.676 57.565L62.354 53.5127Z" fill="#487FB5"/>
<path fill-rule="evenodd" clip-rule="evenodd" d="M62.4588 65.0756H49.7417L57.6761 57.5649L62.4588 65.0756Z" fill="#23477B"/>
<path fill-rule="evenodd" clip-rule="evenodd" d="M57.6761 57.5649L49.7417 65.0756L51.1428 57.5649H57.6761Z" fill="#C3233D"/>
<path fill-rule="evenodd" clip-rule="evenodd" d="M51.1428 57.5649L49.7417 65.0756L43.6267 57.5649H51.1428Z" fill="#D5246A"/>
<path fill-rule="evenodd" clip-rule="evenodd" d="M51.1428 57.5649H43.6267L48.0857 52.3677L51.1428 57.5649Z" fill="#C3233D"/>
<path fill-rule="evenodd" clip-rule="evenodd" d="M43.6267 57.5649V47.7355L48.0857 52.3677L43.6267 57.5649Z" fill="#E77A2B"/>
<path fill-rule="evenodd" clip-rule="evenodd" d="M68.208 13.0623L78.4857 30.6935L64.2634 28.0071L68.208 13.0623Z" fill="#56B146"/>
<path fill-rule="evenodd" clip-rule="evenodd" d="M51.1429 47.9907L50.1233 42.9565L57.6394 46.3415L51.1429 47.9907Z" fill="#419845"/>
<path fill-rule="evenodd" clip-rule="evenodd" d="M43.6267 47.7355L51.1428 47.9907L50.1233 42.9565L43.6267 47.7355Z" fill="#56B146"/>
<path fill-rule="evenodd" clip-rule="evenodd" d="M48.0857 52.3677L51.1428 47.9907L43.6267 47.7355L48.0857 52.3677Z" fill="#FAC922"/>
<path fill-rule="evenodd" clip-rule="evenodd" d="M21.5154 8.18742L27.0862 11.6013L26.8149 4.85474L21.5154 8.18742Z" fill="#419845"/>
<path fill-rule="evenodd" clip-rule="evenodd" d="M21.5154 8.18738L26.8149 4.8547L22.7867 1.64221L21.5154 8.18738Z" fill="#56B146"/>
<path fill-rule="evenodd" clip-rule="evenodd" d="M12.7029 11.8081L22.7867 1.64221L21.5153 8.18738L12.7029 11.8081Z" fill="#008B47"/>
<path fill-rule="evenodd" clip-rule="evenodd" d="M27.0861 11.6012L21.5153 8.18738L18.9226 11.7519L27.0861 11.6012Z" fill="#014C3D"/>
<path fill-rule="evenodd" clip-rule="evenodd" d="M12.7029 11.8081L21.5153 8.18738L18.9227 11.7519L12.7029 11.8081Z" fill="#419845"/>
<path fill-rule="evenodd" clip-rule="evenodd" d="M9.15088 19.115L18.9227 11.7519L19.7452 19.1135L9.15088 19.115Z" fill="#E77A2B"/>
<path fill-rule="evenodd" clip-rule="evenodd" d="M18.9226 11.7519L19.7451 19.1135L27.0861 11.6013L18.9226 11.7519Z" fill="#C3233D"/>
<path fill-rule="evenodd" clip-rule="evenodd" d="M9.15088 19.115L12.7029 11.8081L18.9227 11.7519L9.15088 19.115Z" fill="#FAC922"/>
<path fill-rule="evenodd" clip-rule="evenodd" d="M32.9753 36.8L29.9189 41.9973H38.7228L32.9753 36.8Z" fill="#419845"/>
<path fill-rule="evenodd" clip-rule="evenodd" d="M26.3521 36.8172L29.9189 41.9973L32.9753 36.8L26.3521 36.8172Z" fill="#56B146"/>
<path fill-rule="evenodd" clip-rule="evenodd" d="M32.0042 28.0071L32.9752 36.8001L48.873 32.7181L32.0042 28.0071Z" fill="#014C3D"/>
<path fill-rule="evenodd" clip-rule="evenodd" d="M38.7229 41.9974L48.8731 32.7181L32.9753 36.8001L38.7229 41.9974Z" fill="#008B47"/>
</svg>
