<svg xmlns="http://www.w3.org/2000/svg">
  <defs>
    <style>.icon { display: none; }.icon:target { display: inline; }</style>
  </defs>
  <svg viewBox="0 0 46.2 44.900005">
    <g id="src-1" class="icon">
      <defs />
      <g fill="none" fill-rule="evenodd">
        <path fill="#4689C8" d="M2.8 11.2h27.5V5.5H2.8z" opacity=".1" />
        <path fill="#2173C4" d="M37.8 9.3a.8.8 0 100-1.5.8.8 0 000 1.5zm-3.8 0a.8.8 0 100-1.5.8.8 0 000 1.5zm7.7 0a.8.8 0 100-1.5.8.8 0 000 1.5zm-10.8 1.3h13.9V6.4h-14v4.2zm13.9 19.7v13.2H3.4V12.1h41.3v18.1zM3.4 10.6h26V6.4h-26v4.2zM46.1 34V5.7a.7.7 0 00-.7-.7H2.7a.7.7 0 00-.7.7v38.5c0 .4.3.7.7.7h42.8a.7.7 0 00.7-.7V34zM28.4 20.8l-1.3-.7-6.8 13.5 1.3.7 6.8-13.5zm2.1 13l5.3-5.3c.3-.3.3-.8 0-1l-5.3-5.3-1 1 4.7 4.7-4.7 4.8 1 1zm-12.3 0l1-1.1-4.7-4.8 4.8-4.7-1.1-1-5.3 5.2c-.3.3-.3.8 0 1l5.3 5.3z" />
      </g>
    </g>
  </svg>
  <svg viewBox="0 0 43.257824 41.082542">
    <g id="src-2" class="icon">
      <defs />
      <g fill="none" fill-rule="evenodd">
        <path fill="#4689C8" d="M9.5 7.8l27.7.2 2.2 2-.1 2.1-9.3 9.3-1.2 2.8 3.6-.2 7-6.5v13l-2 2.1H14.5l-7.7 6.8-.1-29.7s.7-2 2.8-2" opacity=".1" />
        <path fill="#2173C4" fill-rule="nonzero" d="M31.6 16.3a.8.8 0 100-1.5h-17a.8.8 0 100 1.5h17zm-17 7.8a.8.8 0 100 1.6h9.2a.8.8 0 100-1.6h-9.3z" />
        <g transform="translate(6 6.1)">
          <mask id="a" fill="#fff">
            <path d="M0 .9h37.2V35H0z" />
          </mask>
          <path fill="#2173C4" fill-rule="nonzero" d="M35.3 8L34 9l-2-2L33.3 6c.2-.3.6-.5 1-.5a1.4 1.4 0 011 2.5zM26 17.2l-2.5.5.5-2.5 7-7 2 2-7 7zm6.6 7c0 .8-.7 1.5-1.6 1.5H8.5L8 26l-6.5 6.5V4c0-.8.7-1.6 1.6-1.6h28c.8 0 1.5.8 1.5 1.6v.5l-.4.4-8.5 8.4H8.5a.8.8 0 100 1.6h14l-.8 3.7a.8.8 0 001 .9l3.8-.8c.2 0 .3 0 .4-.2l5.7-5.6v11.3zM34.3 4H34a3.1 3.1 0 00-3-3.1H3A3.1 3.1 0 000 4v30.3a.8.8 0 001.3.5L9 27.3H31a3.1 3.1 0 003.1-3.1V11.3l2.3-2.2A3 3 0 0034.3 4z" mask="url(#a)" />
        </g>
      </g>
    </g>
  </svg>
  <svg viewBox="0 0 43.7 43.600002">
    <g id="src-3" class="icon">
      <defs />
      <g fill="none" fill-rule="evenodd">
        <path fill="#4689C8" d="M36.5 10L36 31.4a95 95 0 01-12.6 5.9V10.4c-2.5-2.8-17-.2-17-.2L6.5 40c9-2.4 16.9.2 16.9.2 5.2-3 16.8 0 16.8 0l.4-29.5c-1.8-1-4-.7-4-.7" opacity=".1" />
        <path fill="#2173C4" fill-rule="nonzero" d="M43 13c.4 0 .7.4.7.8v26.4a3.4 3.4 0 01-3.4 3.4H6.4A3.4 3.4 0 013 40.2V13.8a.7.7 0 011.4 0v26.4c0 1.2.9 2 2 2h16.3v-1.5a14.7 14.7 0 00-5.4-1.2c-6 0-10.7 1.4-10.7 1.4a.7.7 0 01-.6-.1.7.7 0 01-.3-.6V10.4c0-.3.2-.6.5-.7a44 44 0 0111-1.4c3.6 0 6.4 1.4 6.5 1.5.2 0 .3.3.3.6v26c2.1-1.2 7-3.9 11.6-5.5V4.6c-5 2-9.8 5-9.9 5a.7.7 0 11-.7-1.2S30.6 5 36 3a.7.7 0 011 .6v27.8c0 .3-.3.6-.5.6-6 2-12.7 6-12.8 6.1a.7.7 0 01-1-.6V10.8a14.7 14.7 0 00-5.5-1.1 45 45 0 00-10.1 1.2v28.5a45.7 45.7 0 0110.1-1.2c3 0 5.4 1 6.2 1.3.9-.3 3.8-1.3 6.7-1.3 4.6 0 8 .7 9.5 1.1V11l-.8-.1a.7.7 0 01.2-1.4l1.5.3c.3 0 .5.4.5.7v29.8a.7.7 0 01-.9.7 35 35 0 00-10-1.3c-2.5 0-5 .8-6 1.1v1.6h16.2c1.1 0 2-1 2-2V13.7c0-.4.3-.7.7-.7zm-16.9 9.2a.7.7 0 01.3-.9l6.2-2.8a.7.7 0 01.5 1.3c-2 .7-6 2.7-6 2.7a.7.7 0 01-1-.3zm.6-7.8a.7.7 0 01-.3-1.2c.2-.1 4.2-2.1 6.2-2.8a.7.7 0 01.5 1.3 58 58 0 00-6 2.7h-.3zm-.6 3.7a.7.7 0 01.3-.9c.2 0 4.2-2 6.2-2.7a.7.7 0 01.5 1.3c-2 .6-6 2.6-6 2.6a.7.7 0 01-1-.3zm0 8.2a.7.7 0 01.3-1 58 58 0 016.2-2.7.7.7 0 11.5 1.3c-2 .6-6 2.7-6 2.7h-.3a.7.7 0 01-.6-.3zm-6.7-10.8a.7.7 0 11-.3 1.3c-3.8-.9-8.4.3-8.5.3a.7.7 0 01-.3-1.3c.2 0 5-1.3 9.1-.3zm0 4a.7.7 0 11-.3 1.4c-3.8-.9-8.4.3-8.5.3a.7.7 0 01-.3-1.3c.2 0 5-1.3 9.1-.3zm6.7 10.9a.7.7 0 01.3-1c.2 0 4.2-2 6.2-2.7a.7.7 0 01.5 1.3c-2 .6-6 2.6-6 2.7a.7.7 0 01-1-.3zm-6.7-6.7a.7.7 0 11-.3 1.3c-3.8-1-8.4.3-8.5.3a.7.7 0 01-.3-1.3c.2 0 5-1.3 9.1-.4zm0 8a.7.7 0 01-.3 1.4c-3.8-.9-8.4.3-8.5.3a.7.7 0 01-.3-1.3c.2 0 5-1.3 9.1-.3zm0-4a.7.7 0 11-.3 1.3c-3.8-.9-8.4.3-8.5.3a.7.7 0 01-.3-1.3c.2 0 5-1.3 9.1-.3z" />
      </g>
    </g>
  </svg>
  <svg viewBox="0 0 45 46.000565">
    <g id="src-4" class="icon">
      <defs />
      <g fill="none" fill-rule="evenodd">
        <path fill="#4689C8" d="M26.6 25.7a3.7 3.7 0 110-7.5 3.7 3.7 0 010 7.5zM38 23.6a38.1 38.1 0 002.4-4.4L29.4 8c-1.7.7-3.1 1.6-4.5 2.5v-.1a15 15 0 00-18.8 6.2l6.5 6.3c-2 3-2.8 5.2-2.8 5.2l10.5 10.6s2.2-.9 5.2-2.9l6.4 6.5A14.9 14.9 0 0038 23.5zM8 36a4.7 4.7 0 00-4.7 4.6v4.7h4.6A4.7 4.7 0 108 36z" opacity=".1" />
        <path fill="#2173C4" fill-rule="nonzero" d="M30.8 8.3l9.6 9.6a38.5 38.5 0 003.1-12.7 38.3 38.3 0 00-12.7 3.1zm9 11L29.4 9a36.6 36.6 0 00-4 2.2 39.8 39.8 0 00-6.7 5.6 43.1 43.1 0 00-7.6 10.7l-.2.5 9.8 9.9.6-.3A43.5 43.5 0 0032 30a40.3 40.3 0 005.7-7 37 37 0 002-3.6zm-28 3.9l-6-6a.8.8 0 010-1A15.7 15.7 0 0125 9.8a39 39 0 0119.2-6c.5 0 .8.3.8.7a39.3 39.3 0 01-6 19.2A15.7 15.7 0 0132.5 43a.8.8 0 01-1 0l-6-6a44.7 44.7 0 01-3.6 2 24.5 24.5 0 01-1 .5.8.8 0 01-.9-.2L9.4 28.7a.8.8 0 01-.1-.8 10.7 10.7 0 01.5-1 37.5 37.5 0 012-3.7zm11.7-12.5a14.2 14.2 0 00-16.2 5.8l5.4 5.4a44.6 44.6 0 015-6.1 41.8 41.8 0 015.8-5.1zM38 25a42.2 42.2 0 01-5 6 45 45 0 01-6.2 5l5.4 5.3A14.2 14.2 0 0038 25.1zM4.3 44.5h4a4 4 0 10-4-3.9v4zm-1.5-3.9A5.4 5.4 0 118.1 46H3.5a.8.8 0 01-.8-.7v-4.7zM26.8 19a3 3 0 100 6 3 3 0 000-6zm0-1.5a4.5 4.5 0 110 9 4.5 4.5 0 010-9z" />
      </g>
    </g>
  </svg>
  <svg viewBox="0 0 48.43599 46.635986">
    <g id="src-5" class="icon">
      <defs />
      <path fill="#2173C4" d="M13.2 30.1a5.8 5.8 0 007.4 3.3c.9-.3 1.7-.9 2.2-1.6l-1.1-1.1c-.4.5-1 1-1.7 1.3-2.2.8-4.6-.2-5.4-2.4-.8-2.2.2-4.6 2.4-5.4l1-.2-.4-1.5-1.1.3a5.7 5.7 0 00-3.3 7.3zm21 5.5l-.5 1.1-3.7-1.2-1.1-.3c-.2 0-.3.1-.4.3-.8 1.1-1.9 2.1-3 2.9-.3.2-.4.5-.3.8l1.3 4.4-3.3 1.3-2-4.1a.7.7 0 00-.8-.4c-1.4.2-2.8.2-4.2-.1-.3-.1-.6.1-.8.4l-2.2 4-3.3-1.4 1.5-4.3c.1-.3 0-.7-.3-.8-1.1-1-2.1-2-2.9-3.2-.2-.3-.5-.4-.8-.3L3 36l-1.3-3.3 4.1-2c.3-.1.5-.5.4-.8-.2-1.4-.2-2.8.1-4.2.1-.4 0-.7-.3-.8l-4-2.2 1.4-3.3 4.3 1.5c.3.1.7 0 .8-.3.8-1.1 1.9-2.1 3-2.9.3-.2.4-.5.3-.8l-1.3-4.4 3.3-1.3 2 4.1c.1.3.5.5.8.4l.6-.1.3-1.5H17L15 10c-.2-.4-.6-.5-.9-.4l-4.6 1.8c-.4.1-.6.5-.5.9l1.3 4.6c-1 .7-1.9 1.5-2.6 2.5l-4.5-1.6c-.4-.1-.8 0-.9.4l-2 4.5c-.2.4 0 .8.3 1L4.8 26c-.2 1.2-.2 2.4-.1 3.6L.4 31.7c-.4.2-.5.6-.4.9l1.8 4.6c.1.4.5.6.9.4l4.6-1.3c.7 1 1.5 1.9 2.5 2.6l-1.6 4.5c-.1.4 0 .8.4.9l4.5 2c.4.2.8 0 1-.3l2.3-4.2c1.2.2 2.4.2 3.6.1l2.1 4.3c.2.4.6.5.9.4l4.6-1.8c.4-.1.6-.5.4-.9l-1.3-4.6c1-.7 1.9-1.5 2.6-2.5l4.5 1.6c.4.1.8 0 .9-.4l1.2-2.8-1.7.4z" />
      <path fill="#2173C4" d="M47.6 19.6l-4 .3a9.3 9.3 0 01-1.2 3.1l2.6 3-2.6 2.6-3-2.6c-1 .6-2 1-3.1 1.3l-.3 4h-3.7l-.3-4a9.3 9.3 0 01-3.1-1.3l-3 2.6-2.6-2.6 2.6-3c-.6-.9-1-2-1.3-3l-4-.4V16l4-.3c.2-1 .6-2.2 1.2-3l-2.6-3 2.6-2.7 3 2.6c.9-.6 2-1 3-1.3l.4-3.9h3.7l.3 4c1 .1 2 .6 3 1.2l3-2.6L45 9.5l-2.6 3c.6 1 1 2 1.3 3.1l3.9.3v3.7zM34 14.1c-2 0-3.7 1.7-3.7 3.7s1.7 3.7 3.7 3.7 3.7-1.7 3.7-3.7-1.7-3.7-3.7-3.7z" opacity=".1" />
      <path fill="#2173C4" d="M34.1 14.8a2.9 2.9 0 100 5.8 2.9 2.9 0 000-5.8zm0-1.5c2.5 0 4.4 2 4.4 4.4 0 2.5-2 4.4-4.4 4.4-2.5 0-4.4-2-4.4-4.4a4.3 4.3 0 014.4-4.4zm13.6 1.9c.4 0 .7.4.7.7v3.7c0 .4-.3.7-.7.7l-3.4.3c-.2.8-.5 1.6-1 2.3l2.2 2.6c.3.3.2.7 0 1l-2.6 2.6c-.3.3-.7.3-1 0L39.2 27l-2.3 1-.3 3.4c0 .4-.4.7-.7.7h-3.7a.7.7 0 01-.7-.7l-.3-3.4c-.8-.2-1.6-.5-2.3-1l-2.6 2.2c-.3.3-.7.2-1 0l-2.6-2.6c-.3-.3-.3-.7 0-1l2.2-2.6-1-2.3-3.4-.3c-.4 0-.7-.4-.7-.7V16c0-.4.3-.7.7-.7l3.4-.3c.2-.8.5-1.6 1-2.3L22.6 10c-.3-.3-.2-.7 0-1l2.6-2.6c.3-.3.7-.3 1 0l2.6 2.2 2.3-1 .3-3.4c0-.4.4-.7.7-.7h3.7c.4 0 .7.3.7.7l.3 3.4c.8.2 1.6.5 2.3 1l2.6-2.2c.3-.3.7-.2 1 0L45.5 9c.3.3.3.7 0 1l-2.2 2.6 1 2.3 3.4.3zm-.9 1.4l-3.3-.3c-.3 0-.6-.3-.7-.6a7 7 0 00-1.2-2.8c-.2-.3-.2-.6.1-.9l2.1-2.5-1.6-1.6-2.4 2.1c-.2.2-.6.2-.9.1-.9-.6-1.8-.9-2.8-1.2-.3-.1-.6-.3-.6-.7L35.2 5h-2.3l-.3 3.3c0 .3-.3.6-.6.7a7 7 0 00-2.8 1.2c-.3.2-.6.1-.9-.1L25.8 8l-1.6 1.6 2.1 2.5c.2.2.2.6.1.9-.6.9-.9 1.8-1.2 2.8-.1.3-.3.6-.7.6l-3.3.3V19l3.3.3c.3 0 .6.3.7.6.2 1 .6 2 1.2 2.8.2.3.1.6-.1.9L24.2 26l1.6 1.6 2.5-2.1c.2-.2.6-.2.9-.1.9.6 1.8.9 2.8 1.2.3.1.6.3.6.7l.3 3.3h2.3l.3-3.3c0-.3.3-.6.6-.7 1-.2 2-.6 2.8-1.2.3-.2.6-.1.9.1l2.5 2.1 1.6-1.6-2.1-2.5a1 1 0 01-.1-.9c.6-.9 1-1.8 1.2-2.8.1-.3.3-.6.7-.6l3.3-.3v-2.3z" />
    </g>
  </svg>
  <svg viewBox="0 0 40.732258 44.5">
    <g id="src-6" class="icon">
      <defs />
      <g fill="none" fill-rule="evenodd">
        <path fill="#4689C8" fill-opacity=".1" d="M18 35.6h-4l-3 3v5h22v-4l-1-3-4-1h-2l-2 1h-4z" />
        <circle cx="35.5" cy="7.1" r="4.5" fill="#4689C8" opacity=".1" />
        <path fill="#2173C4" fill-rule="nonzero" d="M35.4 8c.5 0 .8-.3.8-.7V5a.8.8 0 10-1.5 0v2.3c0 .4.3.7.7.7zm0 3a3.8 3.8 0 01-3.7-3.7 3.8 3.8 0 017.5 0c0 2-1.7 3.7-3.8 3.7zm0-9a5.3 5.3 0 00-4.2 8.4l-1.1 1.1a.8.8 0 00.5 1.3c.2 0 .4 0 .6-.2l1-1.1A5.3 5.3 0 1035.5 2zm0 6.8a.8.8 0 00-.7.7.8.8 0 001.5 0 .8.8 0 00-.7-.7zM22.2 39.4a.8.8 0 00-.8.7.8.8 0 001.6 0 .8.8 0 00-.8-.7zm10.6 1v2c0 .4-.4.7-.8.7H12.3a.8.8 0 01-.8-.7v-2.2c0-2.2 1.7-3.8 3.8-3.8H18l1.3 1.2.2.2a.8.8 0 00.6 0l2-.6 2 .6h.5a.7.7 0 00.2-.1l1.4-1.3h2.7a3.8 3.8 0 013.8 3.7v.2zm-7.6-6v.9l-1 1-1.8-.6a.8.8 0 00-.2 0h-.2l-1.9.5-1-.9v-1a9 9 0 006.1 0zm-10.6-8.6v-2.7l1.7-1.6c1 .4 3.3 1.3 5.9 1.3 2.6 0 4.9-.9 5.9-1.3l1.6 1.6v2.7a7.5 7.5 0 01-15 0zm0-6.7a6 6 0 016-6H26v2.2c0 .4.3.7.7.7a3 3 0 013 3v2l-1-1h-.1l-.1-.1H28 27.8a13.6 13.6 0 01-5.7 1.4c-3 0-5.7-1.4-5.7-1.4h-.7l-.2.1-1 1v-2zM29 34.9h-2.3v-1.3a9 9 0 004.5-7.8v-6.7a4.5 4.5 0 00-3.7-4.5v-2.3a.8.8 0 00-.8-.8h-6a7.5 7.5 0 00-7.6 7.6v6.7a9 9 0 004.5 7.8V35h-2.2A5.3 5.3 0 0010 40v2.2a2.3 2.3 0 002.3 2.3h19.6a2.3 2.3 0 002.3-2.2v-2.2c0-3-2.4-5.3-5.3-5.3z" />
      </g>
    </g>
  </svg>
</svg>