<svg xmlns="http://www.w3.org/2000/svg" viewBox="0 0 48 48"><defs/><g fill="none" fill-rule="evenodd"><path fill="#4689C8" fill-opacity=".1" d="M18 35.6h-4l-3 3v5h22v-4l-1-3-4-1h-2l-2 1h-4z"/><circle cx="35.5" cy="7.1" r="4.5" fill="#4689C8" opacity=".1"/><path fill="#2173C4" fill-rule="nonzero" d="M35.4 8c.5 0 .8-.3.8-.7V5a.8.8 0 10-1.5 0v2.3c0 .4.3.7.7.7zm0 3a3.8 3.8 0 01-3.7-3.7 3.8 3.8 0 017.5 0c0 2-1.7 3.7-3.8 3.7zm0-9a5.3 5.3 0 00-4.2 8.4l-1.1 1.1a.8.8 0 00.5 1.3c.2 0 .4 0 .6-.2l1-1.1A5.3 5.3 0 1035.5 2zm0 6.8a.8.8 0 00-.7.7.8.8 0 001.5 0 .8.8 0 00-.7-.7zM22.2 39.4a.8.8 0 00-.8.7.8.8 0 001.6 0 .8.8 0 00-.8-.7zm10.6 1v2c0 .4-.4.7-.8.7H12.3a.8.8 0 01-.8-.7v-2.2c0-2.2 1.7-3.8 3.8-3.8H18l1.3 1.2.2.2a.8.8 0 00.6 0l2-.6 2 .6h.5a.7.7 0 00.2-.1l1.4-1.3h2.7a3.8 3.8 0 013.8 3.7v.2zm-7.6-6v.9l-1 1-1.8-.6a.8.8 0 00-.2 0h-.2l-1.9.5-1-.9v-1a9 9 0 006.1 0zm-10.6-8.6v-2.7l1.7-1.6c1 .4 3.3 1.3 5.9 1.3 2.6 0 4.9-.9 5.9-1.3l1.6 1.6v2.7a7.5 7.5 0 01-15 0zm0-6.7a6 6 0 016-6H26v2.2c0 .4.3.7.7.7a3 3 0 013 3v2l-1-1h-.1l-.1-.1H28 27.8a13.6 13.6 0 01-5.7 1.4c-3 0-5.7-1.4-5.7-1.4h-.7l-.2.1-1 1v-2zM29 34.9h-2.3v-1.3a9 9 0 004.5-7.8v-6.7a4.5 4.5 0 00-3.7-4.5v-2.3a.8.8 0 00-.8-.8h-6a7.5 7.5 0 00-7.6 7.6v6.7a9 9 0 004.5 7.8V35h-2.2A5.3 5.3 0 0010 40v2.2a2.3 2.3 0 002.3 2.3h19.6a2.3 2.3 0 002.3-2.2v-2.2c0-3-2.4-5.3-5.3-5.3z"/></g></svg>