<svg xmlns="http://www.w3.org/2000/svg" viewBox="0 0 506.5 421.26"><defs><style>.cls-1, .cls-2 { fill: #1b1464; } .cls-2, .cls-4, .cls-6 { stroke: #000; opacity: 0.3; } .cls-2, .cls-4, .cls-6, .cls-7 { stroke-miterlimit: 10; } .cls-3, .cls-4 { fill: #f15a24; } .cls-5, .cls-6 { fill: blue; } .cls-7 { stroke: red; }</style></defs><circle class="cls-1" cx="356.49" cy="350.68" r="9.33"/><path d="M320 323.35a18.18 18.18 0 0 1 3-.23 5 5 0 0 1 3.4 1 3.26 3.26 0 0 1 1.06 2.54 3.57 3.57 0 0 1-.94 2.59 5 5 0 0 1-3.71 1.33 5.41 5.41 0 0 1-1.26-.11v4.88h-1.57v-12zm1.57 5.85a5.27 5.27 0 0 0 1.3.13c1.89 0 3-.92 3-2.59s-1.13-2.38-2.86-2.38a6.57 6.57 0 0 0-1.48.13v4.72zM329.23 329.35c0-1 0-1.91-.07-2.72h1.39l.05 1.71h.11a2.62 2.62 0 0 1 2.41-1.91 1.74 1.74 0 0 1 .45.05v1.5a2.36 2.36 0 0 0-.54-.05 2.22 2.22 0 0 0-2.12 2 4.44 4.44 0 0 0-.07.74v4.68h-1.57v-6zM342.82 330.92a4.26 4.26 0 0 1-4.34 4.63 4.14 4.14 0 0 1-4.18-4.48c0-2.92 1.91-4.63 4.32-4.63s4.2 1.82 4.2 4.48zm-6.91.09c0 1.91 1.1 3.35 2.65 3.35s2.65-1.42 2.65-3.39c0-1.48-.74-3.35-2.61-3.35s-2.69 1.73-2.69 3.39zM345.3 326.64l1.71 4.9a22.33 22.33 0 0 1 .7 2.23h.05c.2-.72.45-1.44.74-2.23l1.69-4.9h1.66l-3.41 8.71h-1.51l-3.31-8.71h1.69zM355.11 324.19a1 1 0 0 1-2 0 1 1 0 0 1 1-1 .94.94 0 0 1 1 1zm-1.76 11.16v-8.71h1.58v8.71h-1.58zM365.09 322.57v10.53c0 .77 0 1.66.07 2.25h-1.45v-1.51a3.22 3.22 0 0 1-3 1.71c-2.11 0-3.73-1.78-3.73-4.43 0-2.9 1.78-4.68 3.91-4.68a2.91 2.91 0 0 1 2.63 1.33v-5.2h1.58zm-1.58 7.62a2.81 2.81 0 0 0-.07-.67 2.33 2.33 0 0 0-2.29-1.84c-1.64 0-2.61 1.44-2.61 3.37 0 1.76.86 3.22 2.57 3.22a2.38 2.38 0 0 0 2.32-1.89 2.78 2.78 0 0 0 .07-.68v-1.51zM368.6 331.28a2.79 2.79 0 0 0 3 3 5.72 5.72 0 0 0 2.41-.45l.27 1.13a7.06 7.06 0 0 1-2.9.54 4 4 0 0 1-4.29-4.39c0-2.63 1.55-4.7 4.09-4.7 2.84 0 3.6 2.5 3.6 4.11a5.88 5.88 0 0 1-.05.74h-6.12zm4.65-1.13a2.26 2.26 0 0 0-2.2-2.57 2.63 2.63 0 0 0-2.43 2.57h4.63zM376.71 329.35c0-1 0-1.91-.07-2.72h1.39l.05 1.71h.07a2.62 2.62 0 0 1 2.41-1.91 1.74 1.74 0 0 1 .45.05v1.5a2.36 2.36 0 0 0-.54-.05 2.22 2.22 0 0 0-2.12 2 4.44 4.44 0 0 0-.07.74v4.68h-1.57v-6zM386.31 333.53a5.3 5.3 0 0 0 2.59.74c2 0 2.67-1.3 2.65-2.27 0-1.64-1.49-2.34-3-2.34h-.88v-1.19h.88c1.15 0 2.61-.59 2.61-2a1.76 1.76 0 0 0-2.05-1.76 4.31 4.31 0 0 0-2.34.77l-.45-1.13a5.56 5.56 0 0 1 3.06-.9c2.3 0 3.35 1.37 3.35 2.79a2.9 2.9 0 0 1-2.16 2.75 3 3 0 0 1 2.61 3c0 1.87-1.46 3.51-4.27 3.51a6 6 0 0 1-3-.79z"/><circle class="cls-2" cx="358.1" cy="350.68" r="70.08"/><circle class="cls-3" cx="157" cy="228.35" r="9.33"/><g><path d="M120.51 201.03a18.17 18.17 0 0 1 3-.23 5 5 0 0 1 3.4 1 3.26 3.26 0 0 1 1.06 2.54 3.57 3.57 0 0 1-.94 2.59 5 5 0 0 1-3.71 1.33 5.41 5.41 0 0 1-1.26-.11v4.86h-1.55v-12zm1.57 5.85a5.27 5.27 0 0 0 1.3.13c1.89 0 3-.92 3-2.59s-1.13-2.38-2.86-2.38a6.63 6.63 0 0 0-1.48.13v4.72zM129.71 207.02c0-1 0-1.91-.07-2.72h1.39l.05 1.71h.07a2.62 2.62 0 0 1 2.41-1.91 1.7 1.7 0 0 1 .45.05v1.49a2.36 2.36 0 0 0-.54-.05 2.22 2.22 0 0 0-2.12 2 4.46 4.46 0 0 0-.07.74v4.65h-1.57v-6zM143.34 208.59a4.26 4.26 0 0 1-4.34 4.63 4.14 4.14 0 0 1-4.18-4.48c0-2.92 1.91-4.63 4.32-4.63s4.2 1.81 4.2 4.48zm-6.91.09c0 1.91 1.1 3.35 2.65 3.35s2.65-1.42 2.65-3.38c0-1.48-.74-3.35-2.61-3.35s-2.7 1.72-2.7 3.38zM145.82 204.35l1.71 4.9a22.25 22.25 0 0 1 .7 2.23h.05c.2-.72.45-1.44.74-2.23l1.69-4.9h1.66l-3.42 8.71h-1.51l-3.31-8.71h1.69zM155.63 201.85a1 1 0 0 1-2 0 1 1 0 0 1 1-1 .94.94 0 0 1 1 1zm-1.76 11.16v-8.66h1.58v8.71h-1.58zM165.6 200.23v10.53c0 .77 0 1.66.07 2.25h-1.42l-.07-1.51a3.22 3.22 0 0 1-3 1.71c-2.11 0-3.73-1.78-3.73-4.43 0-2.9 1.78-4.68 3.91-4.68a2.91 2.91 0 0 1 2.63 1.33v-5.2h1.58zm-1.58 7.62a2.8 2.8 0 0 0-.07-.67 2.33 2.33 0 0 0-2.29-1.84c-1.64 0-2.61 1.44-2.61 3.37 0 1.76.86 3.22 2.57 3.22a2.38 2.38 0 0 0 2.32-1.89 2.76 2.76 0 0 0 .07-.68v-1.51zM169.11 208.95a2.79 2.79 0 0 0 3 3 5.73 5.73 0 0 0 2.41-.45l.27 1.13a7.06 7.06 0 0 1-2.9.54 4 4 0 0 1-4.29-4.39c0-2.63 1.55-4.7 4.09-4.7 2.84 0 3.6 2.5 3.6 4.1a5.88 5.88 0 0 1-.05.74h-6.13zm4.65-1.13a2.26 2.26 0 0 0-2.2-2.58 2.63 2.63 0 0 0-2.43 2.58h4.58zM177.25 207.02c0-1 0-1.91-.07-2.72h1.39l.05 1.71h.09a2.62 2.62 0 0 1 2.41-1.91 1.7 1.7 0 0 1 .45.05v1.49a2.36 2.36 0 0 0-.54-.05 2.22 2.22 0 0 0-2.12 2 4.46 4.46 0 0 0-.07.74v4.65h-1.57v-6zM186.44 213.02v-1l1.24-1.21c3-2.84 4.34-4.36 4.36-6.12a2.09 2.09 0 0 0-2.32-2.29 4 4 0 0 0-2.48 1l-.53-1.05a5.13 5.13 0 0 1 3.31-1.19 3.29 3.29 0 0 1 3.58 3.4c0 2.16-1.57 3.91-4 6.28l-.94.86h5.26v1.31h-7.47z"/></g><circle class="cls-4" cx="156.33" cy="228.02" r="155.83"/><g><circle class="cls-5" cx="367.43" cy="140.68" r="9.33"/><path d="M330.94 113.35a18.18 18.18 0 0 1 3-.23 5 5 0 0 1 3.4 1 3.26 3.26 0 0 1 1.06 2.54 3.57 3.57 0 0 1-.94 2.59 5 5 0 0 1-3.71 1.33 5.41 5.41 0 0 1-1.26-.11v4.88h-1.57v-12zm1.57 5.85a5.27 5.27 0 0 0 1.3.13c1.89 0 3-.92 3-2.59s-1.1-2.39-2.83-2.39a6.6 6.6 0 0 0-1.48.13v4.72zM340.18 119.35c0-1 0-1.91-.07-2.72h1.39l.05 1.71h.07a2.62 2.62 0 0 1 2.41-1.91 1.72 1.72 0 0 1 .45.05v1.49a2.36 2.36 0 0 0-.54-.05 2.22 2.22 0 0 0-2.12 2 4.45 4.45 0 0 0-.07.74v4.69h-1.57v-6zM353.77 120.92a4.26 4.26 0 0 1-4.34 4.63 4.14 4.14 0 0 1-4.18-4.48c0-2.92 1.91-4.63 4.32-4.63s4.2 1.82 4.2 4.48zm-6.91.09c0 1.91 1.1 3.35 2.65 3.35s2.65-1.42 2.65-3.39c0-1.48-.74-3.35-2.61-3.35s-2.7 1.73-2.7 3.39zM356.25 116.64l1.71 4.9a22.29 22.29 0 0 1 .7 2.23h.05c.2-.72.45-1.44.74-2.23l1.69-4.9h1.66l-3.42 8.71h-1.51l-3.31-8.71h1.69zM366.06 114.19a1 1 0 0 1-2 0 1 1 0 0 1 1-1 .94.94 0 0 1 1 1zm-1.76 11.16v-8.71h1.58v8.71h-1.58zM376.03 112.57v10.53c0 .77 0 1.66.07 2.25h-1.39l-.07-1.51a3.22 3.22 0 0 1-3 1.71c-2.11 0-3.73-1.78-3.73-4.43 0-2.9 1.78-4.68 3.91-4.68a2.91 2.91 0 0 1 2.63 1.33v-5.2h1.58zm-1.58 7.62a2.81 2.81 0 0 0-.07-.67 2.33 2.33 0 0 0-2.29-1.84c-1.64 0-2.61 1.44-2.61 3.37 0 1.76.86 3.22 2.57 3.22a2.38 2.38 0 0 0 2.32-1.89 2.77 2.77 0 0 0 .07-.68v-1.51zM379.54 121.28a2.79 2.79 0 0 0 3 3 5.73 5.73 0 0 0 2.41-.45l.27 1.13a7.06 7.06 0 0 1-2.9.54 4 4 0 0 1-4.29-4.39c0-2.63 1.55-4.7 4.09-4.7 2.84 0 3.6 2.5 3.6 4.1a5.88 5.88 0 0 1-.05.74h-6.12zm4.65-1.13a2.26 2.26 0 0 0-2.2-2.57 2.63 2.63 0 0 0-2.43 2.57h4.63zM387.71 119.35c0-1 0-1.91-.07-2.72h1.39l.05 1.71h.07a2.62 2.62 0 0 1 2.41-1.91 1.72 1.72 0 0 1 .45.05v1.49a2.36 2.36 0 0 0-.54-.05 2.22 2.22 0 0 0-2.12 2 4.45 4.45 0 0 0-.07.74v4.69h-1.57v-6zM400.31 115.12l-2 1.1-.31-1.21 2.56-1.37h1.35v11.71h-1.6v-10.23z"/></g><circle class="cls-6" cx="365.82" cy="140.68" r="140.18"/><g><circle class="cls-7" cx="237.65" cy="166.35" r="9.33"/><path d="M219.47 139.52a18.16 18.16 0 0 1 3-.23 5 5 0 0 1 3.4 1 3.26 3.26 0 0 1 1.06 2.54 3.57 3.57 0 0 1-.94 2.59 5 5 0 0 1-3.71 1.33 5.4 5.4 0 0 1-1.26-.11v4.86h-1.57v-12zm1.57 5.85a5.26 5.26 0 0 0 1.3.13c1.89 0 3-.92 3-2.59s-1.13-2.38-2.86-2.38a6.59 6.59 0 0 0-1.48.13v4.69zM236.43 147.09a4.26 4.26 0 0 1-4.34 4.63 4.14 4.14 0 0 1-4.18-4.48c0-2.92 1.91-4.63 4.32-4.63s4.2 1.81 4.2 4.48zm-6.91.09c0 1.91 1.1 3.35 2.65 3.35s2.65-1.42 2.65-3.39c0-1.48-.74-3.35-2.61-3.35s-2.69 1.73-2.69 3.39zM240.19 140.35a1 1 0 0 1-2 0 1 1 0 0 1 1-1 .94.94 0 0 1 1 1zm-1.76 11.16v-8.71h1.58v8.71h-1.58zM242.64 145.16c0-.9 0-1.64-.07-2.36h1.4l.09 1.44a3.2 3.2 0 0 1 2.88-1.64c1.21 0 3.08.72 3.08 3.71v5.2h-1.58v-5c0-1.4-.52-2.57-2-2.57a2.32 2.32 0 0 0-2.23 2.36v5.24h-1.58v-6.36zM254.46 140.3v2.5h2.25v1.21h-2.27v4.7c0 1.08.31 1.69 1.19 1.69a3.55 3.55 0 0 0 .92-.11l.07 1.19a3.88 3.88 0 0 1-1.4.22 2.19 2.19 0 0 1-1.71-.67 3.23 3.23 0 0 1-.61-2.27v-4.75h-1.35v-1.21h1.35v-2.09z"/></g></svg>
