<svg viewBox="0 0 489.6 404.3" xmlns="http://www.w3.org/2000/svg"><g transform="translate(0 -42.65)"><path d="m37.3 60.1h415a19.2 19.2 0 0 1 19.2 19.2v44.5h-453.4v-44.5a19.2 19.2 0 0 1 19.2-19.2z" fill="#d2e2ef"/><g fill="#337ab7"><path d="m489.6 409.55v-329.6a37.3 37.3 0 0 0 -37.3-37.3h-415a37.3 37.3 0 0 0 -37.3 37.3v329.7a37.3 37.3 0 0 0 37.3 37.35h415a37.39 37.39 0 0 0 37.3-37.45zm-452.3-348.8h415a19.2 19.2 0 0 1 19.2 19.2v44.5h-453.4v-44.5a19.2 19.2 0 0 1 19.2-19.2zm-19.2 348.8v-267h453.4v267a19.2 19.2 0 0 1 -19.2 19.2h-415a19.2 19.2 0 0 1 -19.2-19.2z"/><path d="m81.8 101.05a9.22 9.22 0 1 0 -6.4-2.7 8.69 8.69 0 0 0 6.4 2.7z"/><path d="m113.8 101.05a9.22 9.22 0 1 0 -6.4-2.7 8.69 8.69 0 0 0 6.4 2.7z"/><path d="m49.8 101.05a9.22 9.22 0 1 0 -6.4-2.7 8.69 8.69 0 0 0 6.4 2.7z"/><path d="m273.82 193.27-8-2.18a3.59 3.59 0 0 0 -3 .32 4.18 4.18 0 0 0 -2 2.5l-47.82 165.79a3.85 3.85 0 0 0 .32 3.15 4.17 4.17 0 0 0 2.5 2l8 2.18a3.58 3.58 0 0 0 3-.32 4.18 4.18 0 0 0 2-2.5l47.9-165.79a3.85 3.85 0 0 0 -.32-3.15 4.17 4.17 0 0 0 -2.58-2z"/><path d="m202 225.63a4.06 4.06 0 0 0 -1.28-3l-6.42-6.42a4 4 0 0 0 -5.91 0l-59.81 59.89a4 4 0 0 0 0 5.91l59.84 59.84a4 4 0 0 0 5.91 0l6.42-6.42a4 4 0 0 0 0-5.91l-50.47-50.47 50.47-50.47a4.06 4.06 0 0 0 1.25-2.95z"/><path d="m361 276.1-59.84-59.84a4 4 0 0 0 -5.91 0l-6.42 6.42a4 4 0 0 0 0 5.91l50.47 50.47-50.47 50.47a4 4 0 0 0 0 5.91l6.42 6.42a4 4 0 0 0 5.91 0l59.84-59.86a4 4 0 0 0 0-5.9z"/></g></g></svg>