<svg enable-background="new 0 0 64 46.5" viewBox="0 0 64 46.5" xmlns="http://www.w3.org/2000/svg"><path d="m4.3 40.9c.3.2.6.2.9.1 9.1-3.6 17.8-3.7 26.4 0h.1.1.2.1.1c8.6-3.6 17.2-3.6 26.4 0 .5.2 1.1 0 1.3-.6 0-.1.1-.2.1-.4v-36c0-.4-.2-.7-.6-.9-8-3.5-17.2-3.6-27.4 0-10.2-3.6-19.4-3.5-27.5.1-.4.2-.6.5-.6.9v36c0 .3.1.7.4.8z" fill="#d2e2ef"/><path d="m63 4.2c-.6 0-1 .4-1 1v37.8h-24.5-.1c-.3-.1-.6 0-.8.2-2.9 2.3-5.9 2.3-9.1 0h-.1l-.2-.1h-.2-.1-24.9v-37.9c0-.6-.4-1-1-1s-1 .4-1 1v38.8c0 .6.4 1 1 1h25.5c1.6 1.2 3.6 1.9 5.6 2 2-.1 3.8-.8 5.4-2h25.5c.6 0 1-.4 1-1v-38.8c0-.5-.4-1-1-1z" fill="#d2e2ef"/><path d="m4.3 40.5c.3.2.6.2.9.1 9.1-3.6 17.8-3.7 26.4 0h.1.1.2.1.1c8.6-3.6 17.2-3.6 26.4 0 .5.2 1.1 0 1.3-.6 0-.1.1-.2.1-.4v-36c0-.4-.2-.7-.6-.9-8-3.6-17.2-3.6-27.4-.1-10.2-3.5-19.4-3.5-27.5.2-.4.1-.6.5-.6.9v36c0 .3.1.6.4.8zm53.8-36.2v33.9c-4.1-1.5-8.4-2.3-12.8-2.3-4.2 0-8.4.8-12.4 2.3v-33.8c9.4-3.1 17.8-3.2 25.2-.1zm-52.2 0c7.4-3 15.8-3 25.1.1v33.8c-8.1-3.1-17-3-25.1.1z" fill="#337ab7"/><path d="m63 3.8c-.6 0-1 .4-1 1v37.7h-24.5-.1c-.3-.1-.6 0-.8.2-2.9 2.3-5.9 2.3-9.1 0h-.1l-.2-.1h-.2-.1-24.9v-37.8c0-.6-.4-1-1-1s-1 .4-1 1v38.7c0 .6.4 1 1 1h25.5c1.6 1.2 3.6 1.9 5.6 2 2-.1 3.8-.8 5.4-2h25.5c.6 0 1-.4 1-1v-38.7c0-.5-.4-1-1-1z" fill="#337ab7"/><g fill="none" stroke="#337ab7" stroke-linecap="round" stroke-miterlimit="10" stroke-width="2"><path d="m11.8 13.1h13.9"/><path d="m11.8 18.3h13.9"/><path d="m11.8 23.9h13.8"/><path d="m38.1 13.1h13.8"/><path d="m38.1 18.3h13.8"/><path d="m38.1 23.9h13.8"/></g></svg>