<svg id="Layer_1" data-name="Layer 1" xmlns="http://www.w3.org/2000/svg" viewBox="0 0 416.08 489.6"><defs><style>.cls-1{fill:#d2e2ef;}.cls-2{fill:#337ab7;}</style></defs><title>people</title><path id="_Path_" data-name="&lt;Path&gt;" class="cls-1" d="M244.72,99.2h0.2c40.4-.4,34.5-54.4,34.5-54.4-1.6-36.1-31.7-35.8-34.7-35.7-3-.1-33.1-0.4-34.8,35.6,0,0-5.9,54,34.6,54.4h0C244.52,99.2,244.62,99.2,244.72,99.2Z" transform="translate(-36.76)"/><path id="_Path_2" data-name="&lt;Path&gt;" class="cls-1" d="M244.72,166.3l26.1-36s18.4,7.4,33.4,18.5a70.21,70.21,0,0,1,9.2,8.1c8.3,8.3,4.8,56.4,0,74s-18.9,42.9-18.9,42.9a67.77,67.77,0,0,0-5.3,20.2l-18,176.5a11,11,0,0,1-10.9,9.9h-31.2a11,11,0,0,1-10.9-9.9l-18-176.5a67,67,0,0,0-5.3-20.2s-14.1-25.2-18.9-42.9-8.3-65.7,0-74a70.21,70.21,0,0,1,9.2-8.1c15-11,33.4-18.5,33.4-18.5Z" transform="translate(-36.76)"/><path class="cls-2" d="M41.72,248.8c4.5,16.4,16.5,38.5,18.3,41.9a51.8,51.8,0,0,1,4.1,15.9L81,472.2a19.33,19.33,0,0,0,19.3,17.4h29.2a19.33,19.33,0,0,0,19.3-17.4l16.9-165.6a53.2,53.2,0,0,1,4.3-16.2,9,9,0,1,0-16.5-7.3,71,71,0,0,0-5.7,21.7l-16.9,165.6a1.28,1.28,0,0,1-1.2,1.1h-29.2a1.2,1.2,0,0,1-1.2-1.1L82.22,304.7a74,74,0,0,0-5.7-21.7,3,3,0,0,0-.4-0.8c-0.1-.2-12.7-22.9-16.9-38.2-4.6-17.1-5.9-54.3-2.1-60.9a54.69,54.69,0,0,1,7.4-6.5,146.11,146.11,0,0,1,22.9-13.3l20.2,27.8a9.05,9.05,0,0,0,14.6,0l24.5-33.7A9.09,9.09,0,1,0,132,146.7l-17.2,23.6-17-23.5a9.07,9.07,0,0,0-10.7-3.1c-0.7.3-18.5,7.5-33.3,18.4a72.87,72.87,0,0,0-9.7,8.5C31.32,183.4,38.42,236.6,41.72,248.8Z" transform="translate(-36.76)"/><path class="cls-2" d="M114.12,131.9h1.7c11.6-.3,21.4-4.5,28.4-12.4,14.9-16.8,12.8-44.8,12.4-48.3-1.5-30.9-23-41.8-40.9-41.8h-1.6c-17.9,0-39.3,11-40.9,41.8-0.3,3.5-2.5,31.5,12.4,48.3C92.72,127.4,102.52,131.7,114.12,131.9ZM91.32,72.8V72.2c1-21.6,14.7-24.8,22.8-24.8h1.5c8.1,0,21.8,3.2,22.8,24.8v0.5c0.7,6.4.5,25.1-8,34.7-3.7,4.2-8.8,6.3-15.5,6.3h-0.2c-6.7-.1-11.8-2.1-15.5-6.3C90.82,97.9,90.72,79.2,91.32,72.8Z" transform="translate(-36.76)"/><path class="cls-2" d="M324.12,278.4a8.93,8.93,0,0,0-4.6,11.9,54,54,0,0,1,4.3,16.2l16.9,165.6A19.33,19.33,0,0,0,360,489.5h29.2a19.33,19.33,0,0,0,19.3-17.4l16.9-165.6a54.8,54.8,0,0,1,4.1-15.9c1.8-3.3,13.9-25.4,18.3-41.9,3.3-12.2,10.5-65.4-2.3-78.2a72.87,72.87,0,0,0-9.7-8.5c-14.8-10.9-32.5-18.1-33.3-18.4a8.9,8.9,0,0,0-10.7,3.1l-17.2,23.6-17.3-23.5a9.09,9.09,0,0,0-14.7,10.7l24.5,33.7a9.05,9.05,0,0,0,14.6,0l20.2-27.8a146.11,146.11,0,0,1,22.9,13.3,60.41,60.41,0,0,1,7.4,6.5c3.8,6.6,2.5,43.8-2.1,60.9-4.2,15.3-16.8,38-16.9,38.2a5.94,5.94,0,0,0-.4.8,71,71,0,0,0-5.7,21.7l-16.9,165.6a1.28,1.28,0,0,1-1.2,1.1h-29.2a1.2,1.2,0,0,1-1.2-1.1l-16.9-165.6a74,74,0,0,0-5.7-21.7A8.94,8.94,0,0,0,324.12,278.4Z" transform="translate(-36.76)"/><path class="cls-2" d="M373.62,131.9h1.7c11.6-.2,21.4-4.5,28.5-12.4,14.9-16.8,12.8-44.8,12.4-48.3-1.5-30.9-22.9-41.8-40.9-41.8h-1.6c-17.9,0-39.3,11-40.9,41.8-0.3,3.5-2.5,31.5,12.4,48.3C352.22,127.4,362,131.6,373.62,131.9Zm-22.8-59.1V72.2c1-21.6,14.7-24.8,22.8-24.8h1.5c8.1,0,21.8,3.2,22.8,24.8v0.5c0.7,6.4.5,25.1-8,34.7-3.7,4.2-8.8,6.2-15.5,6.3h-0.2c-6.7-.1-11.8-2.1-15.5-6.3C350.32,97.9,350.22,79.2,350.82,72.8Z" transform="translate(-36.76)"/><path class="cls-2" d="M169.62,150.5c-13.5,13.5-5.9,69.8-2.3,82.8,4.8,17.5,17.6,41.1,19.5,44.5a56.91,56.91,0,0,1,4.5,17.1l18,176.5a19.92,19.92,0,0,0,20,18h31.1a20.14,20.14,0,0,0,20-18l18-176.5a56.14,56.14,0,0,1,4.5-17.1c1.9-3.5,14.7-27,19.5-44.5,3.5-13,11.2-69.3-2.3-82.8a81,81,0,0,0-10.2-9c-15.7-11.6-34.6-19.2-35.4-19.6a8.9,8.9,0,0,0-10.7,3.1l-19.1,25.9L225.92,125a9.07,9.07,0,0,0-10.7-3.1c-0.8.3-19.6,8-35.4,19.6A74.52,74.52,0,0,0,169.62,150.5Zm13,12.6a55.64,55.64,0,0,1,8-7,150.56,150.56,0,0,1,25-14.5l21.8,30a9.05,9.05,0,0,0,14.6,0l21.8-30a159.08,159.08,0,0,1,25,14.5,55.64,55.64,0,0,1,8,7c4.2,6.8,2.9,46.9-2.2,65.4-4.5,16.4-17.9,40.6-18.1,40.8a5.94,5.94,0,0,0-.4.8,76,76,0,0,0-6.1,23L262,469.6a1.86,1.86,0,0,1-1.9,1.7H229a1.86,1.86,0,0,1-1.9-1.7l-18-176.5a73.91,73.91,0,0,0-6.1-23,3,3,0,0,0-.4-0.8c-0.1-.2-13.6-24.5-18.1-40.9C179.72,210,178.42,169.9,182.62,163.1Z" transform="translate(-36.76)"/><path class="cls-2" d="M243.82,108.2h1.8c12.4-.2,22.4-4.6,29.9-13.1,15.8-17.7,13.4-47.5,13.1-51.1-1.6-32.5-24.1-44-43-44h-1.8c-18.8,0-41.4,11.5-43,44-0.3,3.6-2.7,33.3,13.1,51C221.42,103.5,231.52,107.9,243.82,108.2Zm-24.9-62.5V45.1c1.1-24.4,17.8-27,24.9-27h1.7c7.1,0,23.8,2.6,24.9,27v0.5c0.7,6.9.6,27.1-8.6,37.4-4.1,4.6-9.7,6.9-17,6.9h-0.3c-7.3-.1-12.9-2.3-17-6.9C218.32,72.8,218.22,52.6,218.92,45.7Z" transform="translate(-36.76)"/></svg>