<?xml version="1.0" encoding="iso-8859-1"?>
<!-- Generator: Adobe Illustrator 19.0.0, SVG Export Plug-In . SVG Version: 6.00 Build 0)  -->
<svg version="1.1" id="Capa_1" xmlns="http://www.w3.org/2000/svg" xmlns:xlink="http://www.w3.org/1999/xlink" x="0px" y="0px"
	 viewBox="0 0 512 512" style="enable-background:new 0 0 512 512;" xml:space="preserve">
<g>
	<g>
		<g>
			<path d="M256,0C114.844,0,0,114.844,0,256s114.844,256,256,256s256-114.844,256-256S397.156,0,256,0z M256,490.667
				C126.604,490.667,21.333,385.396,21.333,256S126.604,21.333,256,21.333S490.667,126.604,490.667,256S385.396,490.667,256,490.667
				z"/>
			<circle cx="170.667" cy="192" r="21.333"/>
			<circle cx="341.333" cy="192" r="21.333"/>
			<path d="M256,320h-0.031c-89.615,0-124.396,45.021-125.833,46.938c-3.521,4.688-2.573,11.302,2.094,14.854
				c4.667,3.542,11.354,2.635,14.927-2c1.208-1.573,30.604-38.458,108.813-38.458H256c78.229,0.01,107.635,36.896,108.802,38.406
				c2.094,2.792,5.292,4.26,8.542,4.26c2.229,0,4.469-0.698,6.396-2.135c4.708-3.531,5.667-10.219,2.125-14.938
				C380.427,365.021,345.635,320.01,256,320z"/>
		</g>
	</g>
</g>
<g>
</g>
<g>
</g>
<g>
</g>
<g>
</g>
<g>
</g>
<g>
</g>
<g>
</g>
<g>
</g>
<g>
</g>
<g>
</g>
<g>
</g>
<g>
</g>
<g>
</g>
<g>
</g>
<g>
</g>
</svg>
