<svg id="Layer_1" data-name="Layer 1" xmlns="http://www.w3.org/2000/svg" viewBox="0 0 490.18 485.9"><defs><style>.cls-1{fill:#d2e2ef;}.cls-2{fill:#337ab7;}</style></defs><title>settings (2)</title><path id="_Compound_Path_" data-name="&lt;Compound Path&gt;" class="cls-1" d="M221.68,167.84h17.8a108,108,0,0,0,16.1,38.9L243,219.34a11.53,11.53,0,0,0,0,16.3l13.7,13.7a11.53,11.53,0,0,0,16.3,0l12.6-12.6a107,107,0,0,0,38.9,16.1v17.8a11.5,11.5,0,0,0,11.5,11.5h19.4a11.5,11.5,0,0,0,11.5-11.5v-17.8a108,108,0,0,0,38.9-16.1l12.6,12.6a11.53,11.53,0,0,0,16.3,0l13.7-13.7a11.53,11.53,0,0,0,0-16.3l-12.6-12.6a107,107,0,0,0,16.1-38.9h17.8a11.5,11.5,0,0,0,11.5-11.5V137a11.5,11.5,0,0,0-11.5-11.5h-17.8a108,108,0,0,0-16.1-38.9L448.38,74a11.53,11.53,0,0,0,0-16.3L434.58,44a11.53,11.53,0,0,0-16.3,0l-12.6,12.6a107,107,0,0,0-38.9-16.1V22.74a11.5,11.5,0,0,0-11.5-11.5h-19.4a11.5,11.5,0,0,0-11.5,11.5v17.8a108,108,0,0,0-38.9,16.1L273,44a11.53,11.53,0,0,0-16.3,0L243,57.74A11.53,11.53,0,0,0,243,74l12.6,12.6a107,107,0,0,0-16.1,38.9h-17.8a11.5,11.5,0,0,0-11.5,11.5v19.4A11.42,11.42,0,0,0,221.68,167.84Zm123.9-70.2a49.1,49.1,0,1,1-49.1,49.1A49.12,49.12,0,0,1,345.58,97.64Z" transform="translate(0 -2.14)"/><path class="cls-2" d="M346.27,380.54a6.73,6.73,0,0,1-8.8,3.7l-22.6-9.4a9,9,0,0,0-11,3.3,138.36,138.36,0,0,1-38.5,38.5,9,9,0,0,0-3.3,11l9.3,22.6a6.73,6.73,0,0,1-3.7,8.8l-24.6,10.3a6.73,6.73,0,0,1-8.8-3.7l-9.4-22.6a9,9,0,0,0-10.1-5.4,138.36,138.36,0,0,1-54.4,0,9,9,0,0,0-10.1,5.4l-9.4,22.6a6.82,6.82,0,0,1-8.8,3.7l-24.6-10.2a6.82,6.82,0,0,1-3.7-8.9l9.4-22.6a9,9,0,0,0-3.3-11,138.36,138.36,0,0,1-38.5-38.5,9,9,0,0,0-11-3.3l-22.6,9.4a6.7,6.7,0,0,1-8.8-3.7l-10.2-24.6a6.73,6.73,0,0,1,3.7-8.8l22.6-9.4a9,9,0,0,0,5.4-10.1,138.36,138.36,0,0,1,0-54.4,9,9,0,0,0-5.4-10.1l-22.6-9.4a6.82,6.82,0,0,1-3.7-8.9L29,220.24a6.82,6.82,0,0,1,8.9-3.7l22.6,9.4a9,9,0,0,0,11-3.3,138.36,138.36,0,0,1,38.5-38.5,9,9,0,0,0,3.3-11l-9.4-22.6a6.82,6.82,0,0,1,3.7-8.9l24.6-10.2a6.73,6.73,0,0,1,8.8,3.7l9.4,22.6a9,9,0,1,0,16.7-6.9l-9.4-22.6a25,25,0,0,0-32.5-13.5l-24.6,10.2a24.82,24.82,0,0,0-13.5,13.5,25.26,25.26,0,0,0,0,19.1l6.6,15.9a157.38,157.38,0,0,0-33.1,33.1l-15.9-6.6a25.26,25.26,0,0,0-19.1,0,24.82,24.82,0,0,0-13.5,13.5L1.87,238a25.26,25.26,0,0,0,0,19.1,24.82,24.82,0,0,0,13.5,13.5l15.9,6.6a153,153,0,0,0,0,46.8l-15.9,6.6a25,25,0,0,0-13.5,32.5l10.2,24.3a24.91,24.91,0,0,0,32.5,13.5l15.9-6.6a157.38,157.38,0,0,0,33.1,33.1L87,443.34a25.26,25.26,0,0,0,0,19.1,24.82,24.82,0,0,0,13.5,13.5l24.6,10.2a24.91,24.91,0,0,0,32.5-13.5l6.6-15.9a153,153,0,0,0,46.8,0l6.6,15.9a25,25,0,0,0,23,15.4,24.41,24.41,0,0,0,9.5-1.9l24.6-10.2a25,25,0,0,0,13.5-32.5l-6.6-15.9a157.38,157.38,0,0,0,33.1-33.1l15.9,6.6a24.83,24.83,0,0,0,32.5-13.5l10.2-24.6a25.26,25.26,0,0,0,0-19.1,24.82,24.82,0,0,0-13.5-13.5l-22.6-9.4a9,9,0,0,0-6.9,16.7l22.6,9.4a6.82,6.82,0,0,1,3.7,8.9Z" transform="translate(0 -2.14)"/><path class="cls-2" d="M187.07,238.54a9.05,9.05,0,0,0-.1-18.1h-0.1a80,80,0,0,0,.5,159.9H188a79.89,79.89,0,0,0,79.4-80.5,9,9,0,0,0-9.1-9h-0.1a9,9,0,0,0-9,9.1,61.8,61.8,0,0,1-61.4,62.3h-0.5a61.87,61.87,0,0,1-44-105.3A62.46,62.46,0,0,1,187.07,238.54Z" transform="translate(0 -2.14)"/><path class="cls-2" d="M469.58,176.94a20.63,20.63,0,0,0,20.6-20.6V137a20.63,20.63,0,0,0-20.6-20.6h-10.5a116.66,116.66,0,0,0-11.8-28.5l7.5-7.5a20.64,20.64,0,0,0,0-29.1l-13.7-13.7a20.43,20.43,0,0,0-14.5-6,20.09,20.09,0,0,0-14.5,6l-7.5,7.5a114.41,114.41,0,0,0-28.5-11.8V22.74a20.63,20.63,0,0,0-20.6-20.6h-19.4a20.63,20.63,0,0,0-20.6,20.6v10.6A116.66,116.66,0,0,0,287,45.14l-7.5-7.5a20.43,20.43,0,0,0-14.5-6,20.09,20.09,0,0,0-14.5,6l-13.7,13.7a20.64,20.64,0,0,0,0,29.1l7.5,7.5a114.41,114.41,0,0,0-11.8,28.5h-10.6a20.63,20.63,0,0,0-20.6,20.6v19.4a20.63,20.63,0,0,0,20.6,20.6h10.6a116.66,116.66,0,0,0,11.8,28.5l-7.5,7.5a20.64,20.64,0,0,0,0,29.1l13.7,13.7a20.43,20.43,0,0,0,14.5,6,20.09,20.09,0,0,0,14.5-6l7.5-7.5a114.41,114.41,0,0,0,28.5,11.8v10.6a20.63,20.63,0,0,0,20.6,20.6h19.4a20.63,20.63,0,0,0,20.6-20.6V260a116.66,116.66,0,0,0,28.5-11.8l7.5,7.5a20.43,20.43,0,0,0,14.5,6,20.09,20.09,0,0,0,14.5-6l13.7-13.7a20.64,20.64,0,0,0,0-29.1l-7.5-7.5a114.41,114.41,0,0,0,11.8-28.5h10.5ZM443,166.14a97.42,97.42,0,0,1-14.8,35.7,9.07,9.07,0,0,0,1.1,11.4l12.6,12.6a2.42,2.42,0,0,1,0,3.5L428.18,243a2.38,2.38,0,0,1-1.7.7,2.24,2.24,0,0,1-1.7-.7l-12.6-12.6a9,9,0,0,0-11.4-1.1,99.16,99.16,0,0,1-35.7,14.8,9.1,9.1,0,0,0-7.3,8.9v17.8a2.43,2.43,0,0,1-2.4,2.4H336a2.43,2.43,0,0,1-2.4-2.4V253a9.19,9.19,0,0,0-7.3-8.9,97.42,97.42,0,0,1-35.7-14.8,9.14,9.14,0,0,0-5-1.5,8.85,8.85,0,0,0-6.4,2.7l-12.6,12.6a2.38,2.38,0,0,1-1.7.7,2.24,2.24,0,0,1-1.7-.7l-13.7-13.7a2.42,2.42,0,0,1,0-3.5l12.6-12.6a9,9,0,0,0,1.1-11.4,99.16,99.16,0,0,1-14.8-35.7,9.1,9.1,0,0,0-8.9-7.3h-17.8a2.43,2.43,0,0,1-2.4-2.4V137a2.43,2.43,0,0,1,2.4-2.4h17.8a9.19,9.19,0,0,0,8.9-7.3,97.42,97.42,0,0,1,14.8-35.7,9.07,9.07,0,0,0-1.1-11.4l-12.6-12.6a2.38,2.38,0,0,1-.7-1.7,2.24,2.24,0,0,1,.7-1.7l13.6-13.8a2.38,2.38,0,0,1,1.7-.7,2.24,2.24,0,0,1,1.7.7L279.08,63a9,9,0,0,0,11.4,1.1,99.16,99.16,0,0,1,35.7-14.8,9.1,9.1,0,0,0,7.3-8.9V22.74a2.43,2.43,0,0,1,2.4-2.4h19.4a2.43,2.43,0,0,1,2.4,2.4v17.8a9.19,9.19,0,0,0,7.3,8.9,97.42,97.42,0,0,1,35.7,14.8,9.07,9.07,0,0,0,11.4-1.1l12.6-12.6a2.38,2.38,0,0,1,1.7-.7,2.24,2.24,0,0,1,1.7.7l13.7,13.7a2.42,2.42,0,0,1,0,3.5l-12.6,12.6a9,9,0,0,0-1.1,11.4,99.16,99.16,0,0,1,14.8,35.7,9.1,9.1,0,0,0,8.9,7.3h17.8a2.43,2.43,0,0,1,2.4,2.4v19.4a2.43,2.43,0,0,1-2.4,2.4h-17.8A8.72,8.72,0,0,0,443,166.14Z" transform="translate(0 -2.14)"/><path class="cls-2" d="M345.67,88.54a58.1,58.1,0,1,0,58.1,58.1A58.15,58.15,0,0,0,345.67,88.54Zm0,98.1a40,40,0,1,1,40-40A40,40,0,0,1,345.67,186.64Z" transform="translate(0 -2.14)"/></svg>