<?xml version="1.0" encoding="iso-8859-1"?>
<!-- Generator: Adobe Illustrator 19.0.0, SVG Export Plug-In . SVG Version: 6.00 Build 0)  -->
<svg version="1.1" id="Capa_1" xmlns="http://www.w3.org/2000/svg" xmlns:xlink="http://www.w3.org/1999/xlink" x="0px" y="0px"
	 viewBox="0 0 512 512" style="enable-background:new 0 0 512 512;" xml:space="preserve">
<g>
	<g>
		<g>
			<path d="M256,0C114.844,0,0,114.844,0,256s114.844,256,256,256s256-114.844,256-256S397.156,0,256,0z M256,490.667
				C126.604,490.667,21.333,385.396,21.333,256S126.604,21.333,256,21.333S490.667,126.604,490.667,256S385.396,490.667,256,490.667
				z"/>
			<path d="M393.385,299.115c-5.781-1.385-11.49,2.177-12.844,7.906c-13.75,57.885-64.958,98.313-124.542,98.313
				c-59.656,0-110.885-40.49-124.573-98.448c-1.365-5.75-7.146-9.24-12.833-7.938c-5.74,1.354-9.292,7.104-7.938,12.833
				c15.979,67.646,75.75,114.885,145.344,114.885c69.51,0,129.26-47.167,145.292-114.708
				C402.656,306.219,399.115,300.469,393.385,299.115z"/>
			<circle cx="170.667" cy="192" r="21.333"/>
			<circle cx="341.333" cy="192" r="21.333"/>
		</g>
	</g>
</g>
<g>
</g>
<g>
</g>
<g>
</g>
<g>
</g>
<g>
</g>
<g>
</g>
<g>
</g>
<g>
</g>
<g>
</g>
<g>
</g>
<g>
</g>
<g>
</g>
<g>
</g>
<g>
</g>
<g>
</g>
</svg>
