<svg fill="none" viewBox="0 0 515 660" xmlns="http://www.w3.org/2000/svg">

<path d="m0 0h515v660h-515z" fill="#fff" />

<!-- Separator -->
<g opacity=".5" stroke="#3a8dde">
    <path d="m38 76.5h439" />
    <path d="m38 580.5h439" />
    <path d="m38 202.5h439" />
    <path d="m38 328.5h439" />
    <path d="m38 454.5h439" />
</g>

<!-- Boxes -->
<g fill="#e2eefa" opacity=".7">
    <path d="m38 39h439v76h-439z" />
    <path d="m38 165h439v76h-439z" />
    <path d="m38 291h439v76h-439z" />
    <path d="m38 417h439v76h-439z" />
    <path d="m38 543h439v76h-439z" />
</g>

<g fill="#4a586d">
  <path
      d="m257.646 158.354c.196.195.512.195.708 0l3.182-3.182c.195-.196.195-.512 0-.708-.196-.195-.512-.195-.708 0l-2.828 2.829-2.828-2.829c-.196-.195-.512-.195-.708 0-.195.196-.195.512 0 .708zm-.146-43.354v43h1v-43z"
    />
  <path
      d="m257.646 284.354c.196.195.512.195.708 0l3.182-3.182c.195-.196.195-.512 0-.708-.196-.195-.512-.195-.708 0l-2.828 2.829-2.828-2.829c-.196-.195-.512-.195-.708 0-.195.196-.195.512 0 .708zm-.146-43.354v43h1v-43z"
    />
  <path
      d="m257.646 410.354c.196.195.512.195.708 0l3.182-3.182c.195-.196.195-.512 0-.708-.196-.195-.512-.195-.708 0l-2.828 2.829-2.828-2.829c-.196-.195-.512-.195-.708 0-.195.196-.195.512 0 .708zm-.146-43.354v43h1v-43z"
    />
  <path
      d="m257.646 536.354c.196.195.512.195.708 0l3.182-3.182c.195-.196.195-.512 0-.708-.196-.195-.512-.195-.708 0l-2.828 2.829-2.828-2.829c-.196-.195-.512-.195-.708 0-.195.196-.195.512 0 .708zm-.146-43.354v43h1v-43z"
    />
</g>

<g fill="#8589a0">
  <path d="m258 291-6.062-10.5h12.124z" />
  <path d="m258 417-6.062-10.5h12.124z" />
  <path d="m258 165-6.062-10.5h12.124z" />
  <path d="m258 543-6.062-10.5h12.124z" />
</g>

<g fill="#141414" font-family="sans-serif">
  <g font-size="14" letter-spacing=".5" font-weight="bold">
    <text x="205" y="64">APPLICATION</text>
    <text x="218" y="190">BROWSER</text>
    <text x="185" y="316">STORAGE SERVICE</text>
    <text x="218" y="442">BROWSER</text>
    <text x="205" y="568">APPLICATION</text>
  </g>

  <g font-size="16" letter-spacing=".3" font-weight="lighter">
    <text x="130" y="100">Generate presigned URL to S3</text>
    <text x="144" y="226">POST file to presigned URL</text>
    <text x="137" y="352">Return URL to uploaded file</text>
    <text x="140" y="478">POST file URL the Application</text>
    <text x="185" y="604">Save URL in model</text>
  </g>
</g>

</svg>
