<svg fill="none" viewBox="0 0 515 660" xmlns="http://www.w3.org/2000/svg"><path d="M0 0h515v660H0z" fill="#fff"/><g opacity=".5" stroke="#3a8dde"><path d="M38 76.5h439m-439 504h439m-439-378h439m-439 126h439m-439 126h439"/></g><g fill="#e2eefa" opacity=".7"><path d="M38 39h439v76H38zm0 126h439v76H38zm0 126h439v76H38zm0 126h439v76H38zm0 126h439v76H38z"/></g><g fill="#4a586d"><path d="M257.646 158.354a.502.502 0 0 0 .708 0l3.182-3.182a.502.502 0 0 0-.708-.708L258 157.293l-2.828-2.829a.502.502 0 0 0-.708.708zM257.5 115v43h1v-43zm.146 169.354a.502.502 0 0 0 .708 0l3.182-3.182a.502.502 0 0 0-.708-.708L258 283.293l-2.828-2.829a.502.502 0 0 0-.708.708zM257.5 241v43h1v-43zm.146 169.354a.502.502 0 0 0 .708 0l3.182-3.182a.502.502 0 0 0-.708-.708L258 409.293l-2.828-2.829a.502.502 0 0 0-.708.708zM257.5 367v43h1v-43zm.146 169.354a.502.502 0 0 0 .708 0l3.182-3.182a.502.502 0 0 0-.708-.708L258 535.293l-2.828-2.829a.502.502 0 0 0-.708.708zM257.5 493v43h1v-43z"/></g><g fill="#8589a0"><path d="M258 291l-6.062-10.5h12.124zm0 126l-6.062-10.5h12.124zm0-252l-6.062-10.5h12.124zm0 378l-6.062-10.5h12.124z"/></g><g fill="#141414" font-family="sans-serif"><g font-size="14" letter-spacing=".5" font-weight="bold"><text x="205" y="64">APPLICATION</text><text x="218" y="190">BROWSER</text><text x="185" y="316">STORAGE SERVICE</text><text x="218" y="442">BROWSER</text><text x="205" y="568">APPLICATION</text></g><g font-size="16" letter-spacing=".3" font-weight="lighter"><text x="130" y="100">Generate presigned URL to S3</text><text x="144" y="226">POST file to presigned URL</text><text x="137" y="352">Return URL to uploaded file</text><text x="140" y="478">POST file URL the Application</text><text x="185" y="604">Save URL in model</text></g></g></svg>