<svg viewBox="0 0 515 897" xmlns="http://www.w3.org/2000/svg">

<path d="m0 0h515v897h-515z" fill="#fff" />

<!-- Arrow lines -->
<g fill="#4a586d">
<path
      d="m257.646 158.354c.196.195.512.195.708 0l3.182-3.182c.195-.196.195-.512 0-.708-.196-.195-.512-.195-.708 0l-2.828 2.829-2.828-2.829c-.196-.195-.512-.195-.708 0-.195.196-.195.512 0 .708zm-.146-43.354v43h1v-43z"
    />

<path
      d="m257.646 284.354c.196.195.512.195.708 0l3.182-3.182c.195-.196.195-.512 0-.708-.196-.195-.512-.195-.708 0l-2.828 2.829-2.828-2.829c-.196-.195-.512-.195-.708 0-.195.196-.195.512 0 .708zm-.146-43.354v43h1v-43z"
    />
    <path
      d="m257.646 410.354c.196.195.512.195.708 0l3.182-3.182c.195-.196.195-.512 0-.708-.196-.195-.512-.195-.708 0l-2.828 2.829-2.828-2.829c-.196-.195-.512-.195-.708 0-.195.196-.195.512 0 .708zm-.146-43.354v43h1v-43z"
    />
<path
      d="m257.646 536.354c.196.195.512.195.708 0l3.182-3.182c.195-.196.195-.512 0-.708-.196-.195-.512-.195-.708 0l-2.828 2.829-2.828-2.829c-.196-.195-.512-.195-.708 0-.195.196-.195.512 0 .708zm-.146-43.354v43h1v-43z"
    />
<path
      d="m257.646 662.354c.196.195.512.195.708 0l3.182-3.182c.195-.196.195-.512 0-.708-.196-.195-.512-.195-.708 0l-2.828 2.829-2.828-2.829c-.196-.195-.512-.195-.708 0-.195.196-.195.512 0 .708zm-.146-43.354v43h1v-43z"
    />
<path
      d="m257.646 788.354c.196.195.512.195.708 0l3.182-3.182c.195-.196.195-.512 0-.708-.196-.195-.512-.195-.708 0l-2.828 2.829-2.828-2.829c-.196-.195-.512-.195-.708 0-.195.196-.195.512 0 .708zm-.146-43.354v43h1v-43z"
    />
</g>

<!-- Arrow heads -->
<g fill="#8589a0">
    <path d="m258 165-6.062-10.5h12.124z" />
    <path d="m258 291-6.062-10.5h12.124z" />
    <path d="m258 417-6.062-10.5h12.124z" />
    <path d="m258 543-6.062-10.5h12.124z" />
    <path d="m258 669-6.062-10.5h12.124z" />
    <path d="m258 795-6.062-10.5h12.124z" />
</g>

<!-- Blue boxes -->
<g fill="#e2eefa" opacity=".7">
    <path d="m38 39h439v76h-439z" />
    <path d="m31 291h439v76h-439z" />
    <path d="m38 417h439v76h-439z" />
    <path d="m38 543h439v76h-439z" />
    <path d="m38 669h439v76h-439z" />
    <path d="m38 795h439v76h-439z" />
    <path d="m38 165h439v76h-439z" />
</g>

<!-- Separators -->
<g opacity=".5" stroke="#3a8dde">
    <path d="m38 76h439" />
    <path d="m38 202h439" />
    <path d="m31 328h439" />
    <path d="m38 454h439" />
    <path d="m38 580h439" />
    <path d="m38 706h439" />
    <path d="m38 832h439" />
</g>

<!-- General text properties -->
<g fill="#141414" font-family="sans-serif">
<!-- Headers -->
  <g font-size="14" letter-spacing=".5" font-weight="bold">
    <text x="205" y="64">APPLICATION</text>
    <text x="205" y="190">APPLICATION</text>
    <text x="211" y="316">BROWSER</text>
    <text x="185" y="442">STORAGE SERVICE</text>
    <text x="218" y="568">BROWSER</text>
    <text x="205" y="694">APPLICATION</text>
    <text x="197" y="820">IMAGE SERVICE</text>
  </g>

<!-- Subtext -->
  <g font-size="16" letter-spacing=".3" font-weight="lighter">
    <text x="70" y="100">Take image versions config from model schema</text>
    <text x="130" y="226">Generate presigned URL to S3</text>
    <text x="137" y="352">POST file to presigned URL</text>
    <text x="137" y="478">Return URL to uploaded file</text>
    <text x="140" y="604">POST file URL the Application</text>
    <text x="190" y="730">Save URL in model</text>
    <text x="130" y="856">Generate images, POST them to S3</text>
  </g>
</g>

</svg>
