<svg xmlns="http://www.w3.org/2000/svg" x="0" y="0" enable-background="new 0 0 524.9 104" version="1.1" viewBox="0 0 524.9 104" xml:space="preserve"><defs/><defs><filter id="a" width="490.2" height="93.4" x="34.7" y=".5" filterUnits="userSpaceOnUse"><feColorMatrix type="matrix" values="1 0 0 0 0 0 1 0 0 0 0 0 1 0 0 0 0 0 1 0"/></filter></defs><mask id="b" width="490.2" height="93.4" x="34.7" y=".5" maskUnits="userSpaceOnUse"><path fill="#c4c4c4" d="M-107.1 0h632v104h-632z" filter="url(#a)"/></mask><g mask="url(#b)"><path fill="#777fad" d="M515.2 9.7c.1-1.6-1.3-3.1-3.2-3.2-1.5-.1-2.7.6-3.3 1.7L482.3.6H480l28.4 8.2c0 .1-.1.2-.1.3 0 .3.1.5.1.7l-87.6 19.3c-.5-1.1-1.6-1.9-2.9-2-.6 0-1.2.1-1.7.3L397 .5h-.8L415 26.8l-8.8-9L394.5.5h-1l9.4 13.9L389.3.5h-.8l16.2 16.6 10 14.8-2.8 2.1L384 .5h-.9l28.3 33.9-63.8 48.9c-.5-.4-1.1-.6-1.7-.8l4.9-82h-.8l-3.5 59.1L348 .5h-.8l-2.3 82c-.7 0-1.3.2-1.8.6l-80-66.4L290.5.5H289l-26.5 15.7-4.4-3.6 14.2-12h-1.2L257.5 12 243.5.5h-1.2l14.5 12-25 21.1c-.4-.3-.7-.4-1.1-.5l8-32.6h-.4l-8 32.5 1-32.5h-.7l-1 32.5c-.5 0-1.1.2-1.5.4l-22.3-25 24.8-8h-2.9l-22.9 6.9-6.1-6.9h-.8l6.3 7.1-69.9 21 28.3-28h-1.1L132.6 29l-1.8.5L138.9.4h-.6l-8.1 29.1c-.1 0-.2 0-.2-.1-.5 0-1 0-1.5.2l-14-22.5 4.4-6.6h-.8l-4 6-3.7-6h-.9l4 6.6-9.6 14.3L84 12.9 81 .5h-.8l3 12.1L54.4.5h-1.8l30.7 12.9 6.3 25.8c-.5.1-.9.4-1.3.7L35.6.5h-.9L88 40.2c-.3.4-.6.9-.6 1.4-.1 1.6 1.3 3.1 3.2 3.2 1.9.2 3.5-1.1 3.7-2.7V42l132.4-5.8c.2 1.3 1.4 2.3 3 2.5 1.3.1 2.5-.5 3.1-1.4l109.4 46.9c-.1.2-.2.5-.2.7-.1 1.6 1.3 3 3.2 3.2 1.9.1 3.5-1.1 3.6-2.7 0-.2-.1-.4-.1-.6L436 67.7c.4 1.1 1.5 1.9 3 2 1.4.1 2.7-.6 3.3-1.6l82.8 24.8v-.8l-78.4-23.5 78.4 15.3v-.7l-79.8-15.6 79.8 6.5v-.6L442.5 67c0-.6-.2-1.3-.7-1.7l24.1-19.2L525 65.5v-.7l-58.4-19.2 43-34.3c.5.4 1.2.7 2 .8.6.1 1.2-.1 1.8-.3L524.9 28v-.9l-7.7-10.7 7.7 9.2v-1.2l-8.5-10.1 8.5 8.2v-1l-9.7-9.4 9.7 6.8v-.8L514.7 11c.3-.4.5-.8.5-1.3zM133.1 29.6l71.4-21.4-71.9 23c-.1-.2-.3-.5-.5-.7l1-.9zm-19-21.8l13.6 22.3c-.3.2-.5.4-.8.6l-.4.1-21.8-9.1 9.4-13.9zm12.2 25.3l-25.6 6.2 25.7-7.7c-.1.2-.2.4-.2.6 0 .3 0 .6.1.9zM91 39h-.5l-6.2-25.3 19.5 8.2-11.7 17.4c-.4-.1-.8-.2-1.1-.3zm1.7.7l11.7-17.4 21.1 8.9-31.8 9.6c-.3-.5-.6-.9-1-1.1zm1.3 1.8v-.1l.2-.1 32.3-7.8c.4 1.1 1.6 1.9 2.9 2 1.9.1 3.4-1 3.6-2.6l89.1 3L94 41.5zm132.4-6l-93.5-3.2c0-.2 0-.4-.1-.6L205 8.6l22.4 25.1c-.5.5-.9 1.1-1 1.8zM257.5 13l4.3 3.5-28.3 16.7 24-20.2zm85 70.9L233 36.9c.1-.2.2-.5.2-.7 0-.6-.1-1.1-.5-1.6l29.6-17.5 80.2 66.6v.2zm75-51c.6 0 1-.1 1.6-.2l15.6 27-18.4-27.1c.3.1.7.2 1.2.3zm-3.2-3.2l-6.2-9.3 7.2 7.4c-.6.5-.9 1.1-1 1.9zm.8 2.6l19.3 28.5-22-26.4 2.7-2.1zm20.6 34.5c0 .2 0 .4.1.6l-87.3 17.1c-.1-.3-.3-.5-.5-.8l63.8-48.8 25 30c-.6.4-1 1.1-1.1 1.9zm5.6-1.9c-.6-.4-1.2-.7-2-.8-.6 0-1 .1-1.6.2l-18.4-31.9c.6-.3 1.1-.7 1.4-1.2l44.4 14.6-23.8 19.1zm24.6-19.5L421 30.6c0-.2.1-.3.2-.5 0-.3-.1-.5-.1-.7l87.6-19.3c.1.3.3.5.5.8l-43.3 34.5z"/><linearGradient id="c" x1="394.36" x2="369.808" y1="78.442" y2="68.928" gradientTransform="matrix(1 0 0 -1 0 103.89)" gradientUnits="userSpaceOnUse"><stop offset="0" stop-color="#3a8dde"/><stop offset=".99" stop-color="#80c67d"/></linearGradient><path fill="url(#c)" d="M397.1 32.4L378.9 21l-5.6 23 23.8-11.6z"/><path fill="#194f90" d="M504.5 85.3l-20.2 8.5 5-26.9 15.2 18.4z"/><path fill="#45a041" d="M269 36.6l-10.9 26.3 26.8 2.6L269 36.6z"/><linearGradient id="d" x1="75.632" x2="58.392" y1="89.452" y2="76.578" gradientTransform="matrix(1 0 0 -1 0 103.89)" gradientUnits="userSpaceOnUse"><stop offset="0" stop-color="#3a8dde"/><stop offset="1" stop-color="#0090d0"/></linearGradient><path fill="url(#d)" d="M65.5 34.3L47.9 22.8l24.4-9.5-6.8 21z"/></g></svg>