<svg xmlns="http://www.w3.org/2000/svg" viewBox="0 0 2880 893"><path fill="#eaf1f8" d="M0 0h2880v551.43H0z" class="background"/><ellipse cx="1474.71" cy="491.91" fill="#f5f8fb" rx="1799.57" ry="401.63"/><ellipse cx="1474.71" cy="446.77" fill="#eaf1f8" rx="1799.57" ry="422.77"/><path fill="none" stroke="#f5f5f5" stroke-miterlimit="10" stroke-width="2" d="M-5.02 33.18L400.33 80.5M0 100.81L634.23 437.4M223.95 0l464.84 360.43M248.62 0l154.75 80.5M330.74 0l358.05 360.43M446.33 0l242.46 360.43M400.33 80.5l233.9 356.9M288.78-2.68L634.23 437.4M405.52 85.11L762.87 461.2M637.17 437.4l51.62-76.97M800.61 0l208.42 68.6M688.79 360.43l608.44 97.97M688.79 360.43l629.71 361.35M762.87 461.2l561.73 260.58M635.7 438.68l688.9 283.1M761.73 458.4l549.95 408.72M765.87 465.85l582.59 402.67M688.79 360.43l746.44 442.68M1324.6 721.78l116.55 146.24M1324.6 725.46l110.63 77.65M1300.81 458.4l151.09 211.38M1499.8 0l-47.9 669.78M1518.37 0l612.08 334.95M1589.13 0l570.2 261.02M1794.77 0l335.68 334.95M1990.31 0l171.15 257.99M2097.99-8.1l61.34 269.12M1304.82 464.01l130.41 339.1M1300.81 458.4l203.42 411.09M1435.23 803.11l42.94 66.43M1435.23 806.54l335.73 57.3M1454.11 671.92l717.12 85.19M1451.9 673.85l77.48 195.5M1451.9 669.78l1076.83 8.11M1451.9 669.78l678.55-334.83M2130.45 334.95l31.01-76.96M2164.21 261.54L2509.32 0M2159.33 261.02l560.81-112.91M2716.57 144.14L2880 342.42M2720.13 148.11l15.21 600.36M2128.66 335.64l587.91-186.81M2161.46 260.99L2880 582.64M2135.58 334.95l539.03 426.9M2131.95 342.11l395.44 338.88M2528.73 685.99l6.67 102.03M2531.79 685.99l73.34 89.75M2525.94 692.19l148.05 69.79M2749.03 745.28l34.55-34.47M2775.51 740.04l8.07-29.23M2803.49 732.84l-11.86-18.32M2822.59 726.57l-27.7-15.76M2020.2 846.25l151.03-93.06M2171.23 757.11l351.72-75.43M2080.85 842.18l90.38-85.07M2205.44 833.23l-34.21-76.12M2238.55 829.68l-67.32-72.57M637.17 437.4l125.7 23.8M938.47-4.19l70.56 72.79M1012.3 71.98l284.93 386.42M688.79 360.43L1009.03 68.6M1009.03 68.6L1112.61 0"/><g fill="#f5f8fb" class="circles"><circle cx="637.17" cy="437.4" r="11.9"/><circle cx="688.79" cy="360.43" r="11.9"/><circle cx="1009.03" cy="68.6" r="11.9"/><circle cx="400.33" cy="80.5" r="11.9"/><circle cx="1300.81" cy="458.4" r="11.9"/><circle cx="1324.6" cy="721.78" r="11.9"/><circle cx="1435.23" cy="803.11" r="11.9"/><circle cx="1451.9" cy="669.78" r="11.9"/><circle cx="2171.23" cy="757.11" r="11.9"/><circle cx="2787.4" cy="710.81" r="11.9"/><circle cx="2716.57" cy="144.14" r="15.79"/><circle cx="2528.73" cy="685.99" r="19.41"/><circle cx="2161.46" cy="257.99" r="21.2"/><circle cx="2130.45" cy="334.95" r="11.9"/><circle cx="762.87" cy="461.2" r="11.9"/></g></svg>