<svg xmlns="http://www.w3.org/2000/svg" viewBox="0 0 2880 893"><defs/><path fill="#eaf1f8" d="M0 0h2880v551.4H0z" class="background"/><ellipse cx="1474.7" cy="491.9" fill="#f5f8fb" rx="1799.6" ry="401.6"/><ellipse cx="1474.7" cy="446.8" fill="#eaf1f8" rx="1799.6" ry="422.8"/><path fill="none" stroke="#f5f5f5" stroke-miterlimit="10" stroke-width="2" d="M-5 33.2l405.3 47.3M0 100.8l634.2 336.6M224 0l464.9 360.4M248.6 0l154.8 80.5M330.7 0l358 360.4M446.4 0l242.5 360.4M400.3 80.5l234 356.9M288.7-2.6l345.4 440M405.5 85.1L763 461.2m-125.7-23.8l51.6-77M800.6 0L1009 68.6M688.8 360.4l608.4 98m-608.4-98l629.7 361.4M762.9 461.2l561.7 260.6M635.7 438.7l688.9 283M761.7 458.5l550 408.7M765.9 465.8l582.6 402.7m-659.7-508L1435.2 803m-110.6-81.3L1441.1 868m-116.5-142.5l110.6 77.6m-134.4-344.7L1452 669.8M1499.8 0l-47.9 669.8M1518.4 0l612 335M1589.1 0l570.2 261M1794.8 0l335.7 335M1990.2 0l171.2 258M2098-8.1l61.3 269.1m-854.5 203l130.4 339.1m-134.4-344.7l203.4 411m-69-66.3l43 66.4m-43-63l335.8 57.3M1454 672l717.1 85.2M1452 673.8l77.5 195.6m-77.5-199.6l1076.8 8m-1076.8-8L2130.4 335m0 0l31-77m2.8 3.5L2509.3 0m-350 261l560.8-112.9m-3.5-4L2880 342.4m-159.9-194.3l15.2 600.4m-606.6-412.9l587.9-186.8M2161.5 261L2880 582.6M2135.6 335l539 427M2132 342L2527.4 681m1.3 5l6.7 102m-3.6-102l73.3 89.7m-79.2-83.5l148 69.8m75.1-16.7l34.6-34.5m-8 29.2l8-29.2m19.9 22l-11.9-18.3m31 12l-27.7-15.7m-774.7 135.5l151-93.1m0 4l351.8-75.5m-442.2 160.5l90.4-85m34.2 76l-34.2-76m67.4 72.5l-67.4-72.6m-1534-319.7l125.7 23.8M938.5-4.2l70.5 72.8m3.3 3.4l285 386.4m-608.5-98L1009 68.6m0 0L1112.6 0"/><g fill="#f5f8fb" class="circles"><circle cx="637.2" cy="437.4" r="11.9"/><circle cx="688.8" cy="360.4" r="11.9"/><circle cx="1009" cy="68.6" r="11.9"/><circle cx="400.3" cy="80.5" r="11.9"/><circle cx="1300.8" cy="458.4" r="11.9"/><circle cx="1324.6" cy="721.8" r="11.9"/><circle cx="1435.2" cy="803.1" r="11.9"/><circle cx="1451.9" cy="669.8" r="11.9"/><circle cx="2171.2" cy="757.1" r="11.9"/><circle cx="2787.4" cy="710.8" r="11.9"/><circle cx="2716.6" cy="144.1" r="15.8"/><circle cx="2528.7" cy="686" r="19.4"/><circle cx="2161.5" cy="258" r="21.2"/><circle cx="2130.4" cy="334.9" r="11.9"/><circle cx="762.9" cy="461.2" r="11.9"/></g></svg>