<svg fill="none" viewBox="0 0 1158 128" xmlns="http://www.w3.org/2000/svg" xmlns:xlink="http://www.w3.org/1999/xlink"><linearGradient id="a"><stop offset="0" stop-color="#3a8dde"/><stop offset="1" stop-color="#80c67d"/></linearGradient><linearGradient id="b" gradientUnits="userSpaceOnUse" x1="246" x2="258.3" xlink:href="#a" y1="57.4" y2="111.2"/><linearGradient id="c" gradientUnits="userSpaceOnUse" x1="978" x2="960.6" xlink:href="#a" y1="78.6" y2="84.4"/><mask id="d" height="128" maskUnits="userSpaceOnUse" width="1158" x="0" y="0"><path d="m0 0h1158v128h-1158z" fill="#fff"/></mask><g mask="url(#d)" opacity=".6"><g opacity=".4"><path d="m1416.8 265.9c-1.1.2-2.2-.2-3-.9l-29.3 23.3c.4.4.7.9.8 1.5.2 1.7-1.3 3.4-3.3 3.6-2 .3-3.8-.9-4-2.7v-.3l-174.6-14.4a3.6 3.6 0 0 1 -3.1 2.5c-1.5.2-3-.5-3.6-1.5l-88.4 37.6.2.7c.2 1.7-1.2 3.4-3.2 3.6-2 .3-3.8-1-4-2.7-.1-.2 0-.5 0-.8l-126.2-25c-.4 1-1.5 2-3 2.2-1.6.1-3.1-.7-3.7-2l-138.6 35.8v.1c.2 1.7-1.2 3.4-3.3 3.7-2 .2-3.8-1-4-2.8 0-.6.1-1.1.3-1.6l-90.7-41.8a4 4 0 0 1 -2.6 1.4c-1.6.2-3.1-.6-3.7-1.8l-124 35.4s.2.1.1.2c.3 1.7-1.2 3.4-3.2 3.6-1.8.3-3.4-.7-3.9-2.1l-160.1 28c0 1.7-1.3 3.2-3.3 3.4-.9.2-1.8 0-2.5-.5l-123.6 119.4c.4.4.8 1 .9 1.6.2 1.7-1.3 3.4-3.3 3.6-2 .3-3.8-1-4-2.7v-.5l-181.3-25.9c-.4 1.2-1.5 2-3 2.3-2 .3-3.8-1-4-2.7-.1-.5 0-1 .2-1.5l-144.7-64.9c-.6.8-1.5 1.3-2.5 1.5-2 .2-3.9-1-4-2.8a3 3 0 0 1 .7-2.3l-117.8-102.7c-.5.4-1 .6-1.7.7-2 .3-3.9-1-4-2.7-.1-.3 0-.6 0-.8l-163-35.5c-.5 1-1.6 1.8-2.9 2-2 .3-3.8-1-4-2.7-.3-1.7 1.2-3.4 3.2-3.6 1-.2 1.9 0 2.7.5l68.5-66.2a3 3 0 0 1 -1-1.7c-.2-1.7 1.2-3.4 3.3-3.6 1.3-.2 2.6.3 3.3 1.2l123.5-64.6c-.1-.3-.3-.5-.3-.8-.2-1.8 1.2-3.4 3.3-3.7 2-.2 3.8 1 4 2.7 0 .6 0 1-.2 1.5l127.7 54.3a4 4 0 0 1 2.6-1.5c1.8-.2 3.4.8 3.9 2.3l163.6-23.8c0-1.6 1.3-3 3.2-3.3 1.3-.1 2.5.4 3.3 1.2l142.3-79.8-.3-1c-.2-1.7 1.2-3.3 3.3-3.6 2-.3 3.8 1 4 2.7.1.5 0 1-.2 1.4l64.4 21.9c.5-.9 1.6-1.6 2.8-1.8 1.6-.2 3 .6 3.7 1.7l134.3-46.6-.1-.4c-.3-1.7 1.2-3.4 3.2-3.6 2-.3 3.9 1 4 2.7.2.6 0 1.2-.3 1.7l139.3 72.9a4 4 0 0 1 2.4-1.3c1.5-.1 2.8.4 3.5 1.4l138.8-59.5-.3-.6c-.2-1.7 1.3-3.3 3.3-3.6s3.8 1 4 2.7a3 3 0 0 1 -.5 2l93.5 57.9c.6-.6 1.4-1 2.3-1.1 2-.3 3.9 1 4 2.7.1.5 0 1-.2 1.5l140 57.8c.6-.7 1.5-1.4 2.6-1.5 2-.2 3.8 1 4 2.7a3 3 0 0 1 -1 2.5l31.7 28.9 150.3 10.8a3.5 3.5 0 0 1 3.1-2.5c2-.3 3.9 1 4.1 2.7 0 .5 0 1-.2 1.5l146.4 62c.6-.7 1.5-1.3 2.5-1.4 2-.3 3.9 1 4 2.7.2 1.6-1.2 3.2-3.3 3.5zm-1742.8-31 163 35.5.8-1-92-103.1c-.5.2-1 .4-1.4.4-1 .2-2 0-2.7-.5l-68.5 66.2c.5.4.9 1 1 1.7zm1257.8-137.8c-.4.4-.9.7-1.4.9l22 75.6c1.2.3 2.2 1.2 2.5 2.2l87.4-14.9zm-392.3-74-1-.1-53.1 137c1 .4 1.9 1.2 2 2.3l89.1-6.8c.1-1.3 1-2.3 2.3-2.9l-39.1-129.6h-.2zm-141 49c-.7 0-1.3-.1-1.9-.3l-75.2 114.8c.6.4 1 1 1.2 1.7l157.6-25.3c0-1 .4-1.8 1.1-2.4l-81.3-89.1c-.5.3-1 .4-1.5.5zm-652 93.7 92 103a4.2 4.2 0 0 1 2.7-.5l26-71.8c-1.1-.4-2-1.3-2.2-2.5l.1-1-117.9-28.3c-.2.4-.4.8-.8 1zm219.2 210.5 93.7-72.6c-.3-.4-.6-.8-.7-1.4l-88.4 6c0 1.5-1.3 2.8-3.2 3h-.2l-3.3 64.2c.8.1 1.5.4 2 .8zm336.3 93.8-5.2-105.8c-1.7 0-3.2-1-3.4-2.7v-.1l-84.1 1.4c-.1.8-.5 1.5-1.1 2l92.5 105.5c.4-.1.8-.3 1.3-.3zm125.4-121.1.1-.8-59-21.2-68.2 33 .2.5 127-11.5zm674.6-35.2a4 4 0 0 1 1.8-1l-22.6-123.5-78.6 72.3zm100.3-41c.6.4 1 1 1.1 1.7l123.3-16-103.3-11.3-21 25.6zm124.6-15.1c.1-.5.4-1 .8-1.3l-61.8-56.1a3.8 3.8 0 0 1 -4 .4l-37.8 45.8zm1.3-1.7c.5-.3 1-.6 1.8-.7 2-.3 3.8 1 4 2.7v.4l6.7.4-69.7-54.6zm5.8 2.9v.3l11 3-3.6-3-7.5-.3zm-163-15.5c-.6.3-1 .6-1.7.6h-1.3l25.5 24.5-22.6-25zm-5.7-2c-.1-.8.1-1.6.6-2.2l-9.3-6.2zm6 1.8 26.6 29.5 1.5-.6a4 4 0 0 1 2.3.4l21-25.4-50.3-5.5c-.1.7-.6 1.1-1.1 1.6zm207.4 28.3-30.9-8.2 11.4 9 19.5-.4zm0 1.2-18.4.4 19 14.9c.6-.4 1.2-.8 2-.9h.3l.4-11.7c-1.7 0-3.2-1.1-3.4-2.7zm-19.7.3-4.5.1 22.3 13.9zm-1-.7-12-9.5-12.3-3.3c0 .2-.2.4-.3.5l19.8 12.3zm-24.8-11.8c-.6.6-1.5 1-2.4 1.2-1.9.2-3.5-.8-4-2.4l-120.3 15.5 145.8-2.4-19.1-12zm-166.5-16.5-2.5 2.8 29.2 23zm-.5-.4-13.9-13.4-60-39.9 71.4 56.1zm-320.4-127.8a4 4 0 0 1 -1.6 1l20 72.8 20.1-3 18.3-37.8zm-358.4 47c0 .8-.3 1.5-.8 2l41 39.4 49.8-46.6a3 3 0 0 1 -.9-1.5l-89 6.7zm-164.6 26.2c0 .5-.1.9-.3 1.2l106.6 47 52.3-71.9a3 3 0 0 1 -1-1.5l-157.7 25.2zm-352.5 118.4v.3l88.5-6c0-1.1.8-2.2 2-2.7l-7.6-20.8-83 29.2zm460.3 38.4h.8l9.1-51.4c-.9-.1-1.6-.6-2.1-1.2l-33.8 16.3 24.9 36.7zm97.6-141.1 63.6 60.7-11.8-106.7a4 4 0 0 1 -2-.6zm-134 83.8 28.8-12-13.4-11.1-16.2 22.2c.4.2.7.5.9.9zm.3.5.2.6v.1l43 1 .7-1.3-15-12.4-29 12zm44.6-.1c.5-.4 1.1-.7 1.8-.8h1l7.3-21.7-24.8 10.2zm29.8-33.4-13.4-5.9-5.2 15.7 18.5-7.6-.2-.7c0-.5 0-1 .3-1.5zm.4-.7a4 4 0 0 1 2.5-1.4h.5l10.7-87-27.2 82.5zm-.3 3.4-18.9 7.8-7.4 22.3.7.3 26.4-29.6zm-81.6 32.2-126-3s.1.1 0 .2l89.8 32.3 36.8-28a3 3 0 0 1 -.6-1.3zm3.2-3.5c.7 0 1.4 0 2 .3l16.3-22.4-87.6-73.2 68.2 95.7zm-68.6-95.8 87.5 73 19.1-26.3-106.5-46.9v.2zm88.1 73.6 13.9 11.5 25.4-10.5 5.4-16.4-25.3-11.1zm45-16.2 27.3-82.7-.2-.1-52.3 71.8 25.1 11zm29.1-82.5h-.4l-10.8 87.4c.5 0 1 .2 1.5.5l52.5-49.2-41.2-39.3c-.5.3-1 .5-1.6.6zm-9.2 88.5c.4.4.8 1 .9 1.6l-.1.7 117 18.4-.9-8.5-64.4-61.4zm117.9 12 8.6 8.2 1-.5-20.7-107.9 11 100.1zm7 10.7v-.2l-6-1 .2 1.7zm.1-.9c.2-.4.5-.8.8-1l-7.8-7.5.8 7.6 6.2 1zm11.5-9.3 78.5-94-1.5-4.3-4-.5zm256 37 40-61.3-34.3-25.1a4 4 0 0 1 -2 .9h-.3l-5.3 86.4 1.8-1zm102.2-56-.3-1 .1-1.2-5.6-1.7 1.2 6.4 4.6-2.6zm-19.7-68.4-32.5 49.6 22.7 7 22.8 6.9-11.4-63.3c-.6 0-1.2 0-1.6-.2zm-76.2 37.4 34.2 25.1 8.2-12.6-42.1-13zm.4-3 .3.9-.1 1.2 42.2 13 32.5-49.7a4 4 0 0 1 -.9-.9zm89.6 29.4 6 1.9c.4-.7 1-1.3 1.9-1.6l-1.7-5.9-17.3-55.7zm-.7.5-23-7-23-7.1-8.5 12.9 30.2 22.1 25.6-14-1.3-7zm-54.8-.7-39.3 59.9 69.1-38zm-101-44-36.5 5.5v.2l95.5 9.6-59-15.4zm-110.2-29 43.1 21.2-39.1-20-4-1.1zm-5.7 1.2c-.6-.5-1-1.1-1.1-2v-.5l-.9-.1 1.3 3.5zm-2.2-3.3 1.2.2c.1-.5.4-.9.7-1.3l-1.3-1c-.3.4-.7.6-1.1.8zm1-2.4-.1.2 1.3 1c0-.2.2-.3.4-.4zm7.3 3.8h.1zm6.2 2.5 60.5 31 .7-.6-13.7-18zm61.9 30a6 6 0 0 1 1.1-.4 4 4 0 0 1 2.3.4l8.9-10.6-25.4-6.6 13 17.2zm4 .4c.5.4.9 1 1 1.5l34.7-5.3-26.7-7zm-5.8 3.5-.3-.6c0-.7.1-1.2.4-1.8l-67-32.8c-.4.5-1 .9-1.7 1.2l17.6 56.5zm-75.5-37.9-.4-1-.3.1a4 4 0 0 1 -2-.3l-.7.9zm2.2-2.8 1.9 1 .8-.3-.4-3.3-2 .6v.3c.2.6 0 1.2-.3 1.7zm7 3.6 2.7 1.4 50.2 13.2-20.7-27.3-32.3 12 .2.4v.3zm111.9 30 58.2 15.2c.4-.8 1.1-1.3 2-1.6l-6-21.9zm61 13.4c.6-.1 1-.1 1.6 0l12-24.8-19.6 3zm2.2.3c.6.3 1 .6 1.4 1l74-35.5v-.3l-63.1 9.6zm97.6 36-.3.2-4.6 2.7 6.3 34.8 1.1-36.5c-1 0-2-.5-2.5-1.1zm-241.5 30.7c.5-.1 1 0 1.6 0l35.2-71.5c-.6-.3-1-.6-1.4-1l-51.1 22.5 15.5 50 .2-.1zm-128.6-1-.1-.3-5.8.5.3 2.2zm-162.2 14.3-.2-.7v-.2l-43-1c-.2.8-.8 1.6-1.6 2l11 16.3zm-87.6 28-89.3-32.2c-.3.4-.7.9-1.3 1.1l36 68.8.8-.3c1.2-.2 2.2.2 3 .8l50.8-38.4zm-55 38-36.1-68.8-.8.3c-.7 0-1.4 0-2-.3l-27.6 40 65.3 29.7 1.1-1zm-90 1c.7 0 1.4.1 2 .4l20.5-29.8-69.4-31.6 45.7 61.4a6 6 0 0 1 1.2-.3zm-48.5-61.7-10.3-4.7-.4.4-.1.1 53.7 61.8zm-14.5-9.4c.3 0 .6-.2.8-.3h.6l1.4-6-19.3-26zm2.4-.1c1.3.3 2.4 1.3 2.5 2.6l4.4-.2-5.7-7.7zm2.5 3.2-.2.9 8.8 4-3.8-5.2zm-82 8.3c.4.4.6.8.7 1.3l68.2-8.8c0-1.7 1.3-3.2 3.3-3.4 1.1-.2 2.2.2 2.9.8l.4-.2c.3-.4.7-.8 1.2-1l-16.9-32.7-.8.2c-1.2.2-2.2-.2-3-.8l-56 44.6zm87.8-8.5 4.3 5.9 71 32.2 27.5-40a3.1 3.1 0 0 1 -1.5-2.1zm428-132.8 22.2 115.6c.6 0 1.3 0 1.8.3l78.6-106.4-100-11.8c-.3 1-1.3 1.9-2.5 2.2zm170.5 25.2 27 7 62-74.5-.7-.8-109.3 40.4zm91.9-66.7a4 4 0 0 1 -2.3-.4l-62 74.3 28.2 7.3 56-8.5-19.8-72.7zm109.1 62.6 8.6 27.9-8.1-28zm23.7 65.6c.2.2.4.6.4.9.1.6-.1 1.2-.4 1.7l19.3 10.1 31.5-40.6-50.8 27.8zm-5.5 41.2-6.2-34.6-24.5 14 29.2 21.4c.4-.4 1-.7 1.5-.8zm-102.7 18-.8 1.3.6.6 70.8-40.5-70.6 38.7zm-6.7 2.9.5-.3.6-.8-19.4-20.5-6.7 16.8zm1.7-1.6c.5-.3 1-.5 1.6-.6h.2l5.4-86.7h-.3l-26.6 66.4zm6.2-87.5c-.6-.2-1.1-.5-1.5-1l-61 28.9 36 38.1zm-1.8-1.7-.3-.7v-.5l-96.5-9.8c-.1.6-.5 1-1 1.5l36.5 38.5zm-98.4-9h-.1l21.7 45.3 14.7-7zm-1 .3-.5.2c-.6 0-1.1 0-1.6-.2l-35.2 71.7c.5.2 1 .5 1.3 1l58-27.5-21.8-45.3zm-55.8 21.8-1.3.5 11.7 33zm-.3-.9-17.5-56.6h-.2c-.6.1-1.2 0-1.7-.2l-1.3 2 19.5 55.4 1.3-.6zm-21.1-53.7-55.9 88 75.2-33.3zm-.6-.7-84 100.6.5.6 26.7-11.8zm-89.8 104.7-5.9 2.4 4 35.2 4.5-36.3c-1.2-.1-2-.6-2.6-1.3zm-6.9 2-.3-2.5-65.1 5.7 26.2 13 39.2-16.3zm-.3-3.3-.3-1.8-117.2-18.5-.2.4 51.3 25.7zm-118-19.3a4 4 0 0 1 -2.6 1.3h-1.4l-13.2 29.8 67.5-5.9zm-4.6 1-.4-.2-26.4 29.7c.6.4 1 1 1.1 1.7l12.3-1zm-25.7 32v.2l10.5 1.9 1.5-3.2-12 1zm-.2 1c-.5 1-1.6 1.9-3 2h-.6l-9.2 51.5h.2l23-51.7-10.4-1.9zm-41 16.7-11-16.2-1.2.4c-1.2.1-2.2-.3-3-.9l-36.5 27.7 16.7 6zm-52.7 11.6-51 38.5 67.4-32.6-16.4-6zm-57.4 39.3-65.3-29.7-20.3 29.7c.8.5 1.3 1.3 1.5 2.2v.1l84-1.4c0-.3 0-.6.2-.9zm-90.3.4-57.8-66.4c-.5.4-1.1.7-1.9.8h-.5l-7.1 37.8 66.7 28.4.6-.5zm-61.1-65.8c-.6 0-1.1-.4-1.6-.7-.5.6-1.4 1.1-2.5 1.3-1.9.2-3.6-.9-3.9-2.5l-68.2 8.9c0 .4 0 .8-.3 1.2l69.4 29.5 7-37.6zm-80.5 4h.3c1-.2 2.1.1 3 .8l56-44.6-.3-.4-66.7 23.5 7.6 20.8zm64.5-43.5 19 25.8 4.6-21.2-22.6-5.7zm19.8 26.9 6.4 8.6 101.9-4v-.3l-103.5-26.3-4.7 22zm115.5 4.3v.2l126 3c.1-.7.6-1.3 1.3-1.8l-68.1-95.7-1.2.4c-.6 0-1.2 0-1.8-.2l-57.7 92a3 3 0 0 1 1.6 2.1zm422.5-118.8.8-1a3 3 0 0 1 -1.3-2.1v-.5l-88.4-7 89 10.6zm6.4-5 2.2-.7-7.6-59.3 2.3 58.3c1.4 0 2.6.6 3.1 1.7zm-5.2-63.5 8 62.6 32.8-10.6-39.8-52.4-.9.3zm8.2 63.4.4 3.5c1.4-.1 2.7.5 3.4 1.5l32-11.9-2.8-3.8zm36.7-7.1 96.5-35.7-99.4 32zm155.2 31.1 62.4-9.5c0-.6.2-1.1.5-1.6l-45-26-18 37.1zm63.3-11.7c.4-.4 1-.7 1.6-1l-19-69.7-1.7-5.8h-1.5l-24.5 50.4zm2.3-1 .1-.1h.4l-9.1-31.5 8.6 31.5zm3 5.2 18.7 64.5c1-.1 2 .2 2.8.6l68.8-61.1-89.2-5.6c-.2.6-.6 1.1-1.1 1.6zm22 65.6 52.2-28.5 25.2-32.6-8-.5zm97.9-86-10.5 13.5 16.4 9.5-4.2-22.7c-.6 0-1.2-.1-1.7-.4zm-11 14.2-8 10.2 25.5 1.5-.4-1.8-17.2-10zm18.4 11.8h.4l.3-.7-1-.6zm4 3.8a4 4 0 0 1 -2.3-.6l-1 .8 18.3 99.8zm-2.9-1.2-.6.2.1.3zm-.5-.6-.4-1v-.3l.2 1.4zm-1.4-1.4-26-1.6-24.4 31.5 50.8-27.8-.4-2zm-26.6-2.3 8.2-10.6-2.9-1.7-13.2 11.8zm8.7-11.3 10-12.8-12.7 11.3zm18.3 10.6 1.7 1c.4-.5.9-.8 1.4-1l-7.1-21.7zm-85.7 76.5-19.2-10a4 4 0 0 1 -2.5 1.1h-.2l-1.1 36.5c.5 0 .9.1 1.3.3l21.7-28zm-159.1 44.4-8.4 21 1.3 1 31.4-17.3zm-238.6 13.6-3.9-35-38.3 16 40 20.1a4 4 0 0 1 2.2-1.1zm-168.4 29.8-25-36.7-34.4 16.8 58.4 21c.2-.5.6-.8 1-1zm-420.8-190.7h-.7l-39.5 149.5c.8.2 1.6.7 2 1.4l83-29.2-44.5-121.7zm1079.2 31.7a4 4 0 0 1 -1.4.7l18.8 124.5c.7 0 1.4.2 2 .4l56.5-66zm-6.4 1-.1-.6-52 28.5-32.6 42 5.5 3 79.2-73zm-85.2 70.6-20.7 26.8 26-24zm-27.7 30.8c-.1-.8.2-1.6.7-2.1l-29.3-21.5-71.1 40.6c0 .2 0 .4.2.6zm-106.6 18.2-25.4 14 25.6-12.4a3 3 0 0 1 -.3-1v-.6zm-35.8 15.8h1.3l8.4-21-22.5-4.2 12.2 25.3zm10-21.6 6.8-17.3-36.6-38.6-14.8 7 21.4 44.5 23.1 4.4zm-45.4-48.5-57.8 27.3.2.7v.8l78.9 15zm-62.6 25.6-17.3-49-76.4 33.7-8.6 13.6 100 4.1c.3-1 1-1.9 2.2-2.4zm-95.1-14.6-25.6 11.5.2.6v.3l17.2.7 8.2-13zm-25.6 13a3.6 3.6 0 0 1 -3.1 2.7h-.6l-4.5 36.2h.7l24.4-38.3zm-12 40.8-40.7-20.5-22.2 9.3 62.7 11.3.1-.2zm-41.7-20.9-26.7-13.3-69.1 6-1.5 3.3 74.6 13.5zm-97.6-3.3-23.1 51.8c.6.3 1.1.6 1.5 1.1l95.2-39.6zm-253.5 67.5-66.5-28.3-20.6 109.7c.5.2.9.3 1.3.6l86.4-79a3 3 0 0 1 -1-1.5c0-.6.2-1 .4-1.5zm-88.4 81.2h.6l20.6-110-69.6-29.6c-.4.5-1 .9-1.5 1.1l49.7 138.6h.2zm-149.5-137-93.9-109.7-1.3.5h-1.3l-26 71.8c1 .4 2 1.3 2.2 2.5l-.1 1.1 119.6 34.8.8-.9zm-93.2-110.2 93.9 109.7c.4-.3.8-.4 1.3-.5h.8l39.5-149.3c-1-.3-1.7-.9-2.1-1.7l-132.3 39v.2c.2 1-.3 2-1.1 2.7zm138.3-40.4 44.4 121.6 66.6-23.4-.1-.4a3 3 0 0 1 .7-2.3l-111-95.9zm118.1 97v1l22.5 5.6 27.3-127-51.7 118c1 .4 1.8 1.2 2 2.3zm51.5-121.4h-.6l-27.4 128.3 103.8 26.3c.5-1 1.6-1.9 2.9-2 .6-.1 1.2 0 1.8.2l57.7-92a3.1 3.1 0 0 1 -1.6-2.1c0-.6 0-1 .3-1.6l-134.2-58.5c-.6.8-1.5 1.4-2.6 1.5zm404.7 24.4 100 7.9c.3-1.3 1.6-2.4 3.1-2.7l-2.4-61.6c-1.1 0-2.1-.5-2.7-1.2l-98.3 56.2.4 1v.5zm103.1-57.3 40 52.6 112.8-36.2-.1-.3v-.5l-151.4-17c-.3.6-.7 1.1-1.3 1.5zm159.4 17 56.7 33 24.4-50.3c-.8-.4-1.4-1-1.7-1.8l-78.9 17.2c.1.8-.1 1.4-.5 2zm108.8 61.5v.2l89.8 5.5 13.6-12-15.3-8.8-88.1 15zm104.1-7 13.5-11.9c-.3-.3-.5-.7-.6-1l-27.4 4.6 14.5 8.4zm17.5-11 7.7 23.5h.4c2-.3 3.8.9 4 2.6v.3l18 1.3-29.2-28-1 .3zm12 27.2c0 .4-.2.7-.4 1l61.7 41.1-42.4-40.7zm84 55.2 50.7 5.5 38-46-.8-.8-88.2 40c.1.3.3.5.3.8zm169.5 17.9 19.5 1-91.8-57.6zm.7.5 4.2 3.4 32 8.5c0-.2 0-.3.2-.4l-16.7-10.5zm36.8 10.9a4 4 0 0 1 2.3-1.1c1.7-.2 3.2.7 3.8 2l27.2-7.6-.1-.3v-.4l-48.8-2.4zm-225.5-39.6 11.3 7.5-55.8-50.9h-.7zm259 33.2-27.3 7.6.1.4c.3 1.7-1.2 3.4-3.2 3.6h-.4l-.4 11.7c.9 0 1.7.3 2.3.9l29.3-23.3c-.2-.2-.4-.5-.5-.9zm-34.5 24.9-25-15.6-145.5 2.5 170 14 .5-1zm-181.7-15.2-33.2-26-56.4 65.9.7.7 88.5-37.7-.3-.6c0-.9.2-1.6.7-2.3zm-95.3 41-99.7-52.3-27.3 25.2c.4.4.7 1 .8 1.5v.9l126.1 25zm-232.9-6.6c.1 1.6-1.2 3.2-3.2 3.5-1.5.2-2.9-.4-3.6-1.5l-32.3 15.6h-.2v.2l134.1-34.7zm-44.3 16.3-12.5-25.8-79.4-15.2-.1.2 90.7 41.8c.4-.4.7-.8 1.3-1zm-99-41.8-100.4-4.1-24.5 38.6c.5.3.9.7 1.1 1.3l124-35.4-.1-.2v-.3zm-130.7 37-63.7-11.6-96.4 40 160.1-28 .1-.4zm-167.2 30.2-126.9 11.5c0 1.5-1.3 2.9-3 3.1l5.2 105.8c.7 0 1.3.2 1.9.5l123.6-119.6c-.5-.4-.8-1.4-.8-1.4zm-127.5 121.3-92.6-105.5-1.4.4a4 4 0 0 1 -2.7-.6l-86.4 79c.4.4.8 1 .9 1.6l-.1.5 181.3 25.9c.2-.5.5-1 1-1.3zm-187.4-27.5-49.6-138.6h-.2c-1.1.2-2.2-.1-3-.7l-93.6 72.6c.3.4.6.8.6 1.4.1.5 0 1-.3 1.5l144.8 64.8c.3-.4.8-.8 1.4-1zm-150-68h.3l3.3-64.2c-1.6 0-3-1.1-3.2-2.6v-1.2l-119.6-34.7-.3.6 117.9 102.8c.5-.3 1-.6 1.8-.7zm-215.2-211.4 117.9 28.3c.5-1 1.5-1.8 2.9-2h.2l4.8-91.7c-1-.1-1.9-.6-2.5-1.2l-123.5 64.7.3.9zm126.7-65.4h-.3l-4.8 91.8c1.3 0 2.3.8 2.8 1.7l132.3-39v-.2c-.1-.5 0-1 .2-1.5l-127.6-54.3c-.6.8-1.5 1.4-2.6 1.5zm136.5 55.8 111 96c.5-.4 1.1-.7 1.8-.8h1.3l52.1-119a3 3 0 0 1 -1.8-1.9l-163.5 23.6c0 .8-.3 1.5-.8 2zm171.4-25.5 134.2 58.5a4 4 0 0 1 2.5-1.5h.2l7.6-138.2c-.9-.1-1.6-.5-2.2-1l-142.3 79.6.4 1-.3 1.5zm145.5-81.1h-.1l-7.7 138.1c.4 0 .6 0 .9.2l75.3-114.8a3 3 0 0 1 -1.5-2.2c0-.4 0-1 .2-1.3l-64.3-22c-.5 1-1.5 1.7-2.8 1.9zm73 23.1 81.4 89.2c.4-.3 1-.5 1.5-.6h1.1l53-136.9c-.7-.3-1.3-.7-1.7-1.3l-134.3 46.6.1.4c.2 1-.3 2-1 2.6zm141.5-49.2c-.4.4-1 .7-1.5 1l39.2 129.5c1.4-.2 2.6.3 3.3 1.2l98.3-56.1-.4-1c0-.7.1-1.2.4-1.8zm146 74.2 151.4 17.2c.4-1.1 1.4-2 2.7-2.3l-12.2-74c-1.3 0-2.6-.5-3.3-1.5l-138.6 59.6.2.5v.5zm144.4-60.2c-.5.4-1 .8-1.8 1l12.2 74c1.7-.1 3.1.8 3.6 2.2l79-17.3h-.1c-.1-.8.1-1.4.5-2l-93.4-58zm211.2 125 28-4.8.3-1.3-137.1-56.7 108.9 62.8zm64.4 25.6h.5l-10.5-9.5zm58.7 52.1c.5-.4 1-.6 1.7-.7 1.5-.2 2.8.4 3.5 1.4l88.2-40-.2-.7v-.3l-149.3-10.7 56 51zm196.4 21.4 49.7 2.5.1-.6-145-61.5z" fill="#777fad"/><path d="m5.5 155.2 76.7-72.4 96 44.3" stroke="#777fad"/><circle cx="82.2" cy="83.2" fill="#777fad" r="3.2" transform="matrix(.9998477 .01745241 -.01745241 .9998477 1.46456 -1.421916)"/></g><path d="m254.8 55.4-26 33.5 42.2 10.6z" fill="url(#b)"/><path d="m760.9 42.8-3 37.4 34.7-7.7-31.6-29.7z" fill="#3a8dde"/><path d="m409.7 25.7-1.4 17 15.7-3.5z" fill="#194f90"/><path d="m109.7 59.1-1.4 17 15.7-3.5-14.3-13.6z" fill="#3a8dde"/><path d="m976.2 75.7-17-1.6 3.3 15.8z" fill="url(#c)"/></g></svg>