<svg fill="none" viewBox="0 0 2500 647" xmlns="http://www.w3.org/2000/svg" xmlns:xlink="http://www.w3.org/1999/xlink"><linearGradient id="a"><stop offset="0" stop-color="#3a8dde"/><stop offset="1" stop-color="#80c67d"/></linearGradient><linearGradient id="b" gradientUnits="userSpaceOnUse" x1="1956.9" x2="1901.7" xlink:href="#a" y1="259.4" y2="285.9"/><linearGradient id="c" gradientUnits="userSpaceOnUse" x1="509.8" x2="542.6" xlink:href="#a" y1="294.2" y2="242.6"/><linearGradient id="d" gradientUnits="userSpaceOnUse" x1="620.1" x2="598.4" y1="154.2" y2="174.4"><stop offset="0" stop-color="#3a8dde"/><stop offset="1" stop-color="#0090d0"/></linearGradient><clipPath id="e"><path d="m0 0h2500v647h-2500z"/></clipPath><g clip-path="url(#e)" opacity=".6"><g opacity=".6"><path d="m3237.6 196.5c-1.1.3-2.2.1-3.1-.3l-24.7 28.8c.4.3.8.8 1 1.4.6 1.7-.5 3.6-2.5 4.2-2 .7-4-.2-4.6-1.9v-.3l-176.6 19.6a3.7 3.7 0 0 1 -2.6 3c-1.5.6-3 .2-3.8-.7l-80.7 54.7c0 .2.3.3.3.6.6 1.6-.5 3.6-2.5 4.2-2 .7-4-.2-4.5-1.9l-.1-.8-130.5-.3a3.8 3.8 0 0 1 -2.5 2.7c-1.7.5-3.3 0-4.1-1.2l-131 62.6c.6 1.8-.6 3.7-2.5 4.4-2 .6-4-.2-4.6-2-.2-.6-.1-1.1 0-1.7l-98.5-24a4 4 0 0 1 -2.2 2c-1.7.6-3.3 0-4.1-1l-116.4 59.3v.2c.6 1.6-.5 3.6-2.5 4.2-1.7.6-3.5 0-4.3-1.4l-153.9 59c.4 1.7-.7 3.5-2.6 4-.8.4-1.8.4-2.6 0l-99.8 143c.6.3 1 .8 1.2 1.4.6 1.7-.5 3.6-2.5 4.3-2 .6-4-.2-4.6-2v-.5l-185.5 9.6a4 4 0 0 1 -2.6 2.8c-2 .7-4-.2-4.5-1.8-.2-.5-.2-1.1 0-1.6l-156.7-36.4c-.5.8-1.3 1.6-2.3 2-2 .6-4-.3-4.5-2a3 3 0 0 1 .3-2.5l-137.4-79.3c-.4.4-1 .8-1.6 1-2 .7-4-.2-4.5-1.9-.2-.3-.1-.6-.1-.8l-169.2-3.6a3.8 3.8 0 0 1 -2.5 2.6c-2 .6-4-.2-4.5-2-.6-1.6.5-3.6 2.5-4.2 1-.3 2-.3 2.8 0l55.3-79.2a3 3 0 0 1 -1.3-1.5c-.6-1.7.5-3.6 2.5-4.2 1.3-.5 2.7-.2 3.6.5l110.4-88.4c-.3-.2-.5-.4-.6-.8-.5-1.6.6-3.6 2.6-4.2 2-.7 4 .2 4.5 1.9.2.5.2 1 0 1.5l137.8 29.2c.4-.9 1.2-1.6 2.3-2 1.8-.6 3.6 0 4.3 1.5l158.3-55.3c-.3-1.6.7-3.3 2.5-3.9 1.3-.4 2.6-.2 3.5.5l126.2-107-.5-1c-.6-1.6.5-3.6 2.5-4.2 2-.7 4 .2 4.6 1.9v1.4l68.3 9.2c.3-1 1.2-1.9 2.4-2.3 1.5-.5 3 0 4 1l124.6-72.6-.2-.3c-.5-1.7.6-3.6 2.6-4.3 1.9-.6 4 .2 4.5 2 .2.5.1 1.1 0 1.7l152.8 45.4a4 4 0 0 1 2.2-1.7c1.4-.5 2.9-.1 3.8.7l126.6-86.2-.4-.5c-.5-1.7.6-3.6 2.6-4.3 1.9-.6 4 .2 4.5 2a3 3 0 0 1 -.1 2l104.3 39.4c.5-.6 1.2-1.2 2-1.5 2-.7 4 .2 4.7 1.9v1.5l150.5 30.3a4 4 0 0 1 2.3-2c2-.6 4 .2 4.6 2a3 3 0 0 1 -.4 2.6l37 22.6 151.8-18.5c.1-1.4 1-2.7 2.6-3.1 2-.7 4 .2 4.6 1.9.2.5.1 1 0 1.5l157.8 33.3a4 4 0 0 1 2.3-2c2-.6 4 .2 4.6 2 .4 1.5-.7 3.4-2.7 4zm-1740.8 308.3 169.2 3.6c0-.4.3-.9.6-1.2l-111.7-84.7c-.4.3-.9.6-1.4.7a4 4 0 0 1 -2.7 0l-55.3 79.2c.6.4 1 .8 1.3 1.5zm1225.2-381.9c-.3.5-.7.8-1.1 1.1l36.6 71c1.3 0 2.3.7 2.9 1.7l84.1-31.8zm-404.8 2.6-1.2.2-26 146.6c1 .2 2 .8 2.4 1.9l87.4-24c-.2-1.3.5-2.6 1.7-3.4l-64.2-121.3zm-131 76.2c-.5.2-1.2.2-1.8.1l-52.6 128.9c.8.3 1.3.8 1.7 1.4l151.9-55.8c-.2-.9 0-1.8.6-2.6l-98.3-72.8c-.4.4-.9.6-1.4.8zm-630.7 220.3 111.7 84.6 1.4-.8 1.2-.1 12-76.7c-1.3-.1-2.4-.8-2.8-2v-1l-123-5.2c0 .4-.2.8-.5 1.2zm259.2 166.8 79.2-90.5c-.4-.3-.8-.7-1-1.2l-86.8 23c.3 1.6-.8 3.2-2.5 3.8h-.3l9.2 64.5c.8 0 1.6 0 2.2.4zm353 27.8-25.7-104.3c-1.7.3-3.4-.4-4-2v-.1l-83.4 17.8c0 .8-.2 1.5-.7 2.2l112.7 87c.3-.3.7-.5 1.2-.7zm101.3-145v-.8l-63-9.6-61.3 46.1c0 .2.2.4.3.5zm664.7-166.2c.3-.6 1-1 1.6-1.4l-46.6-118.5-64.2 87.3zm91.8-60.3c.7.3 1.2.8 1.4 1.5l119.7-40-105 8.9-16 29.6zm121-39.3c.1-.5.3-1 .6-1.4l-72.4-43.8c-.5.4-1 .8-1.7 1a4 4 0 0 1 -2.3 0l-28.6 53 104.5-8.8zm1-2c.5-.4 1-.8 1.7-1 2-.7 4 .2 4.6 2v.3l6.7-1-80-40.7 67 40.5zm6.3 1.8v.3l11.7.8-4.2-2.2-7.4 1zm-165.2 16.4-1.5.9-1.4.2 30.2 19.4zm-6-1c-.3-.8-.2-1.6.2-2.3l-10.5-4.3zm6.3.6 32.1 24.4c.4-.4.9-.8 1.4-1 .8-.2 1.6-.2 2.4 0l15.9-29.4-51 4.4c-.1.6-.5 1.2-1 1.7zm212-12.1-32.4-2.2 13.1 6.6 19.3-4zm.1 1.2-18.2 3.9 21.9 11c.5-.4 1-.9 1.7-1.1h.3l-1.8-11.8c-1.7.2-3.4-.5-3.9-2zm-19.5 4.1-4.5 1 25 9.4zm-1.2-.6-13.8-7-12.7-.9-.2.5 22 8.4 4.8-1zm-27-6.9c-.4.7-1.1 1.4-2 1.7-1.9.6-3.7-.1-4.4-1.6l-116.9 38.9 144.8-30.9-21.4-8zm-168.9 16-1.8 3.3 33.4 17.2zm-.5-.3-16.4-10.6-67.5-28 82 42zm-343.9-64.7a4 4 0 0 1 -1.4 1.2l34 68.6 19.5-7 10.9-41zm-347.6 116.5c.1.7 0 1.5-.5 2.1l48.7 31.1 40.3-56a3 3 0 0 1 -1.1-1.3l-87.4 24zm-158.8 58v1.3l115.3 26 38-81.7c-.6-.3-1-.8-1.4-1.3l-151.9 55.8zm-327.8 186.4.2.3 86.8-23c-.2-1.3.4-2.5 1.5-3.2l-11.6-19.3-77 45.2zm465.7-51.3.8-.1-1-53c-.9 0-1.7-.3-2.3-.8l-30.5 22.9 32 31.6c.3-.3.6-.5 1-.6zm69.7-159.5 75 48.1-32.4-103.9c-.8.1-1.5.1-2.2-.1l-40.4 56zm-117 109.5 26.3-17.4-15.6-8.6-11.8 25.3c.4.2.8.4 1 .7zm.3.4.3.6v.2l43.1-7.4c0-.5.1-1 .4-1.4l-17.3-9.5-26.6 17.5zm44.4-8.7c.4-.5 1-1 1.6-1.1.4-.2.7-.2 1-.2l3-23-22.6 15zm23-39-14.3-3.3-2.1 16.6 16.9-11.2c-.2-.1-.3-.3-.4-.6v-1.5zm.4-.8a4 4 0 0 1 2.2-2h.5l-6.3-88.6-11 87.3zm.3 3.4-17.2 11.5-3 23.6c.2 0 .5 0 .7.2l20.5-34.7a3 3 0 0 1 -1-.6zm-75 48-125.8 21.4v.3l95.5 14.6 31.3-34.9a3 3 0 0 1 -.9-1.3v-.2zm2.6-4.1c.7-.3 1.4-.2 2-.1l12-25.5-101.5-55.8 86.5 82a4 4 0 0 1 1-.6zm-86.9-82 101.3 55.6 13.9-30-115.2-25.8v.1zm102 56 16 8.8 23.3-15.4 2.2-17.4-27.4-6.1-14 30.1zm41.6-24.8 11-87.6h-.1l-38.1 81.5zm13-87.8h-.5l6.3 89.2c.5 0 1 0 1.6.2l42.7-59.1-48.7-31.2c-.4.4-.9.7-1.5 1zm8 89.9c.5.3 1 .8 1.2 1.4v.7l120.1-4.5-2.5-8.2-76-48.6zm119.7-11 10.1 6.4 1-.6-41.6-103.3 30.5 97.4zm9 9.2v-.1l-6.1.2.5 1.6 5.7-1.7zm0-.8c0-.5.3-1 .5-1.3l-9.1-5.8 2.3 7.3zm9.6-11.5 59.9-108.8-2.4-4-4 .2zm262-13 28-68.8-39-18.4c-.5.6-1.2 1.1-2 1.4h-.2l11.5 87 1.6-1.3zm90.9-75.7-.5-.9c-.2-.4-.2-.8-.2-1.2l-5.8-.6 2.4 6.1 4-3.4zm-33-64-22.7 55.6 24 2.5 24 2.5-23.7-60.8c-.5.2-1 .2-1.6.1zm-68.5 52 38.9 18.2 5.8-14.2-44.6-4.6-.1.5zm-.2-3.2.4.8c.1.4.2.8.1 1.2l44.6 4.7 22.7-55.8a4 4 0 0 1 -1-.6zm94.9 11.9 6.3.6c.3-.8.8-1.4 1.6-2l-2.8-5.4-28-52.1zm-.6.5-24.3-2.5-24.3-2.5-5.9 14.4 34.4 16.2 22.7-18.9zm-54.7 10-27.5 67.2 61.5-51-34-16zm-109.1-24.2-35.3 12.6v.2l97-9zm-115.3-7.2 47 12.5-42.8-12.3zm-5.4 2.2c-.8-.4-1.3-1-1.6-1.7v-.6h-1l2 3.4zm-3-2.8 1.3-.2c0-.4.2-.9.5-1.3l-1.5-.7-1 1 .8 1.2zm.6-2.6v.1l1.4.8c0-.2.2-.3.3-.4zm8 2.3h.2zm6.6 1.3 66.4 19 .5-.6-17.1-15.3zm67.5 17.8a6 6 0 0 1 1.1-.6c.8-.3 1.6-.2 2.3 0l6.8-12.3-26.6-1.7zm4.2-.4c.5.3 1 .8 1.3 1.3l33.4-12-27.9-1.7zm-5.2 4.6-.4-.5c-.2-.7-.1-1.3 0-1.9l-73-19.6c-.4.6-.9 1.1-1.5 1.5l28.5 52.9zm-82.5-23-.6-1-.3.2a4 4 0 0 1 -2 .1l-.6 1zm1.6-3.2 2 .6.9-.4-1.1-3.3-1.9 1 .2.3c.2.6.1 1.2 0 1.8zm7.7 2.2 3 .9 52.5 3.3-26-23-29.8 18.1c0 .2.2.3.3.4zm117.2 8 60.9 4c.3-1 .8-1.7 1.7-2.1l-10.2-20.6-52.4 18.8zm63.3 1.5c.6-.2 1-.3 1.6-.2l7.1-27-18.8 6.7zm2.3 0c.6 0 1.1.3 1.6.7l66.8-49.7-.2-.4-60.9 21.8-7.3 27.5zm104.2 16.8-.3.2-4.1 3.6 13 33.4-5.9-36.5c-1 .1-2-.1-2.8-.7zm-234.5 77.4c.5-.1 1-.2 1.6-.1l21.1-78.2c-.6 0-1-.3-1.5-.7l-46.5 32.4 25.1 46.8zm-128.2 24.1-.2-.2-5.6 1.6.7 2 5-3.4zm-158.6 45.8-.4-.7v-.1l-43 7.3c0 .9-.5 1.7-1.2 2.4l14.1 14zm-81.7 44.9-95.2-14.6c-.2.5-.5 1-1 1.4l49.2 61.4.7-.4c1.1-.4 2.3-.2 3.1.3zm-47.5 48.5-49.3-61.4a4 4 0 0 1 -.7.4c-.7.3-1.4.2-2 .1l-19.7 45.2 70.7 16.8c.2-.4.6-.8 1-1.1zm-89.3 18.6c.7-.2 1.4-.2 2 0l14.7-33.7-75.3-18 57.5 52.3 1-.6zm-60.3-52-11.2-2.7c0 .2-.2.3-.3.5l-.1.1 65.5 51-53.9-49zm-16.2-6.5.7-.5h.6l.1-6.4-24.2-22zm2.3-.7c1.4.1 2.6.9 3 2.1l4.3-1-7.2-6.5v5.4zm3 2.8v.9l9.7 2.3-4.8-4.4-4.8 1.2zm-79.8 24.2c.4.3.7.7.9 1.1l66.2-22c-.4-1.6.6-3.4 2.5-4 1.1-.4 2.2-.2 3.1.3l.3-.4 1-1.1-23-29.4-.8.4c-1.1.4-2.2.3-3.1-.2zm85.6-25.6 5.5 5 77 18.4 19.6-45.2c-.9-.3-1.6-1-2-1.9l-100 23.7zm400.3-215.4 44.6 110.7c.6-.2 1.3-.2 1.9 0l57.4-121-101.8 7.6c0 1.1-.9 2.1-2 2.7zm174.7-8.1 28.1 1.7 47.4-86.1-1-.7-101 61.5zm78.4-84.2c-.8.3-1.6.2-2.3 0l-47.2 86 29.4 1.8 54.2-19.4-34-68.5v.1zm120.8 41 14 26-13.5-26.2-.5.3zm36.4 60.6.6.9c.2.6 0 1.2-.1 1.8l21.2 6.3 23.4-46.5zm2.5 42.1-13-33.2-21.5 18.7 33.2 15.6c.3-.5.8-.8 1.3-1zm-98.7 38-.6 1.4c.3 0 .6.3.8.4l62.6-54zm-6 4 .3-.3.5-1-23.3-16.5-3.5 18 26-.1zm1.3-1.9 1.4-.8h.3l-11.5-87.3h-.3l-13.6 71.2 23.7 17zm-10.9-88.2c-.6 0-1.2-.3-1.6-.7l-55.2 40.6 43.4 31zm-2.1-1.3-.4-.6v-.6l-98 9c-.1.7-.4 1.3-.7 1.8l43.7 31.2zm-99.7 10.1-.1.2 30.4 40.7 13.3-9.7zm-.9.6-.5.2c-.5.2-1.1.3-1.6.2l-21.2 78.1c.6.2 1.1.4 1.5.8l52.3-38.5zm-51.3 32.5-1.2.8 18 30.6zm-.5-.8-28.5-53-.1.1c-.6.2-1.2.3-1.8.2l-.9 2.3 30.2 51.2 1.2-.8zm-31.7-49.4-38.5 98.4 68.4-47.6-29.9-50.7zm-.8-.6-64 116.5.6.5 24.4-17zm-68.8 121.7-5.4 3.6 10.7 34.2-2.5-37c-1.1.2-2.1-.1-2.8-.8zm-6.5 3.3-.7-2.4-63.8 18.4 28.6 8zm-1-3.1-.5-1.8-120.3 4.5-.1.3 56 15.7 65-18.7zm-121.2 3.8a4 4 0 0 1 -2.2 1.8l-1.4.2-7.5 32.2 66-19-55-15.2zm-4.3 1.8-.5-.1-20.5 34.6a3 3 0 0 1 1.5 1.6l12-3.5zm-19.4 36.8v.2l11-.2.7-3.3zm0 1a3.9 3.9 0 0 1 -2.5 2.7l-.7.1.9 53h.2l12.8-56zm-37.6 24.7-14.1-14c-.3.3-.7.5-1 .6-1.2.4-2.3.2-3.2-.3l-31 34.7 17.8 2.7zm-50 21.8-43.3 48.2 60.8-45.6-17.6-2.6zm-49.6 50.4-70.8-17-14.5 33.7c.8.3 1.5 1 1.9 1.8v.2l83.4-17.8v-1zm-89.8 17.9-70.5-55c-.4.6-1 1-1.7 1.2l-.6.1.3 39 72 15.3zm-73.6-53.5c-.7 0-1.2-.2-1.7-.5-.5.8-1.3 1.4-2.3 1.8-1.8.6-3.7-.2-4.4-1.7l-66.1 22v1.3l74.7 15.9-.3-38.8zm-79.4 19.6.3-.1c1-.4 2.1-.2 3 .3l47.2-55.4-.4-.3-61.7 36.3zm55.7-55.8 24 21.9.5-22-23.7-1.3c-.1.5-.4 1-.8 1.4zm25 22.7 8.1 7.4 100.7-23.8c0-.2-.1-.3 0-.4l-108.4-6zm115.9-18.1v.1l126-21.4c0-.8.3-1.5 1-2.2l-86.6-81.9c-.3.3-.6.5-1 .6-.7.2-1.3.2-2 .2l-39.4 102.7a3 3 0 0 1 2 1.9zm397.3-200.4.6-1.3a3 3 0 0 1 -1.7-1.8v-.5l-89.5 10.4zm5.4-6.3 2-1.1-19.1-57.5 13.7 57.5c1.4-.3 2.7.1 3.4 1zm-17.6-62.1 20.2 60.7 30.4-16.8-49.8-44.4zm20.4 61.4 1.1 3.4c1.4-.4 2.8 0 3.7.9l29.7-18-3.6-3.3zm35.2-14.2 89.2-54.3-92.8 51.1zm160.5.8 60.3-21.7c0-.5 0-1 .2-1.6l-49.8-17.2zm60.8-24c.3-.5.9-.9 1.4-1.2l-32.5-65.8-2.8-5.4-1.5.3-14.6 55 50 17.2zm2-1.5h.1l.5-.1-15.2-29.6zm4 4.7 31.3 60.5c1-.3 2-.2 2.8.1l56.7-74.2-90 11.8c0 .6-.3 1.2-.7 1.8zm34.7 61h.1l46.4-38.6 18.7-37.3-8.1 1-57 74.9zm80.7-104.7-7.8 15.5 18.2 6.3-8.6-21.8zm-8.2 16.3-5.8 11.7 25.5-3.4-.7-1.8zm20.7 8.2h.4l.1-1-1-.3zm4.7 3c-.9.1-1.7 0-2.4-.2l-.8 1 37.7 95.7-34.5-96.6zm-3.1-.6v-.1l-.5.3v.3zm-.6-.6c-.2-.2-.5-.5-.6-.8v-.4h-.1l.5 1.4zm-1.7-1-26.2 3.4-18.1 36 45-37.6-.7-1.9zm-27 2.8 6.2-12.1-3.2-1.1-10.9 14.2 8-1zm6.6-12.9 7.4-14.7-10.4 13.7zm20.2 7 1.8.6c.4-.5.8-1 1.3-1.2l-11.3-20.2 8.2 20.7zm-70.4 92.7-21-6.2a4 4 0 0 1 -2.3 1.6h-.3l6 36.6h1.4zm-149.6 75.3-4.3 22.6c.6 0 1 .3 1.5.6l28-23.3zm-235 59.9-10.5-34-35 23.4 43.8 12.2a4 4 0 0 1 1.8-1.6zm-161.7 62.4-32-31.7-31 23.4 62.2 9.5c.2-.5.4-.8.8-1.2zm-456-107.8-.7.1-10.2 156.5c.9 0 1.7.4 2.3 1l76.9-45.2-68-112.5zm1080.4-178.4a4 4 0 0 1 -1.3 1l43 120.2c.7-.2 1.4-.2 2 0l43.4-76.7-87-44.5zm-6.2 2.1-.2-.5-46.2 38.4-24.3 48.3 6 1.8zm-71 87-15.4 30.6 21.3-29-5.9-1.7zm-21.6 35.9c-.3-.7-.1-1.5.3-2.2l-33.4-15.7-62.9 54.3c.2.1.2.3.3.5zm-102.5 39-22.6 18.8 23.1-17.3-.5-.8zm-32.6 22.7c.4-.2.8-.2 1.3-.2l4.2-22.5h-23l17 23 .6-.3zm5.7-23.4 3.5-18.6-44-31.3-13.4 9.9 30 40zm-54.6-39.5-52.2 38.4.4.7v.8l81.5-.4zm-57.3 37.7-26.8-45.4-69.3 48.4-6 15.2 100.5-15.4c0-1 .5-2 1.6-2.8zm-97.5 4-23.3 16.3c0 .2.2.3.3.5v.4l17.3-2.7zm-22.9 17.7c0 1.4-1 2.8-2.6 3.3h-.6l2.6 37h.8l16.8-43zm-4 43-44.5-12.4-20.3 13.5 64.7-.9v-.2zm-45.6-12.7-29.1-8-67.7 19.3-.8 3.6 76.9-1zm-97.8 15.7-12.9 56.1c.7.1 1.3.4 1.7.8l87-58zm-239.2 116.5-71.7-15.2 1 113.2 1.3.3 70.6-95.3a3 3 0 0 1 -1.2-1.5zm-72.2 98.2.6-.1-1-113.5-75-16c-.3.6-.7 1-1.3 1.5l76.5 128.2zm-175.5-107.5-114.8-90.9c-.3.3-.8.6-1.3.7-.4.2-.8.2-1.2.2l-12 76.6c1.2.2 2.3 1 2.7 2 .1.5.2.8.1 1.2l126 11.3c0-.4.2-.8.5-1zm-114.2-91.5 114.7 90.8 1.3-.7h.8l10.2-156.5c-1 0-1.9-.5-2.4-1.2l-124.1 64.5.1.2c.3 1 0 2-.6 3zm129.7-67.1 68 112.5 61.7-36.3-.2-.3a3 3 0 0 1 .3-2.6l-129.2-73.7-.6.5zm136.5 73.5.1 1 23.6 1.3 2.4-131.8-28.5 127.5c1.1.3 2 1 2.4 2zm27.7-130.7h-.6l-2.4 133 108.4 6c.3-1.1 1.2-2.1 2.4-2.6.7-.2 1.3-.2 1.9-.1l39.5-102.7c-1-.4-1.7-1-2-1.9-.2-.5-.2-1 0-1.6l-145-32a4 4 0 0 1 -2.2 1.9zm407.6-54.5 101-11.6c0-1.4 1-2.7 2.6-3.2l-14.4-61c-1.1.3-2.2 0-3-.5l-86.9 74.9c.3.3.5.6.6 1 .1 0 0 .3 0 .4zm91.4-77 50 44.5 105.3-58-.2-.2v-.5l-154.1 12.4c-.1.7-.5 1.3-1 1.8zm162-14 62.8 21.6 14.5-54.8c-.8-.2-1.5-.7-2-1.5l-75.2 32.6c.3.7.2 1.4-.1 2zm120.2 39.6v.2l90.6-11.9 11-14.6-16.8-5.8zm102.3-27 11.1-14.6c-.4-.3-.6-.6-.8-1l-26.4 10 16.1 5.5zm15.2-14.5 12.3 22 .3-.3c2-.6 4 .2 4.6 1.9v.3l18.1-2.2-34.5-22.2zm17.3 24.8c0 .3-.1.7-.3 1l69.5 28.9-50-32.3zm94.3 38.5 51.6-4.4 28.8-53.2-.9-.6-80 57c.2.2.4.4.4.7v.5zm172.2-15.2 19.7-2.8-102.7-39.4zm.8.4 4.9 2.5 33.4 2.3.2-.5-18.6-7.1zm38.8 3.6a4 4 0 0 1 2-1.5c1.7-.5 3.4 0 4.2 1.3l25.6-12.9-.2-.3v-.4l-49 7.1zm-232.2 4.6 12.7 5.3-65.4-39.8h-.7zm264.2-17.4-25.6 12.9.2.3c.6 1.7-.6 3.6-2.5 4.3h-.4l1.9 11.8c.9-.2 1.7 0 2.4.4l24.7-28.9zm-29.4 31.4-28-10.5-144.2 30.7 171.9-19.2zm-183.8 20.3-38.1-19.5-43.3 76.6c.3.2.6.3.8.6l80.7-54.7-.4-.6c-.2-.8-.1-1.6.3-2.4zm-86.9 59.4-109.4-32.7-22.3 30.4c.5.3 1 .8 1.1 1.4l.1.8 130.5.3zm-233.1 38.8c.5 1.6-.6 3.5-2.5 4.1-1.5.5-3 .2-3.8-.8l-29.2 21.8-.1.1v.2l126.7-60.6zm-41 24.8-17.4-23.2-82 .4v.1l98.4 24c.3-.5.6-1 1-1.3zm-106.5-22.3-100.9 15.5-16.9 43.2c.6.2 1 .6 1.4 1.1l116.4-59.3v-.2l-.2-.3zm-123 62.2-65.8 1-88 58.6 153.8-59zm-160.6 62.6-124 36.2c.2 1.5-.8 3-2.4 3.7l25.8 104.2a4 4 0 0 1 2 .1l99.7-143c-.5-.3-1-1.2-1-1.2zm-103.1 145.5-112.7-87-1.3.8a4 4 0 0 1 -2.8 0l-70.6 95.2c.5.4 1 .9 1.2 1.5v.5l185.5-9.5c0-.5.3-1 .7-1.5zm-191.8 9.1-76.5-128.2-.2.1c-1 .4-2.2.3-3-.2l-79.2 90.5c.4.3.8.7 1 1.2.1.5.1 1 0 1.6l156.6 36.3c.3-.5.7-1 1.3-1.3zm-162.5-38.4h.3l-9.3-64.6c-1.6.2-3.3-.6-3.7-2-.1-.4-.2-.8-.1-1.2l-125.9-11.2-.2.7 137.3 79.3c.4-.4 1-.8 1.6-1zm-255.7-168.5 122.9 5.3a3.8 3.8 0 0 1 2.5-2.6h.2l-13.1-92.3c-1 .1-2-.1-2.7-.7l-110.3 88.5.5.8zm113.4-89.7h-.2l13 92.3c1.3-.2 2.5.3 3.2 1.2l124-64.6v-.2c-.2-.5-.2-1 0-1.5l-137.7-29.2c-.4 1-1.2 1.7-2.3 2zm146.8 29 129.2 73.8c.4-.5 1-.9 1.6-1.1a5 5 0 0 1 1.3-.2l28.7-128.5a3 3 0 0 1 -2.1-1.6l-158.2 55.3c0 .8 0 1.6-.4 2.2zm165.5-58.8 145 32.1a4 4 0 0 1 2.2-2h.2l-19.3-139c-1 0-1.8-.1-2.4-.6l-126.2 107 .5.9c.1.6.1 1.1 0 1.6zm129-109 19.2 139h1l52.5-128.8a3 3 0 0 1 -1.9-1.9 3 3 0 0 1 0-1.4l-68.3-9.2c-.3 1-1.2 1.9-2.4 2.3zm77.3 8.8 98.3 72.9c.4-.3.8-.6 1.4-.8.4-.2.7-.2 1.1-.2l26.1-146.6c-.8-.1-1.4-.5-2-1l-124.4 72.4.2.4c.4 1 .1 2-.5 2.8zm131.2-76.5c-.3.5-.8 1-1.3 1.2l64.2 121.4c1.4-.5 2.6-.2 3.6.4l86.8-74.9a3 3 0 0 1 -.5-1c-.3-.5-.2-1.1 0-1.7zm159.9 45.3 154-12.4c.2-1.1 1-2.2 2.3-2.7l-26.6-71.4c-1.3.4-2.7 0-3.6-.7l-126.4 86.1.4.5v.5zm132-88c-.4.5-1 1-1.7 1.3l26.6 71.3c1.6-.4 3.3.2 4 1.5l75.2-32.6a3 3 0 0 1 .1-2l-104.1-39.6zm234.5 83.3 27-10.3v-1.3l-147.5-29.8 120.6 41.4zm69 13 .7-.1-12.4-7.5 11.8 7.6zm68.7 40.3c.4-.4 1-.8 1.5-1 1.5-.5 3-.2 3.8.7l80-57-.4-.6v-.3l-150.7 18.4zm199.6-16.9 50-7.2v-.6l-156.3-33z" fill="#777fad"/><path d="m1810.8 361 62.1-87 104.3 25.4" stroke="#777fad"/><circle cx="1873" cy="274.3" fill="#777fad" r="3.3" transform="matrix(.98480775 -.17364818 .17364818 .98480775 -19.176617 329.41027)"/></g><path d="m-200 419c1-.6 2.1-.7 3.1-.4l17-34a3 3 0 0 1 -1.3-1c-1-1.5-.3-3.6 1.4-4.7 1.8-1.1 4-.8 5 .7v.4l166.8-61.4c-.2-1.4.4-2.8 1.8-3.6 1.3-.9 2.8-.9 4-.2l65.1-72.4-.4-.5c-1-1.5-.4-3.6 1.4-4.7 1.7-1.1 3.9-.8 4.8.7.2.2.2.5.3.8l126.7-31c0-1.1.7-2.4 1.9-3.2 1.4-.9 3.2-.8 4.2.2l112.2-92.2c-1-1.5-.3-3.7 1.4-4.8 1.7-1 4-.7 5 .8.2.5.3 1 .3 1.7l101.3-.4a4 4 0 0 1 1.8-2.4c1.4-1 3.1-.8 4.2 0l98.8-85.4-.1-.2c-1-1.5-.3-3.6 1.4-4.7 1.6-1 3.4-.8 4.5.3l135.3-94.2c-.7-1.5-.2-3.5 1.5-4.5.8-.5 1.7-.7 2.6-.6l62.6-162.7c-.6-.2-1.1-.5-1.5-1.1-1-1.5-.3-3.6 1.4-4.7 1.8-1.1 4-.8 5 .7l.1.6 177.8-53.9a4 4 0 0 1 1.8-3.4c1.8-1 4-.7 4.9.8.3.4.4 1 .4 1.5l160.8-2.2c.2-1 .8-1.8 1.7-2.4 1.8-1.1 4-.8 5 .8.4.7.5 1.6.2 2.5l152.3 44.1c.3-.5.7-1 1.3-1.4 1.7-1 4-.8 4.9.8l.3.8 165-37c0-1.2.7-2.4 1.8-3.2 1.8-1 4-.7 5 .8.9 1.5.3 3.6-1.5 4.7a4 4 0 0 1 -2.7.6l-34.7 90.2a3 3 0 0 1 1.6 1.1c1 1.6.3 3.7-1.4 4.8-1.2.7-2.6.8-3.6.3l-86 112.3.7.6c1 1.5.3 3.6-1.5 4.8-1.7 1-3.9.7-4.8-.8a3 3 0 0 1 -.5-1.5l-140.6 4.7c-.2 1-.8 1.8-1.8 2.5-1.6 1-3.5.7-4.5-.5l-140.5 91.8c.7 1.4.1 3.3-1.5 4.3-1.1.7-2.4.8-3.5.4l-96.8 134.2.7.7c1 1.5.3 3.6-1.4 4.7-1.8 1.1-4 .8-5-.7a3 3 0 0 1 -.4-1.3l-68.4 7.3c-.1 1-.7 2.2-1.8 2.9-1.4.8-3 .7-4 0l-103.8 100.3.3.3c1 1.4.3 3.6-1.5 4.7-1.7 1-3.9.8-4.9-.8-.3-.5-.4-1.1-.3-1.7l-159.3-7.5a4 4 0 0 1 -1.7 2.2c-1.3.8-2.8.8-3.9.2l-102.1 114 .4.4c1 1.6.4 3.7-1.4 4.8-1.7 1-4 .8-4.9-.8a3 3 0 0 1 -.3-2l-110.8-13.3c-.3.8-.8 1.5-1.6 2-1.7 1.1-4 .8-5-.8-.2-.4-.3-.9-.3-1.4l-153.4 6.6a4 4 0 0 1 -1.8 2.5c-1.7 1-4 .8-4.9-.8a3 3 0 0 1 -.2-2.7l-41.4-13-143 54.3c.3 1.4-.3 2.8-1.7 3.7-1.7 1-4 .7-4.9-.8-.3-.5-.4-1-.4-1.5l-161.1 5.5a4 4 0 0 1 -1.7 2.5c-1.8 1-4 .7-5-.8-.7-1.4 0-3.5 1.7-4.6zm1616.2-716.2-165.1 37c0 .4-.1.9-.3 1.3l128.7 55.4c.3-.4.7-.8 1.1-1 .9-.6 1.9-.8 2.7-.6l34.7-90.2a3 3 0 0 1 -1.6-1.1l-.3-.8zm-1098 664.1c.2-.5.6-.9 1-1.3l-52.6-60.2c-1.3.3-2.5 0-3.2-1l-74.1 51.1 129 11.4zm392.5-99.5 1-.4-9.7-148.6c-1.2 0-2.3-.3-3-1.2l-79 44.2c.5 1.2.2 2.6-.9 3.7l91.5 102.4zm108.8-105.3c.6-.3 1.2-.5 1.8-.5l20.2-137.8c-.8 0-1.4-.4-2-1l-134 90.6c.3.8.3 1.8 0 2.7l112.8 47.1c.4-.4.7-.8 1.2-1zm559.6-364.8-128.7-55.5c-.3.5-.7.8-1.1 1.1l-1.2.5 6.7 77.2c1.3 0 2.5.3 3.2 1.4.2.2.2.6.3.9l120.6-24.3c0-.5 0-1 .2-1.3zm-291.6-99.9-55.2 106.8c.5.2 1 .5 1.2 1l78.8-43.2c-.6-1.5 0-3.3 1.6-4.3h.3l-24.5-60.5c-.8.3-1.5.4-2.2.2zm-349.5 57.5 50 95c1.7-.7 3.5-.3 4.3 1l.1.2 76.8-37.3c-.3-.8-.2-1.5 0-2.3l-130.1-57.4-1 .8zm-63.5 165.1.2.7 63.4-5.7 48.6-59.5c-.2 0-.4-.2-.5-.4zm-605.5 320.5a4 4 0 0 1 -1.3 1.7l73.8 103.8 41.3-100-113.7-5.5zm-74.7 80.5c-.7-.1-1.3-.5-1.7-1l-106.6 67.2v.1l99.9-33.8 8.4-32.6zm-108 67.2c0 .5 0 1-.3 1.5l80.9 25.2a3.8 3.8 0 0 1 3.6-2.1l15-58.3-99.3 33.7zm-.6 2c-.3.6-.7 1.1-1.3 1.5-1.7 1-4 .8-4.9-.8l-.1-.4-6.3 2.6 87.3 20.4zm-6.5-.1v-.3l-11.6 2 4.6 1.1zm156.6-55.5c.3-.5.6-.9 1.2-1.2.4-.3.8-.4 1.2-.5l-33.9-11.7zm6-.5c.4.7.5 1.5.4 2.3l11.1 1.7zm-6.3.9-37-15.8c-.4.5-.7 1-1.2 1.2-.8.5-1.5.6-2.3.6l-8.4 32.4 48.5-16.5c0-.6.1-1.3.4-1.9zm-202.9 62.6 32-5.7-14.3-3.3-17.8 8.6zm-.4-1.2 16.8-8-24-5.6c-.3.6-.7 1.1-1.4 1.5l-.3.2 4.7 11c1.6-.7 3.4-.4 4.2 1zm18-8.6 4-2-26.4-3.2 22.3 5.2zm1.2.3 15.1 3.5 12.6-2.2v-.6l-23.3-2.8-4.4 2zm27.9.2c.2-.8.8-1.6 1.6-2.1 1.7-1 3.6-.8 4.6.5l104.2-65.7-133.2 64.5zm160.1-56 1-3.6-36.5-8.7 35.6 12.3zm.6.2 18.5 6.3 72.2 11-89.6-21-1 3.7zm349.3-19.5c.2-.6.6-1 1-1.5l-49.3-58.5-17.2 11.5-.7 42.4 66.3 6.1zm309.7-196.4c-.3-.7-.3-1.4-.1-2.2l-54.7-18.4-25.8 64c.5.2 1 .5 1.4 1l79-44.3zm140-94.4-.3-1.2-118 2.4-17.5 88.4c.7.1 1.3.5 1.7 1l134.1-90.6zm273.6-259.5-.2-.2-78.8 43.2c.5 1.1.2 2.4-.7 3.4l16 16zm-439.6 161.4c-.2.2-.5.2-.7.3l13.6 51.2c.8-.2 1.7-.1 2.5.2l24-29.5-38.5-23-1 .8zm-29.5 171.5-84.5-28.7 56.5 93.1c.7-.3 1.4-.4 2.1-.4zm87.3-134.3-21.3 23.2 17.1 4.6 5.4-27.4c-.4 0-.9-.2-1.2-.4zm-.4-.4-.5-.5-40 17.4v1.5l19 5 21.5-23.3zm-41 19.2c-.3.5-.7 1-1.4 1.5l-.9.4 2.7 23 18.4-19.9zm-13 43.4 14.7-.3-2-16.6-13.7 14.9.5.5c.3.5.4 1 .4 1.5zm-.2.8a4 4 0 0 1 -1.7 2.4l-.4.2 27.3 84.5-10.2-87.4-15 .3zm-1.2-3.2 14-15.1-2.6-24h-.7l-11.7 38.8c.4 0 .7.2 1 .4zm61.3-64.5 117.2-51-.1-.3-96.4 8.7-22 41.4c.4.3.9.6 1.2 1v.2zm-1.5 4.6c-.6.4-1.3.5-2 .5l-5.3 27.6 111.8 29.9-103.6-58.8zm104.2 58.8-111.7-29.8-6.4 32.4 118-2.4v-.2zm-112.6-30-17.7-4.7-18.7 20.5 2 17.4 28-.6 6.5-32.6zm-34.4 34 10.2 87.8h.2l17.6-88.4zm8.5 88.3.4-.1-27.5-85-1.6.2-27.3 67.6 54.7 18.6c.4-.5.7-1 1.3-1.3zm-29.5-85.2a3 3 0 0 1 -1.5-1.1l-.2-.7-115.5 33 4.4 7.5 85.5 29 27.4-67.8zm-113.4 39.3-11.6-3.8-.7.8 65.2 90.3-53-87.3zm-11-6.8v.2l6-1.8-1-1.3zm.2.8c0 .5 0 1-.2 1.3l10.3 3.5-4-6.6zm-6.6 13.6-32 120 3.2 3.3 3.8-1.3zm-251.2 75.3-10.7 73.4 42.3 8.5a4 4 0 0 1 1.5-1.7l.2-.1-32-81.8zm-70 95.2.7.7.4 1.2 5.8-.8-3.7-5.4zm47.3 54.3 8.7-59.5-23.9 3.4-24 3.3 37.7 53.3c.5-.3 1-.4 1.5-.5zm54.1-66.9-42.1-8.5-2.2 15.2 44.3-6.2zm1 3-.7-.7-.4-1.2-44.3 6.2-8.8 59.6 1.2.3 53-64.3zm-95 11.2-6.4.9c0 .8-.4 1.6-1 2.2l4 4.7 39.8 43.9zm.4-.7 24.2-3.4 24.2-3.3 2.2-15.5-37.2-7.4-17.5 23.7 4.1 6zm50.7-22.8 10.6-71.8-47.4 64.3zm111.8-2.6 31.1-20.7v-.2l-92 32 60.6-11.1zm113.6-20.6-48.7-1 44.6 1.8zm4.8-3.5c.7.2 1.4.6 1.8 1.3.2.2.2.4.2.6l1-.3-2.7-2.8zm3.4 2-1.1.5c0 .5 0 1-.2 1.4l1.6.4.8-1.2-1-1zm.1 2.7v-.2l-1.5-.3-.3.5zm-8.3-.3h-.2zm-6.7.3-69-2.6c0 .3-.2.5-.3.8l20.3 10.7zm-69.8-1.1a6 6 0 0 1 -1 .8 4 4 0 0 1 -2.2.6l-3.6 13.6 26.2-4.8zm-4 1.3c-.6-.1-1.1-.4-1.5-.9l-29.6 19.7 27.5-5 3.7-13.8zm4-5.7.5.5c.3.6.4 1.2.3 1.8l75.8 1.6c.1-.7.5-1.2 1-1.8l-40.4-44.5-37.2 42.5zm85.6 2.6.8.8.2-.2a4 4 0 0 1 2-.6l.3-1.1zm-.8 3.5h-2.2l-.6.5 1.8 3 1.6-1.5c-.1 0-.2 0-.2-.2-.4-.5-.5-1.2-.4-1.8zm-8-.3-3-.1-51.9 9.3 30.7 16.2 24.6-24.8-.3-.3zm-115.7 20.3-60 10.8c-.1 1-.5 1.8-1.2 2.4l14.7 17.6 46.4-30.8zm-61.8 13.7h-.1c-.4.4-1 .6-1.4.7l-.4 27.9 16.6-11.1zm-2.3.7c-.6 0-1.1-.2-1.6-.4l-53 64.3.3.3 53.9-35.8zm-105.2 8.4.2-.2 3.1-4.5-20.7-29.3 14.6 34c1-.3 2-.3 2.8 0zm209-131.3c-.4.3-1 .5-1.5.6l-1.8 80.9c.7 0 1.2 0 1.7.3l37.4-42.5-35.6-39.4-.2.2zm118.8-54 .3.2 5-3-1.1-1.8zm143-82.4.6.5v.2l40.1-17.5c-.2-.8 0-1.7.5-2.5l-17-10.3zm68.6-63.3 95.8-8.6c.1-.6.3-1.2.7-1.7l-62.5-47.7-.6.5c-1 .7-2.1.8-3 .5zm34.4-58.4 62.6 47.7.6-.5c.6-.4 1.3-.6 2-.6l8.2-48.6-72.7.6c-.1.5-.4 1-.7 1.4zm82.2-39.5c-.6.4-1.3.5-2 .6l-6 36.1 77.3-.6-68.3-37zm71 36h11.5c0-.2.2-.4.3-.5v-.2l-75.8-33.9 64 34.7zm17.4 2.5-.7.6-.5.2 1.4 6.2 28.8 15.6zm-2.2 1.2c-1.3.2-2.7-.3-3.4-1.4l-4 2 8.6 4.7zm-3.6-2-.2-.9-9.9.1 5.7 3.1 4.4-2.2zm71.8-42.6c-.5-.3-.9-.5-1.2-.9l-59 37.2c.8 1.5.2 3.5-1.5 4.5-1 .7-2 .7-3 .5l-.2.4c-.2.5-.4 1-.8 1.4l29.5 23 .6-.6c1-.7 2-.8 3-.5zm-77 45.3-6.6-3.5-79 .6-8.2 48.6c1 0 1.8.5 2.3 1.3zm-337 305-70-96.5c-.5.3-1.2.4-1.8.5l-26.7 131.2 97-31.8c-.2-1.1.4-2.3 1.3-3.2zm-167.7 49.8-27.7 5-25.3 95 1 .5 83.3-84zm-56 100.5c.8-.5 1.6-.6 2.3-.6l25.3-94.8-29 5.3-48 31.8 49.5 58.5v-.1zm-127-11-19.9-21.6 19.5 22.2.3-.3zm-49.9-49.8c-.3-.2-.6-.4-.7-.7-.4-.5-.5-1.2-.4-1.8l-22-1-11.7 50.8zm-12.5-40.3 20.5 29.2 16.5-23.3-36-7.2c-.2.5-.6 1-1 1.3zm86.7-60.5.2-1.4-.8-.3-47.8 67.4zm5-5.4-.4.4c0 .4 0 .7-.2 1l26.6 10.6-1-18.3zm-1 2.2-1.1 1.1-.3.1 32.1 82h.3l-3.9-72.5-27-10.7zm31.8 83c.6 0 1.2 0 1.7.3l43.9-52.6-49.6-19.7zm2.4.8.5.5.2.5 93-32.2c-.2-.6 0-1.2.2-1.8l-50-19.8-44 52.8zm94.3-33.7v-.2l-39.3-32.2-10.5 12.6zm.7-.7c.2-.2.3-.4.5-.4l1.5-.6 1.8-80.9c-.6 0-1.1 0-1.6-.3l-41.6 49.8 39.4 32.3zm42.1-44 1-1-25-25.4 24 26.5zm.6.7 40.4 44.6c.6-.4 1.2-.6 1.8-.6l.3-2.5-41.6-42.6-1 1zm42.6 40.4 13.8-104.8-55 62.7zm1 .4 34.2-128.5-.7-.2-19.6 22.3-14 106.4zm37.5-134.9 4.4-4.7-18.6-30.6 11.3 35.3c1-.4 2-.3 2.9.1zm5.5-4.7 1.3 2.1 57.5-33-29.7-1-29 31.9zm1.7 2.8 1 1.6 115.7-33.1v-.4l-58.1-1.7-58.5 33.7zm116.8-32.7a4 4 0 0 1 1.7-2.3l1.4-.5-.6-33.1-59.5 34.2zm3.7-2.8h.5l11.7-38.6a3 3 0 0 1 -1.8-1.1l-10.8 6.2.5 33.5zm10-40.4v-.2l-10.6 3v3.5l10.6-6.1zm-.2-1c0-1.2.6-2.4 1.8-3.2l.6-.3-13.5-51.2h-.2l1 57.5zm30.6-33 17 10.2 1-.8c1-.6 2-.7 3-.5l21.8-41-17.9 1.6-25 30.5zm43.4-33 30.4-57.3-48 58.8 17.6-1.6zm36-60.9 72.7-.5 6.1-36.1c-1-.2-1.7-.6-2.3-1.4v-.1l-76.7 37.2.2 1zm82.9-38.9 81.6 36.4c.3-.5.7-1.1 1.4-1.5l.5-.2-9.7-37.9-73.5 2.5zm84.3 34.3a4 4 0 0 1 1.8 0c.2-.8.8-1.6 1.7-2.2 1.6-1 3.7-.8 4.7.6l59-37.3c-.3-.3-.4-.7-.3-1.2l-76.4 2.5zm72.3-38-.2.1c-1 .7-2 .8-3 .5l-32.6 65c.2 0 .3.2.5.3l51.2-50-15.9-16zm-40.7 67.5-28.5-15.4 5 21.4 23.2-4.4c0-.5.1-1 .4-1.5zm-29.7-16-9.6-5.3-92 47.2c0 .2.1.3 0 .4l106.8-20.1-5.1-22.2zm-108 45.3v-.2l-117.2 51c.1.8 0 1.6-.4 2.4l103.5 58.7 1-.8c.5-.3 1.1-.5 1.7-.6l13.7-109a3 3 0 0 1 -2.3-1.3zm-337.9 289.9-.2 1.3a3 3 0 0 1 2 1.3l.2.5 84.4-31.4zm-3.7 7.4-1.7 1.5 32.4 51.3-27-52.6c-1.4.6-2.7.5-3.7-.2zm32 56-34.1-54-25.6 23.5 59 31.2zm-34.5-54.7-2-3c-1.2.7-2.7.6-3.7 0l-24.5 24.6 4.3 2.3 25.9-24zm-30.8 22.2-73.5 74 77.7-71.8zm-155.9 37.7-53.4 35.4c.2.6.3 1 .2 1.7l52.5 4.8.7-42zm-53.3 37.8c-.2.6-.6 1-1 1.6l47.3 56 4 4.6c.4-.3.9-.5 1.4-.6l1-56.9zm-1.6 2h-.1l-.4.2 21.9 25zm-5-3.6-44.8-51.3c-1 .6-2 .7-2.9.6l-37.1 85.6 84.5-33c-.1-.6 0-1.3.3-2zm-48.3-51h-.1l-35.8 48.8-9.3 40.7 7.6-3 37.5-86.3zm-53.3 121 3.9-16.9-19.1-1.7 13.5 19.1c.5-.3 1.2-.4 1.7-.4zm4.1-17.8 2.9-12.7-24 9.4 1 1.6zm-22-3-.4.2v.8l1.1.2-.7-1.1zm-5.3-1.7c.8-.4 1.6-.6 2.4-.5l.5-1.1-59.5-83.9zm3.1-.2h.1l.4-.4-.2-.2zm.8.4.7.7.1.3h.2l-1-1.2zm1.9.6 24.6-9.6 9-39.3-34.8 47.3zm25.4-9.2-3 13.2 3.4.3 7.1-16.4-7.5 3zm-3.2 14-3.7 16.1 6.9-15.7-3.2-.3zm-21.3-1.8-2-.2a4 4 0 0 1 -1 1.5l16 17zm46.1-107 22 1.1a4 4 0 0 1 1.7-2.2h.3l-14.6-34.1c-.5.2-.9.3-1.4.3l-8 35zm127.2-108.8-1.2-23c-.6 0-1.1 0-1.6-.3l-21.6 29.3zm213.6-114.5 18.4 30.5 28.5-31.1-45.5-1.3a4 4 0 0 1 -1.4 2zm142.2-99.2 38.6 23 24.6-30-62.7 5.6c0 .5-.2.9-.5 1.4zm468.5-4.5.8-.3-27.7-154.3c-.9.1-1.8 0-2.4-.5l-63.9 62.3 93 93zm-1006 432a4 4 0 0 1 1-1.2l-70.6-106.6c-.6.4-1.3.5-2 .5l-23.7 84.9 95.2 22.3zm5.4-3.6.4.5 35.6-48.4 12-52.6-6.2-.3-41.8 100.7zm48.1-101.3 7.7-33.5-13.8 33.2zm12.4-40.1c.4.6.5 1.4.3 2.2l36.1 7.2 48-67.8-.4-.4zm90.2-62.5 17.4-23.6-18.3 22.3.7.7zm26.2-29.8c-.4.3-.8.4-1.2.5l1.2 22.9 22.5-5.7-22-18c-.2 0-.4.2-.5.3zm0 24.1 1.1 18.7 50.2 20 10.7-12.8-38.8-31.8-23.1 5.8zm62.5 25.3 41.5-49.9-.5-.5c-.2-.2-.2-.5-.3-.8l-79 19.9zm46.6-50.6 37 37.7 55.6-63.6 2.2-16.2-93.9 39c.3 1 0 2.2-.9 3.1zm93.8-27.2 18.7-21.4-.5-.4-.1-.4-16.2 6.8-2 15.4zm18-22.7c-.4-1.4.2-3 1.6-3.8l.6-.2-11.4-35.1-.7.1-6 45.7 15.8-6.6zm-6.4-42.7 46 1.4 16.5-18-62.5 16.4zm47.2 1.4 30.2.9 61-35v-3.7l-74.4 19.5-16.8 18.4zm91.2-38.7-1-57.5c-.6 0-1.3 0-1.8-.4l-70.6 77.2 73.4-19.2zm204.2-170.1 73.2-2.4-28-109.7h-1.2l-45.7 109.5a3 3 0 0 1 1.5 1c.3.6.4 1 .4 1.6zm46.5-112.6c-.1 0-.3 0-.5.2l28.1 110 76.7-2.6c.1-.6.4-1.1 1-1.7l-105-106.1zm196.2 62.1 133.2 60.8c.3-.4.6-.8 1-1l1.2-.5-6.7-77.3c-1.2.2-2.5-.3-3.1-1.3l-.4-1-124.9 19.2c0 .4-.1.8-.3 1.1zm132.8 61.5-133.2-60.7c-.3.4-.6.8-1 1l-.8.3 27.6 154.3c1-.2 2 0 2.6.6l105-92.3-.1-.2c-.6-.9-.5-2 0-3zm-109.9 96.3-93-93-51.1 50 .3.3c.4.8.5 1.7.3 2.5l143.1 40.8zm-150.1-38.7-.4-1-23.1 4.4 29.3 128.5-2.9-130.6c-1.2 0-2.2-.3-2.8-1.3zm4.5 133.4.5-.2-29.5-129.7-106.7 20.2c0 1.2-.6 2.4-1.7 3.1-.6.4-1.2.5-1.8.6l-13.8 109c1 .1 1.9.6 2.4 1.4.3.4.4 1 .4 1.5l148.4-3.5a4 4 0 0 1 1.8-2.5zm-382.6 150.5-95.3 35.5c.3 1.4-.4 2.9-1.8 3.8l28.7 55.6c1-.4 2-.5 3 0l66.4-93.6-.8-.8zm-70.3 96.7-59.2-31.2-88.3 81.6.2.2.2.5 146.6-49c0-.7.2-1.4.5-2zm-153.9 52.5-66.2-6-1 56.7c1 0 1.7.3 2.4.9l65.2-49.6c-.5-.6-.5-1.4-.4-2zm-126.2-9.8v-.2l-85.2 33.3-7.3 16.8 17.7 1.6 74.8-51.4zm-92.9 50.8-7.2 16.8c.4.2.7.4 1 .8l23.2-16zm-11.3 17.7-17.1-18.4-.3.2c-1.7 1.1-4 .8-5-.7v-.3l-17 6.5 38.8 13.3c.1-.3.4-.5.6-.7zm-22.7-19.9v-1.1l-74.3-11.4 56.3 19.3zm-100.7-14.8-49.1 16.6-15.2 58.6c.4 0 .7.1 1 .3l64-74.5-.6-.5zm-163.6 56-18.4 7.4 109 13.7zm-.9-.3-5.3-1.2-33 5.8v.5l19.7 2.5zm-38.5 5.8a4 4 0 0 1 -1.6 2c-1.5 1-3.3.8-4.4-.3l-21.8 18.7.3.2.1.4 45.9-18.6zm224.3-60-13.6-2 73.1 22.9.6-.3-60-20.6zm-252.4 80.1 21.9-18.6-.3-.2c-1-1.5-.3-3.7 1.4-4.8l.4-.1-4.7-11c-.8.4-1.7.4-2.4.2l-17 34c.2 0 .5.3.7.5zm21.1-37.5 29.6 3.6 132.8-64.4-162.3 59.8v1zm173.6-63.7 41.7 9.8 23.7-84.7a3 3 0 0 1 -1-.4l-65.2 72.4.5.5c.4.7.5 1.6.3 2.4zm70-78.4 114 5.5 14.4-34.9c-.5-.2-1-.5-1.4-1l-.3-.9-126.7 31zm217-93.6c-.8-1.4-.2-3.5 1.5-4.6 1.3-.8 2.8-.8 3.9-.2l23.1-28v-.2-.1l-108.4 89 80-56zm33.8-34 22.5 18.5 79.5-20v-.2l-101.3.3c-.1.5-.3 1-.7 1.5zm108.9-3.7 94-39.2 6.1-46c-.6-.1-1.1-.4-1.6-.8l-98.7 85.6.2.2v.3zm104.4-90 63.9-16.5 71.4-78-135.3 94.1.1.5zm141-99.1 111.7-64.9c-.6-1.4 0-3.2 1.4-4.2l-50-95a4 4 0 0 1 -2 .4l-62.3 162.7c.5.2 1.3 1 1.3 1zm65.2-166 130.3 57.4 1-1a4 4 0 0 1 2.8-.6l45.8-109.5a3 3 0 0 1 -1.5-1.1l-.2-.5-177.8 53.7c0 .5 0 1-.4 1.6zm184.1-54.8 105 106.1.2-.1c1-.7 2-.8 3-.5l55.1-106.8c-.5-.3-1-.6-1.2-1-.3-.5-.4-1-.4-1.6l-160.7 2.4c-.2.6-.4 1-.9 1.6zm167-1.6-.3.1 24.5 60.4c1.5-.6 3.3-.2 4 1 .3.4.4.8.5 1.2l124.9-19.3v-.7l-152.3-44.1c-.3.5-.7 1-1.3 1.4zm288.4 102.4-120.6 24.3c0 1.2-.6 2.4-1.8 3.1h-.2l34.9 86.5c1-.4 1.9-.3 2.7 0l86-112.3-.7-.7c-.2-.3-.2-.6-.3-1zm-88.6 114.2.2-.1-34.8-86.4c-1.2.4-2.4.3-3.3-.4l-105 92.4.1.1c.3.5.4 1 .5 1.5l140.5-4.6c.3-1 .8-2 1.8-2.5zm-149.4 7-143.2-40.7c-.3.6-.7 1-1.3 1.5a5 5 0 0 1 -1.2.5l3 131.6c1 0 1.8.4 2.4 1l140.5-91.6c-.4-.7-.4-1.5-.2-2.2zm-146.6 96.8-148.4 3.6a4 4 0 0 1 -1.7 2.4h-.1l52 130.4c.9-.3 1.7-.2 2.5 0l96.9-134.1-.7-.7c-.3-.5-.4-1-.5-1.6zm-99.1 136.7h.1l-52-130.4a3 3 0 0 1 -.9.2l-20.2 137.7a3 3 0 0 1 2.3 1.3c.3.4.4 1 .4 1.4l68.5-7.4c0-1 .7-2.1 1.8-2.8zm-77.1 9.9-113-47.2c-.2.4-.6.8-1 1.1s-.8.4-1.1.5l9.8 148.5c.8 0 1.5.2 2.1.6l103.6-100.4-.3-.3c-.6-.9-.5-2-.1-3zm-109 105.7c.1-.5.5-1 1-1.5l-91.5-102.4c-1.2.8-2.5.8-3.5.4l-66.4 93.6.7.7c.4.6.4 1.2.4 1.8zm-166.1-5.7-146.6 49c.1 1.1-.5 2.3-1.6 3.2l43 62.9c1.2-.7 2.6-.7 3.6-.1l102.2-114-.5-.5zm-107 117.1c.2-.6.6-1.2 1.2-1.7l-42.9-62.9c-1.5.9-3.2.7-4.2-.4l-65.2 49.6c.4.7.5 1.4.4 2.1l110.6 13.3zm-247.9-24.7-23.8 16.4c.3.4.4.9.4 1.3l150.4-6.4zm-70.1 4-.6.2 13.8 4.3zm-76.3-22.8c-.3.5-.7 1-1.3 1.4-1.2.8-2.7.8-3.8.2l-64 74.4.5.6.1.3 141.9-54-73.4-23zm-189.6 64.2-46.7 19v.6l159.7-5.4z" fill="#777fad" opacity=".6"/><path d="m1961.2 268.3-42.6-19.7-9.9 51.8 52.5-32z" fill="url(#b)"/><path d="m2307 502.2 28.9 26.3 20.8-38.6zm102.2-341.4 20.8 11.7 7-25.9z" fill="#3a8dde"/><path d="m501.4 288.8 46.6-5.6-19-49.2z" fill="url(#c)"/><path d="m1728.7 316.8-3 37.4 34.7-7.7z" fill="#3a8dde"/><path d="m2044.3 582.9-20.6-31.3-22.7 27.3z" fill="#45a041"/><path d="m2223.7 310.3-4.5-23.6 27.6 11.5-23 12.1zm-2106 94-4.5-23.6 27.6 11.5-23 12.1z" fill="#194f90"/><path d="m249 186.9-7.8-30.2-25.2 15.4z" fill="#45a041"/><path d="m615.1 189.2-25.8-13 32-16.7z" fill="url(#d)"/></g></svg>