<svg xmlns="http://www.w3.org/2000/svg" fill="none" viewBox="0 0 2500 647">
<g opacity=".6">
<g clip-path="url(#clip0)"><g opacity=".6"><path fill="#777FAD" d="M3237.6 196.5c-1.1.3-2.2.1-3.1-.3l-24.7 28.8c.4.3.8.8 1 1.4.6 1.7-.5 3.6-2.5 4.2-2 .7-4-.2-4.6-1.9v-.3L3027.1 248a3.7 3.7 0 01-2.6 3c-1.5.6-3 .2-3.8-.7L2940 305c0 .2.3.3.3.6.6 1.6-.5 3.6-2.5 4.2-2 .7-4-.2-4.5-1.9l-.1-.8-130.5-.3a3.8 3.8 0 01-2.5 2.7c-1.7.5-3.3 0-4.1-1.2l-131 62.6c.6 1.8-.6 3.7-2.5 4.4-2 .6-4-.2-4.6-2-.2-.6-.1-1.1 0-1.7l-98.5-24a4 4 0 01-2.2 2c-1.7.6-3.3 0-4.1-1l-116.4 59.3v.2c.6 1.6-.5 3.6-2.5 4.2-1.7.6-3.5 0-4.3-1.4l-153.9 59c.4 1.7-.7 3.5-2.6 4-.8.4-1.8.4-2.6 0l-99.8 143c.6.3 1 .8 1.2 1.4.6 1.7-.5 3.6-2.5 4.3-2 .6-4-.2-4.6-2v-.5l-185.5 9.6a4 4 0 01-2.6 2.8c-2 .7-4-.2-4.5-1.8-.2-.5-.2-1.1 0-1.6l-156.7-36.4c-.5.8-1.3 1.6-2.3 2-2 .6-4-.3-4.5-2a3 3 0 01.3-2.5L1672 510.9c-.4.4-1 .8-1.6 1-2 .7-4-.2-4.5-1.9-.2-.3-.1-.6-.1-.8l-169.2-3.6a3.8 3.8 0 01-2.5 2.6c-2 .6-4-.2-4.5-2-.6-1.6.5-3.6 2.5-4.2 1-.3 2-.3 2.8 0l55.3-79.2a3 3 0 01-1.3-1.5c-.6-1.7.5-3.6 2.5-4.2 1.3-.5 2.7-.2 3.6.5l110.4-88.4c-.3-.2-.5-.4-.6-.8-.5-1.6.6-3.6 2.6-4.2 2-.7 4 .2 4.5 1.9.2.5.2 1 0 1.5l137.8 29.2c.4-.9 1.2-1.6 2.3-2 1.8-.6 3.6 0 4.3 1.5l158.3-55.3c-.3-1.6.7-3.3 2.5-3.9 1.3-.4 2.6-.2 3.5.5l126.2-107-.5-1c-.6-1.6.5-3.6 2.5-4.2 2-.7 4 .2 4.6 1.9v1.4l68.3 9.2c.3-1 1.2-1.9 2.4-2.3 1.5-.5 3 0 4 1l124.6-72.6-.2-.3c-.5-1.7.6-3.6 2.6-4.3 1.9-.6 4 .2 4.5 2 .2.5.1 1.1 0 1.7l152.8 45.4a4 4 0 012.2-1.7c1.4-.5 2.9-.1 3.8.7L2605 81.3l-.4-.5c-.5-1.7.6-3.6 2.6-4.3 1.9-.6 4 .2 4.5 2a3 3 0 01-.1 2l104.3 39.4c.5-.6 1.2-1.2 2-1.5 2-.7 4 .2 4.7 1.9v1.5l150.5 30.3a4 4 0 012.3-2c2-.6 4 .2 4.6 2a3 3 0 01-.4 2.6l37 22.6 151.8-18.5c.1-1.4 1-2.7 2.6-3.1 2-.7 4 .2 4.6 1.9.2.5.1 1 0 1.5l157.8 33.3a4 4 0 012.3-2c2-.6 4 .2 4.6 2 .4 1.5-.7 3.4-2.7 4zM1496.8 504.8l169.2 3.6c0-.4.3-.9.6-1.2l-111.7-84.7c-.4.3-.9.6-1.4.7a4 4 0 01-2.7 0l-55.3 79.2c.6.4 1 .8 1.3 1.5v.9zM2722 122.9c-.3.5-.7.8-1.1 1.1l36.6 71c1.3 0 2.3.7 2.9 1.7l84.1-31.8-122.5-42zm-404.8 2.6l-1.2.2-26 146.6c1 .2 2 .8 2.4 1.9l87.4-24c-.2-1.3.5-2.6 1.7-3.4l-64.2-121.3h-.1zm-131 76.2c-.5.2-1.2.2-1.8.1l-52.6 128.9c.8.3 1.3.8 1.7 1.4l151.9-55.8c-.2-.9 0-1.8.6-2.6l-98.3-72.8c-.4.4-.9.6-1.4.8zM1555.5 422l111.7 84.6 1.4-.8 1.2-.1 12-76.7c-1.3-.1-2.4-.8-2.8-2v-1l-123-5.2c0 .4-.2.8-.5 1.2zm259.2 166.8l79.2-90.5c-.4-.3-.8-.7-1-1.2l-86.8 23c.3 1.6-.8 3.2-2.5 3.8h-.3l9.2 64.5c.8 0 1.6 0 2.2.4zm353 27.8L2142 512.3c-1.7.3-3.4-.4-4-2v-.1l-83.4 17.8c0 .8-.2 1.5-.7 2.2l112.7 87c.3-.3.7-.5 1.2-.7zM2269 471.6v-.8l-63-9.6-61.3 46.1c0 .2.2.4.3.5l124-36.2zm664.7-166.2c.3-.6 1-1 1.6-1.4l-46.6-118.5-64.2 87.3 109.2 32.6zm91.8-60.3c.7.3 1.2.8 1.4 1.5l119.7-40-105 8.9-16 29.6zm121-39.3c.1-.5.3-1 .6-1.4l-72.4-43.8c-.5.4-1 .8-1.7 1a4 4 0 01-2.3 0l-28.6 53 104.5-8.8zm1-2c.5-.4 1-.8 1.7-1 2-.7 4 .2 4.6 2v.3l6.7-1-80-40.7 67 40.5zm6.3 1.8v.3l11.7.8-4.2-2.2-7.4 1zM2988.6 222l-1.5.9-1.4.2 30.2 19.4-27.3-20.5zm-6-1c-.3-.8-.2-1.6.2-2.3l-10.5-4.3 10.3 6.6zm6.3.6L3021 246c.4-.4.9-.8 1.4-1 .8-.2 1.6-.2 2.4 0l15.9-29.4-51 4.4c-.1.6-.5 1.2-1 1.7zm212-12.1l-32.4-2.2 13.1 6.6 19.3-4v-.4zm.1 1.2l-18.2 3.9 21.9 11c.5-.4 1-.9 1.7-1.1h.3l-1.8-11.8c-1.7.2-3.4-.5-3.9-2zm-19.5 4.1l-4.5 1 25 9.4-20.5-10.4zm-1.2-.6l-13.8-7-12.7-.9-.2.5 22 8.4 4.8-1zm-27-6.9c-.4.7-1.1 1.4-2 1.7-1.9.6-3.7-.1-4.4-1.6l-116.9 38.9 144.8-30.9-21.4-8zm-168.9 16l-1.8 3.3 33.4 17.2-31.6-20.5zm-.5-.3l-16.4-10.6-67.5-28 82 42 1.9-3.4zM2640 158.3a4 4 0 01-1.4 1.2l34 68.6 19.5-7 10.9-41-63-21.8zm-347.6 116.5c.1.7 0 1.5-.5 2.1l48.7 31.1 40.3-56a3 3 0 01-1.1-1.3l-87.4 24zm-158.8 58v1.3l115.3 26 38-81.7c-.6-.3-1-.8-1.4-1.3l-151.9 55.8zm-327.8 186.4l.2.3 86.8-23c-.2-1.3.4-2.5 1.5-3.2l-11.6-19.3-77 45.2zm465.7-51.3l.8-.1-1-53c-.9 0-1.7-.3-2.3-.8l-30.5 22.9 32 31.6c.3-.3.6-.5 1-.6zm69.7-159.5l75 48.1-32.4-103.9c-.8.1-1.5.1-2.2-.1l-40.4 56zm-117 109.5l26.3-17.4-15.6-8.6-11.8 25.3c.4.2.8.4 1 .7zm.3.4l.3.6v.2l43.1-7.4c0-.5.1-1 .4-1.4l-17.3-9.5-26.6 17.5zm44.4-8.7c.4-.5 1-1 1.6-1.1.4-.2.7-.2 1-.2l3-23-22.6 15 17 9.3zm23-39l-14.3-3.3-2.1 16.6 16.9-11.2c-.2-.1-.3-.3-.4-.6v-1.5zm.4-.8a4 4 0 012.2-2h.5l-6.3-88.6-11 87.3 14.6 3.3zm.3 3.4l-17.2 11.5-3 23.6c.2 0 .5 0 .7.2l20.5-34.7a3 3 0 01-1-.6zm-75 48l-125.8 21.4v.3l95.5 14.6 31.3-34.9a3 3 0 01-.9-1.3v-.2zm2.6-4.1c.7-.3 1.4-.2 2-.1l12-25.5-101.5-55.8 86.5 82a4 4 0 011-.6zm-86.9-82l101.3 55.6 13.9-30-115.2-25.8v.1zm102 56l16 8.8 23.3-15.4 2.2-17.4-27.4-6.1-14 30.1zm41.6-24.8l11-87.6h-.1l-38.1 81.5 27.2 6.1zm13-87.8h-.5l6.3 89.2c.5 0 1 0 1.6.2l42.7-59.1-48.7-31.2c-.4.4-.9.7-1.5 1zm8 89.9c.5.3 1 .8 1.2 1.4v.7l120.1-4.5-2.5-8.2-76-48.6-42.8 59.2zm119.7-11l10.1 6.4 1-.6-41.6-103.3 30.5 97.4zm9 9.2v-.1l-6.1.2.5 1.6 5.7-1.7zm0-.8c0-.5.3-1 .5-1.3l-9.1-5.8 2.3 7.3 6.3-.2zm9.6-11.5l59.9-108.8-2.4-4-4 .2-53.5 112.6zm262-13l28-68.8-39-18.4c-.5.6-1.2 1.1-2 1.4h-.2l11.5 87 1.6-1.3zm90.9-75.7l-.5-.9c-.2-.4-.2-.8-.2-1.2l-5.8-.6 2.4 6.1 4-3.4zm-33-64l-22.7 55.6 24 2.5 24 2.5-23.7-60.8c-.5.2-1 .2-1.6.1zm-68.5 52l38.9 18.2 5.8-14.2-44.6-4.6-.1.5zm-.2-3.2l.4.8c.1.4.2.8.1 1.2l44.6 4.7 22.7-55.8a4 4 0 01-1-.6l-66.8 49.7zm94.9 11.9l6.3.6c.3-.8.8-1.4 1.6-2l-2.8-5.4-28-52.1 22.9 58.9zm-.6.5l-24.3-2.5-24.3-2.5-5.9 14.4 34.4 16.2 22.7-18.9-2.6-6.7zm-54.7 10l-27.5 67.2L2761 289l-34-16zm-109.1-24.2l-35.3 12.6v.2l97-9-61.7-3.8zm-115.3-7.2l47 12.5-42.8-12.3-4.2-.2zm-5.4 2.2c-.8-.4-1.3-1-1.6-1.7v-.6h-1l2 3.4.6-1.1zm-3-2.8l1.3-.2c0-.4.2-.9.5-1.3l-1.5-.7-1 1 .8 1.2zm.6-2.6v.1l1.4.8c0-.2.2-.3.3-.4l-1.7-.5zm8 2.3h.2-.2zm6.6 1.3l66.4 19 .5-.6-17.1-15.3-49.8-3.1zm67.5 17.8a6 6 0 011.1-.6c.8-.3 1.6-.2 2.3 0l6.8-12.3-26.6-1.7 16.4 14.6zm4.2-.4c.5.3 1 .8 1.3 1.3l33.4-12-27.9-1.7-6.8 12.4zm-5.2 4.6l-.4-.5c-.2-.7-.1-1.3 0-1.9l-73-19.6c-.4.6-.9 1.1-1.5 1.5l28.5 52.9 46.4-32.4zm-82.5-23l-.6-1-.3.2a4 4 0 01-2 .1l-.6 1 3.5-.3zm1.6-3.2l2 .6.9-.4-1.1-3.3-1.9 1 .2.3c.2.6.1 1.2 0 1.8zm7.7 2.2l3 .9 52.5 3.3-26-23-29.8 18.1c0 .2.2.3.3.4v.3zm117.2 8l60.9 4c.3-1 .8-1.7 1.7-2.1l-10.2-20.6-52.4 18.8zm63.3 1.5c.6-.2 1-.3 1.6-.2l7.1-27-18.8 6.7 10.1 20.5zm2.3 0c.6 0 1.1.3 1.6.7l66.8-49.7-.2-.4-60.9 21.8-7.3 27.5zm104.2 16.8l-.3.2-4.1 3.6 13 33.4-5.9-36.5c-1 .1-2-.1-2.8-.7zm-234.5 77.4c.5-.1 1-.2 1.6-.1l21.1-78.2c-.6 0-1-.3-1.5-.7l-46.5 32.4 25.1 46.8.2-.2zM2427 367.6l-.2-.2-5.6 1.6.7 2 5-3.4zm-158.6 45.8l-.4-.7v-.1l-43 7.3c0 .9-.5 1.7-1.2 2.4l14.1 14 30.5-22.9zm-81.7 44.9l-95.2-14.6c-.2.5-.5 1-1 1.4l49.2 61.4.7-.4c1.1-.4 2.3-.2 3.1.3l43.2-48.1zm-47.5 48.5l-49.3-61.4a4 4 0 01-.7.4c-.7.3-1.4.2-2 .1l-19.7 45.2 70.7 16.8c.2-.4.6-.8 1-1.1zm-89.3 18.6c.7-.2 1.4-.2 2 0l14.7-33.7-75.3-18 57.5 52.3 1-.6zm-60.3-52l-11.2-2.7c0 .2-.2.3-.3.5l-.1.1 65.5 51-53.9-49zm-16.2-6.5l.7-.5h.6l.1-6.4-24.2-22 22.8 28.9zm2.3-.7c1.4.1 2.6.9 3 2.1l4.3-1-7.2-6.5v5.4zm3 2.8v.9l9.7 2.3-4.8-4.4-4.8 1.2zm-79.8 24.2c.4.3.7.7.9 1.1l66.2-22c-.4-1.6.6-3.4 2.5-4 1.1-.4 2.2-.2 3.1.3l.3-.4 1-1.1-23-29.4-.8.4c-1.1.4-2.2.3-3.1-.2l-47.1 55.3zm85.6-25.6l5.5 5L2067 491l19.6-45.2c-.9-.3-1.6-1-2-1.9l-100 23.7zm400.3-215.4l44.6 110.7c.6-.2 1.3-.2 1.9 0l57.4-121-101.8 7.6c0 1.1-.9 2.1-2 2.7zm174.7-8.1l28.1 1.7 47.4-86.1-1-.7-101 61.5 26.5 23.6zm78.4-84.2c-.8.3-1.6.2-2.3 0l-47.2 86 29.4 1.8 54.2-19.4-34-68.5v.1zm120.8 41l14 26-13.5-26.2-.5.3zm36.4 60.6l.6.9c.2.6 0 1.2-.1 1.8l21.2 6.3 23.4-46.5-45.1 37.5zm2.5 42.1l-13-33.2-21.5 18.7 33.2 15.6c.3-.5.8-.8 1.3-1zm-98.7 38l-.6 1.4c.3 0 .6.3.8.4l62.6-54-62.8 52.2zm-6 4l.3-.3.5-1-23.3-16.5-3.5 18 26-.1zm1.3-1.9l1.4-.8h.3l-11.5-87.3h-.3l-13.6 71.2 23.7 17zm-10.9-88.2c-.6 0-1.2-.3-1.6-.7l-55.2 40.6 43.4 31 13.4-70.9zm-2.1-1.3l-.4-.6v-.6l-98 9c-.1.7-.4 1.3-.7 1.8l43.7 31.2 55.4-40.8zm-99.7 10.1l-.1.2 30.4 40.7 13.3-9.7-43.6-31.2zm-.9.6l-.5.2c-.5.2-1.1.3-1.6.2l-21.2 78.1c.6.2 1.1.4 1.5.8l52.3-38.5-30.5-40.8zm-51.3 32.5l-1.2.8 18 30.6-16.8-31.4zm-.5-.8l-28.5-53-.1.1c-.6.2-1.2.3-1.8.2l-.9 2.3 30.2 51.2 1.2-.8zm-31.7-49.4l-38.5 98.4L2527 298l-29.9-50.7zm-.8-.6l-64 116.5.6.5 24.4-17 39-100zm-68.8 121.7l-5.4 3.6 10.7 34.2-2.5-37c-1.1.2-2.1-.1-2.8-.8zm-6.5 3.3l-.7-2.4-63.8 18.4 28.6 8 35.9-24zm-1-3.1l-.5-1.8-120.3 4.5-.1.3 56 15.7 65-18.7zm-121.2 3.8a4 4 0 01-2.2 1.8l-1.4.2-7.5 32.2 66-19-55-15.2zm-4.3 1.8l-.5-.1-20.5 34.6a3 3 0 011.5 1.6l12-3.5 7.5-32.6zm-19.4 36.8v.2l11-.2.7-3.3-11.7 3.3zm0 1a3.9 3.9 0 01-2.5 2.7l-.7.1.9 53h.2l12.8-56-10.7.2zm-37.6 24.7l-14.1-14c-.3.3-.7.5-1 .6-1.2.4-2.3.2-3.2-.3l-31 34.7 17.8 2.7 31.5-23.7zm-50 21.8l-43.3 48.2L2205 461l-17.6-2.6zm-49.6 50.4l-70.8-17-14.5 33.7c.8.3 1.5 1 1.9 1.8v.2l83.4-17.8v-1zm-89.8 17.9l-70.5-55c-.4.6-1 1-1.7 1.2l-.6.1.3 39 72 15.3.5-.6zm-73.6-53.5c-.7 0-1.2-.2-1.7-.5-.5.8-1.3 1.4-2.3 1.8-1.8.6-3.7-.2-4.4-1.7l-66.1 22v1.3l74.7 15.9-.3-38.8zm-79.4 19.6l.3-.1c1-.4 2.1-.2 3 .3l47.2-55.4-.4-.3-61.7 36.3 11.6 19.2zm55.7-55.8l24 21.9.5-22-23.7-1.3c-.1.5-.4 1-.8 1.4zm25 22.7l8.1 7.4 100.7-23.8c0-.2-.1-.3 0-.4l-108.4-6-.4 22.8zm115.9-18.1v.1l126-21.4c0-.8.3-1.5 1-2.2l-86.6-81.9c-.3.3-.6.5-1 .6-.7.2-1.3.2-2 .2l-39.4 102.7a3 3 0 012 1.9zM2489 241.2l.6-1.3a3 3 0 01-1.7-1.8v-.5l-89.5 10.4 90.6-6.8zm5.4-6.3l2-1.1-19.1-57.5 13.7 57.5c1.4-.3 2.7.1 3.4 1zm-17.6-62.1l20.2 60.7 30.4-16.8-49.8-44.4-.8.5zm20.4 61.4l1.1 3.4c1.4-.4 2.8 0 3.7.9l29.7-18-3.6-3.3-30.9 17zm35.2-14.2l89.2-54.3-92.8 51.1 3.6 3.2zm160.5.8l60.3-21.7c0-.5 0-1 .2-1.6l-49.8-17.2-10.7 40.5zm60.8-24c.3-.5.9-.9 1.4-1.2l-32.5-65.8-2.8-5.4-1.5.3-14.6 55 50 17.2zm2-1.5h.1l.5-.1-15.2-29.6 14.6 29.7zm4 4.7l31.3 60.5c1-.3 2-.2 2.8.1l56.7-74.2-90 11.8c0 .6-.3 1.2-.7 1.8zm34.7 61h.1l46.4-38.6 18.7-37.3-8.1 1-57 74.9zm80.7-104.7l-7.8 15.5 18.2 6.3-8.6-21.8h-1.8zm-8.2 16.3l-5.8 11.7 25.5-3.4-.7-1.8-19-6.5zm20.7 8.2h.4l.1-1-1-.3.5 1.3zm4.7 3c-.9.1-1.7 0-2.4-.2l-.8 1 37.7 95.7-34.5-96.6zm-3.1-.6v-.1l-.5.3v.3l.5-.5zm-.6-.6c-.2-.2-.5-.5-.6-.8v-.4h-.1l.5 1.4.2-.2zm-1.7-1l-26.2 3.4-18.1 36 45-37.6-.7-1.9zm-27 2.8l6.2-12.1-3.2-1.1-10.9 14.2 8-1zm6.6-12.9l7.4-14.7-10.4 13.7 3 1zm20.2 7l1.8.6c.4-.5.8-1 1.3-1.2l-11.3-20.2 8.2 20.7zm-70.4 92.7l-21-6.2a4 4 0 01-2.3 1.6h-.3l6 36.6h1.4l16.2-32zm-149.6 75.3l-4.3 22.6c.6 0 1 .3 1.5.6l28-23.3-25.2.1zm-235 59.9l-10.5-34-35 23.4L2430 408a4 4 0 011.8-1.6zM2270 468.8l-32-31.7-31 23.4 62.2 9.5c.2-.5.4-.8.8-1.2zM1814 361l-.7.1-10.2 156.5c.9 0 1.7.4 2.3 1l76.9-45.2-68-112.5-.3.1zm1080.4-178.4a4 4 0 01-1.3 1l43 120.2c.7-.2 1.4-.2 2 0l43.4-76.7-87-44.5zm-6.2 2.1l-.2-.5-46.2 38.4-24.3 48.3 6 1.8 64.7-88zm-71 87l-15.4 30.6 21.3-29-5.9-1.7zm-21.6 35.9c-.3-.7-.1-1.5.3-2.2l-33.4-15.7-62.9 54.3c.2.1.2.3.3.5l95.7-36.9zm-102.5 39l-22.6 18.8 23.1-17.3-.5-.8v-.7zm-32.6 22.7c.4-.2.8-.2 1.3-.2l4.2-22.5H2643l17 23 .6-.3zm5.7-23.4l3.5-18.6-44-31.3-13.4 9.9 30 40h23.9zm-54.6-39.5l-52.2 38.4.4.7v.8l81.5-.4-29.7-39.5zm-57.3 37.7l-26.8-45.4-69.3 48.4-6 15.2 100.5-15.4c0-1 .5-2 1.6-2.8zm-97.5 4l-23.3 16.3c0 .2.2.3.3.5v.4l17.3-2.7 5.7-14.5zm-22.9 17.7c0 1.4-1 2.8-2.6 3.3h-.6l2.6 37h.8l16.8-43-17 2.7zm-4 43l-44.5-12.4-20.3 13.5 64.7-.9v-.2zm-45.6-12.7l-29.1-8-67.7 19.3-.8 3.6 76.9-1 20.7-13.9zm-97.8 15.7l-12.9 56.1c.7.1 1.3.4 1.7.8l87-58-75.8 1.1zm-239.2 116.5l-71.7-15.2 1 113.2 1.3.3 70.6-95.3a3 3 0 01-1.2-1.5v-1.5zm-72.2 98.2l.6-.1-1-113.5-75-16c-.3.6-.7 1-1.3 1.5l76.5 128.2.2-.1zM1799.6 519l-114.8-90.9c-.3.3-.8.6-1.3.7-.4.2-.8.2-1.2.2l-12 76.6c1.2.2 2.3 1 2.7 2 .1.5.2.8.1 1.2l126 11.3c0-.4.2-.8.5-1zm-114.2-91.5l114.7 90.8 1.3-.7h.8l10.2-156.5c-1 0-1.9-.5-2.4-1.2l-124.1 64.5.1.2c.3 1 0 2-.6 3zm129.7-67.1l68 112.5 61.7-36.3-.2-.3a3 3 0 01.3-2.6L1815.7 360l-.6.5zm136.5 73.5l.1 1 23.6 1.3 2.4-131.8-28.5 127.5c1.1.3 2 1 2.4 2zm27.7-130.7h-.6l-2.4 133 108.4 6c.3-1.1 1.2-2.1 2.4-2.6.7-.2 1.3-.2 1.9-.1l39.5-102.7c-1-.4-1.7-1-2-1.9-.2-.5-.2-1 0-1.6l-145-32a4 4 0 01-2.2 1.9zm407.6-54.5l101-11.6c0-1.4 1-2.7 2.6-3.2l-14.4-61c-1.1.3-2.2 0-3-.5l-86.9 74.9c.3.3.5.6.6 1 .1 0 0 .3 0 .4zm91.4-77l50 44.5 105.3-58-.2-.2v-.5l-154.1 12.4c-.1.7-.5 1.3-1 1.8zm162-14l62.8 21.6 14.5-54.8c-.8-.2-1.5-.7-2-1.5l-75.2 32.6c.3.7.2 1.4-.1 2zm120.2 39.6v.2l90.6-11.9 11-14.6-16.8-5.8-84.8 32.1zm102.3-27l11.1-14.6c-.4-.3-.6-.6-.8-1l-26.4 10 16.1 5.5zm15.2-14.5l12.3 22 .3-.3c2-.6 4 .2 4.6 1.9v.3l18.1-2.2-34.5-22.2-.8.5zm17.3 24.8c0 .3-.1.7-.3 1l69.5 28.9-50-32.3-19.2 2.4zm94.3 38.5l51.6-4.4 28.8-53.2-.9-.6-80 57c.2.2.4.4.4.7v.5zm172.2-15.2l19.7-2.8-102.7-39.4 83 42.2zm.8.4l4.9 2.5 33.4 2.3.2-.5-18.6-7.1-19.9 2.8zm38.8 3.6a4 4 0 012-1.5c1.7-.5 3.4 0 4.2 1.3l25.6-12.9-.2-.3v-.4l-49 7.1 17.4 6.7zm-232.2 4.6l12.7 5.3-65.4-39.8h-.7l53.4 34.5zm264.2-17.4l-25.6 12.9.2.3c.6 1.7-.6 3.6-2.5 4.3h-.4l1.9 11.8c.9-.2 1.7 0 2.4.4l24.7-28.9-.7-.8zm-29.4 31.4l-28-10.5-144.2 30.7 171.9-19.2.3-1zm-183.8 20.3l-38.1-19.5-43.3 76.6c.3.2.6.3.8.6l80.7-54.7-.4-.6c-.2-.8-.1-1.6.3-2.4zm-86.9 59.4l-109.4-32.7-22.3 30.4c.5.3 1 .8 1.1 1.4l.1.8 130.5.3v-.2zM2700.2 345c.5 1.6-.6 3.5-2.5 4.1-1.5.5-3 .2-3.8-.8l-29.2 21.8-.1.1v.2l126.7-60.6-91.1 35.2zm-41 24.8l-17.4-23.2-82 .4v.1l98.4 24c.3-.5.6-1 1-1.3zm-106.5-22.3L2451.8 363l-16.9 43.2c.6.2 1 .6 1.4 1.1l116.4-59.3v-.2l-.2-.3zm-123 62.2l-65.8 1-88 58.6 153.8-59v-.6zm-160.6 62.6l-124 36.2c.2 1.5-.8 3-2.4 3.7l25.8 104.2a4 4 0 012 .1l99.7-143c-.5-.3-1-1.2-1-1.2zM2166 617.8l-112.7-87-1.3.8a4 4 0 01-2.8 0l-70.6 95.2c.5.4 1 .9 1.2 1.5v.5l185.5-9.5c0-.5.3-1 .7-1.5zm-191.8 9.1l-76.5-128.2-.2.1c-1 .4-2.2.3-3-.2l-79.2 90.5c.4.3.8.7 1 1.2.1.5.1 1 0 1.6l156.6 36.3c.3-.5.7-1 1.3-1.3zm-162.5-38.4h.3l-9.3-64.6c-1.6.2-3.3-.6-3.7-2-.1-.4-.2-.8-.1-1.2l-125.9-11.2-.2.7 137.3 79.3c.4-.4 1-.8 1.6-1zM1556 420l122.9 5.3a3.8 3.8 0 012.5-2.6h.2l-13.1-92.3c-1 .1-2-.1-2.7-.7l-110.3 88.5.5.8v1zm113.4-89.7h-.2l13 92.3c1.3-.2 2.5.3 3.2 1.2l124-64.6v-.2c-.2-.5-.2-1 0-1.5l-137.7-29.2c-.4 1-1.2 1.7-2.3 2zm146.8 29l129.2 73.8c.4-.5 1-.9 1.6-1.1a5 5 0 011.3-.2l28.7-128.5a3 3 0 01-2.1-1.6L1816.7 357c0 .8 0 1.6-.4 2.2zm165.5-58.8l145 32.1a4 4 0 012.2-2h.2l-19.3-139c-1 0-1.8-.1-2.4-.6l-126.2 107 .5.9c.1.6.1 1.1 0 1.6zm129-109l19.2 139h1l52.5-128.8a3 3 0 01-1.9-1.9 3 3 0 010-1.4l-68.3-9.2c-.3 1-1.2 1.9-2.4 2.3zm77.3 8.8l98.3 72.9c.4-.3.8-.6 1.4-.8.4-.2.7-.2 1.1-.2l26.1-146.6c-.8-.1-1.4-.5-2-1L2188.5 197l.2.4c.4 1 .1 2-.5 2.8zm131.2-76.5c-.3.5-.8 1-1.3 1.2l64.2 121.4c1.4-.5 2.6-.2 3.6.4l86.8-74.9a3 3 0 01-.5-1c-.3-.5-.2-1.1 0-1.7l-152.8-45.4zm159.9 45.3l154-12.4c.2-1.1 1-2.2 2.3-2.7l-26.6-71.4c-1.3.4-2.7 0-3.6-.7L2478.8 168l.4.5v.5zm132-88c-.4.5-1 1-1.7 1.3l26.6 71.3c1.6-.4 3.3.2 4 1.5l75.2-32.6a3 3 0 01.1-2L2611.2 81zm234.5 83.3l27-10.3v-1.3L2725.1 123l120.6 41.4zm69 13l.7-.1-12.4-7.5 11.8 7.6zm68.7 40.3c.4-.4 1-.8 1.5-1 1.5-.5 3-.2 3.8.7l80-57-.4-.6v-.3l-150.7 18.4 65.8 39.8zm199.6-16.9l50-7.2v-.6l-156.3-33 106.3 40.8z"/><path stroke="#777FAD" d="M1810.8 361l62.1-87 104.3 25.4"/><circle cx="1873" cy="274.3" r="3.3" fill="#777FAD" transform="rotate(-10 1873 274.3)"/></g><path fill="#777FAD" d="M-200 419c1-.6 2.1-.7 3.1-.4l17-34a3 3 0 01-1.3-1c-1-1.5-.3-3.6 1.4-4.7 1.8-1.1 4-.8 5 .7v.4L-8 318.6c-.2-1.4.4-2.8 1.8-3.6 1.3-.9 2.8-.9 4-.2l65.1-72.4-.4-.5c-1-1.5-.4-3.6 1.4-4.7 1.7-1.1 3.9-.8 4.8.7.2.2.2.5.3.8l126.7-31c0-1.1.7-2.4 1.9-3.2 1.4-.9 3.2-.8 4.2.2L314 112.5c-1-1.5-.3-3.7 1.4-4.8 1.7-1 4-.7 5 .8.2.5.3 1 .3 1.7l101.3-.4a4 4 0 011.8-2.4c1.4-1 3.1-.8 4.2 0L526.8 22l-.1-.2c-1-1.5-.3-3.6 1.4-4.7 1.6-1 3.4-.8 4.5.3l135.3-94.2c-.7-1.5-.2-3.5 1.5-4.5.8-.5 1.7-.7 2.6-.6l62.6-162.7c-.6-.2-1.1-.5-1.5-1.1-1-1.5-.3-3.6 1.4-4.7 1.8-1.1 4-.8 5 .7l.1.6L917.4-303a4 4 0 011.8-3.4c1.8-1 4-.7 4.9.8.3.4.4 1 .4 1.5l160.8-2.2c.2-1 .8-1.8 1.7-2.4 1.8-1.1 4-.8 5 .8.4.7.5 1.6.2 2.5l152.3 44.1c.3-.5.7-1 1.3-1.4 1.7-1 4-.8 4.9.8l.3.8 165-37c0-1.2.7-2.4 1.8-3.2 1.8-1 4-.7 5 .8.9 1.5.3 3.6-1.5 4.7a4 4 0 01-2.7.6l-34.7 90.2a3 3 0 011.6 1.1c1 1.6.3 3.7-1.4 4.8-1.2.7-2.6.8-3.6.3l-86 112.3.7.6c1 1.5.3 3.6-1.5 4.8-1.7 1-3.9.7-4.8-.8a3 3 0 01-.5-1.5l-140.6 4.7c-.2 1-.8 1.8-1.8 2.5-1.6 1-3.5.7-4.5-.5L1001 15.1c.7 1.4.1 3.3-1.5 4.3-1.1.7-2.4.8-3.5.4L899.2 154l.7.7c1 1.5.3 3.6-1.4 4.7-1.8 1.1-4 .8-5-.7a3 3 0 01-.4-1.3l-68.4 7.3c-.1 1-.7 2.2-1.8 2.9-1.4.8-3 .7-4 0L715.1 267.9l.3.3c1 1.4.3 3.6-1.5 4.7-1.7 1-3.9.8-4.9-.8-.3-.5-.4-1.1-.3-1.7l-159.3-7.5a4 4 0 01-1.7 2.2c-1.3.8-2.8.8-3.9.2l-102.1 114 .4.4c1 1.6.4 3.7-1.4 4.8-1.7 1-4 .8-4.9-.8a3 3 0 01-.3-2l-110.8-13.3c-.3.8-.8 1.5-1.6 2-1.7 1.1-4 .8-5-.8-.2-.4-.3-.9-.3-1.4l-153.4 6.6a4 4 0 01-1.8 2.5c-1.7 1-4 .8-4.9-.8a3 3 0 01-.2-2.7l-41.4-13-143 54.3c.3 1.4-.3 2.8-1.7 3.7-1.7 1-4 .7-4.9-.8-.3-.5-.4-1-.4-1.5L-195 422a4 4 0 01-1.7 2.5c-1.8 1-4 .7-5-.8-.7-1.4 0-3.5 1.7-4.6zm1616.2-716.2l-165.1 37c0 .4-.1.9-.3 1.3l128.7 55.4c.3-.4.7-.8 1.1-1 .9-.6 1.9-.8 2.7-.6l34.7-90.2a3 3 0 01-1.6-1.1l-.3-.8zm-1098 664.1c.2-.5.6-.9 1-1.3l-52.6-60.2c-1.3.3-2.5 0-3.2-1l-74.1 51.1 129 11.4zm392.5-99.5l1-.4-9.7-148.6c-1.2 0-2.3-.3-3-1.2l-79 44.2c.5 1.2.2 2.6-.9 3.7l91.5 102.4zm108.8-105.3c.6-.3 1.2-.5 1.8-.5l20.2-137.8c-.8 0-1.4-.4-2-1l-134 90.6c.3.8.3 1.8 0 2.7l112.8 47.1c.4-.4.7-.8 1.2-1zm559.6-364.8l-128.7-55.5c-.3.5-.7.8-1.1 1.1l-1.2.5 6.7 77.2c1.3 0 2.5.3 3.2 1.4.2.2.2.6.3.9l120.6-24.3c0-.5 0-1 .2-1.3zm-291.6-99.9l-55.2 106.8c.5.2 1 .5 1.2 1l78.8-43.2c-.6-1.5 0-3.3 1.6-4.3h.3l-24.5-60.5c-.8.3-1.5.4-2.2.2zM738-245.1l50 95c1.7-.7 3.5-.3 4.3 1l.1.2 76.8-37.3c-.3-.8-.2-1.5 0-2.3l-130.1-57.4-1 .8zM674.5-80l.2.7 63.4-5.7 48.6-59.5c-.2 0-.4-.2-.5-.4L674.5-80zM69 240.5a4 4 0 01-1.3 1.7L141.5 346l41.3-100-113.7-5.5zM-5.7 321c-.7-.1-1.3-.5-1.7-1L-114 387.2v.1l99.9-33.8 8.4-32.6zm-108 67.2c0 .5 0 1-.3 1.5l80.9 25.2a3.8 3.8 0 013.6-2.1l15-58.3-99.3 33.7zm-.6 2c-.3.6-.7 1.1-1.3 1.5-1.7 1-4 .8-4.9-.8l-.1-.4-6.3 2.6 87.3 20.4-74.7-23.3zm-6.5-.1v-.3l-11.6 2 4.6 1.1 7-2.8zm156.6-55.5c.3-.5.6-.9 1.2-1.2.4-.3.8-.4 1.2-.5L4.3 321.2l31.5 13.4zm6-.5c.4.7.5 1.5.4 2.3l11.1 1.7-11.5-4zm-6.3.9l-37-15.8c-.4.5-.7 1-1.2 1.2-.8.5-1.5.6-2.3.6l-8.4 32.4 48.5-16.5c0-.6.1-1.3.4-1.9zm-202.9 62.6l32-5.7-14.3-3.3-17.8 8.6.1.4zm-.4-1.2l16.8-8-24-5.6c-.3.6-.7 1.1-1.4 1.5l-.3.2 4.7 11c1.6-.7 3.4-.4 4.2 1zm18-8.6l4-2-26.4-3.2 22.3 5.2zm1.2.3l15.1 3.5 12.6-2.2v-.6l-23.3-2.8-4.4 2zm27.9.2c.2-.8.8-1.6 1.6-2.1 1.7-1 3.6-.8 4.6.5L-10.3 321l-133.2 64.5 22.8 2.8zm160.1-56l1-3.6L3.9 320l35.6 12.3zm.6.2l18.5 6.3 72.2 11-89.6-21-1 3.7zM389.3 313c.2-.6.6-1 1-1.5L341 253l-17.2 11.5-.7 42.4 66.3 6.1zM699 116.6c-.3-.7-.3-1.4-.1-2.2L644.2 96l-25.8 64c.5.2 1 .5 1.4 1l79-44.3zM839 22.2l-.3-1.2-118 2.4-17.5 88.4c.7.1 1.3.5 1.7 1l134.1-90.6zm273.6-259.5l-.2-.2-78.8 43.2c.5 1.1.2 2.4-.7 3.4l16 16 63.7-62.4zM673-75.9c-.2.2-.5.2-.7.3l13.6 51.2c.8-.2 1.7-.1 2.5.2l24-29.5-38.5-23-1 .8zM643.5 95.6L559 66.9l56.5 93.1c.7-.3 1.4-.4 2.1-.4l25.9-64zm87.3-134.3l-21.3 23.2 17.1 4.6 5.4-27.4c-.4 0-.9-.2-1.2-.4zm-.4-.4l-.5-.5-40 17.4v1.5l19 5L730.4-39zm-41 19.2c-.3.5-.7 1-1.4 1.5l-.9.4 2.7 23 18.4-19.9-18.8-5zm-13 43.4l14.7-.3-2-16.6-13.7 14.9.5.5c.3.5.4 1 .4 1.5zm-.2.8a4 4 0 01-1.7 2.4l-.4.2 27.3 84.5L691.2 24l-15 .3zm-1.2-3.2L689 6 686.4-18h-.7L674 20.8c.4 0 .7.2 1 .4zm61.3-64.5l117.2-51-.1-.3L757-86l-22 41.4c.4.3.9.6 1.2 1v.2zm-1.5 4.6c-.6.4-1.3.5-2 .5l-5.3 27.6 111.8 29.9-103.6-58.8-.9.8zM839 20L727.3-9.8l-6.4 32.4 118-2.4V20zM726.4-10l-17.7-4.7L690 5.8l2 17.4 28-.6 6.5-32.6zM692 24l10.2 87.8h.2L720 23.4 692 24zm8.5 88.3l.4-.1-27.5-85-1.6.2L644.5 95l54.7 18.6c.4-.5.7-1 1.3-1.3zM671 27.1a3 3 0 01-1.5-1.1l-.2-.7-115.5 33 4.4 7.5 85.5 29L671.1 27zM557.6 66.4L546 62.6l-.7.8 65.2 90.3-53-87.3zm-11-6.8v.2l6-1.8-1-1.3-5 2.9zm.2.8c0 .5 0 1-.2 1.3l10.3 3.5-4-6.6-6.1 1.8zM540.2 74l-32 120 3.2 3.3 3.8-1.3 25-122zM289 149.3l-10.7 73.4 42.3 8.5a4 4 0 011.5-1.7l.2-.1-32-81.8-1.3 1.7zM219 244.5l.7.7.4 1.2 5.8-.8-3.7-5.4-3.2 4.3zm47.3 54.3l8.7-59.5-23.9 3.4-24 3.3 37.7 53.3c.5-.3 1-.4 1.5-.5zm54.1-66.9l-42.1-8.5-2.2 15.2 44.3-6.2v-.5zm1 3l-.7-.7-.4-1.2-44.3 6.2-8.8 59.6 1.2.3 53-64.3zm-95 11.2l-6.4.9c0 .8-.4 1.6-1 2.2l4 4.7 39.8 43.9-36.4-51.7zm.4-.7L251 242l24.2-3.3 2.2-15.5-37.2-7.4-17.5 23.7 4.1 6zm50.7-22.8l10.6-71.8-47.4 64.3 36.8 7.5zm111.8-2.6l31.1-20.7v-.2l-92 32L389 220zm113.6-20.6l-48.7-1 44.6 1.8 4.1-.8zm4.8-3.5c.7.2 1.4.6 1.8 1.3.2.2.2.4.2.6l1-.3-2.7-2.8-.3 1.2zm3.4 2l-1.1.5c0 .5 0 1-.2 1.4l1.6.4.8-1.2-1-1zm.1 2.7v-.2l-1.5-.3-.3.5h1.8zm-8.3-.3h-.2.2zm-6.7.3l-69-2.6c0 .3-.2.5-.3.8l20.3 10.7 49-8.9zm-69.8-1.1a6 6 0 01-1 .8 4 4 0 01-2.2.6l-3.6 13.6 26.2-4.8-19.4-10.2zm-4 1.3c-.6-.1-1.1-.4-1.5-.9l-29.6 19.7 27.5-5 3.7-13.8zm4-5.7l.5.5c.3.6.4 1.2.3 1.8L503 199c.1-.7.5-1.2 1-1.8l-40.4-44.5-37.2 42.5zm85.6 2.6l.8.8.2-.2a4 4 0 012-.6l.3-1.1-3.3 1.1zm-.8 3.5h-2.2l-.6.5 1.8 3 1.6-1.5c-.1 0-.2 0-.2-.2-.4-.5-.5-1.2-.4-1.8zm-8-.3l-3-.1-51.9 9.3 30.7 16.2 24.6-24.8-.3-.3-.1-.3zm-115.7 20.3l-60 10.8c-.1 1-.5 1.8-1.2 2.4L341 252l46.4-30.8zm-61.8 13.7h-.1c-.4.4-1 .6-1.4.7l-.4 27.9 16.6-11.1-14.7-17.5zm-2.3.7c-.6 0-1.1-.2-1.6-.4l-53 64.3.3.3 53.9-35.8.4-28.4zM218.2 244l.2-.2 3.1-4.5-20.7-29.3 14.6 34c1-.3 2-.3 2.8 0zm209-131.3c-.4.3-1 .5-1.5.6l-1.8 80.9c.7 0 1.2 0 1.7.3L463 152l-35.6-39.4-.2.2zM546 58.7l.3.2 5-3-1.1-1.8-4.2 4.6zm143-82.4l.6.5v.2l40.1-17.5c-.2-.8 0-1.7.5-2.5l-17-10.3-24.2 29.6zM757.6-87l95.8-8.6c.1-.6.3-1.2.7-1.7l-62.5-47.7-.6.5c-1 .7-2.1.8-3 .5l-30.4 57zm34.4-58.4l62.6 47.7.6-.5c.6-.4 1.3-.6 2-.6l8.2-48.6-72.7.6c-.1.5-.4 1-.7 1.4zm82.2-39.5c-.6.4-1.3.5-2 .6l-6 36.1 77.3-.6-68.3-37-1 .9zm71 36h11.5c0-.2.2-.4.3-.5v-.2l-75.8-33.9 64 34.7zm17.4 2.5l-.7.6-.5.2 1.4 6.2 28.8 15.6-29-22.6zm-2.2 1.2c-1.3.2-2.7-.3-3.4-1.4l-4 2 8.6 4.7-1.2-5.3zm-3.6-2l-.2-.9-9.9.1 5.7 3.1 4.4-2.2zm71.8-42.6c-.5-.3-.9-.5-1.2-.9l-59 37.2c.8 1.5.2 3.5-1.5 4.5-1 .7-2 .7-3 .5l-.2.4c-.2.5-.4 1-.8 1.4l29.5 23 .6-.6c1-.7 2-.8 3-.5l32.6-65zm-77 45.3l-6.6-3.5-79 .6-8.2 48.6c1 0 1.8.5 2.3 1.3l91.5-47zm-337 305L544.6 64c-.5.3-1.2.4-1.8.5l-26.7 131.2 97-31.8c-.2-1.1.4-2.3 1.3-3.2zm-167.7 49.8l-27.7 5-25.3 95 1 .5 83.3-84-31.3-16.5zm-56 100.5c.8-.5 1.6-.6 2.3-.6l25.3-94.8-29 5.3-48 31.8L391 311v-.1zm-127-11L244 278.2l19.5 22.2.3-.3zM214 250c-.3-.2-.6-.4-.7-.7-.4-.5-.5-1.2-.4-1.8l-22-1-11.7 50.8 34.8-47.3zm-12.5-40.3l20.5 29.2 16.5-23.3-36-7.2c-.2.5-.6 1-1 1.3zm86.7-60.5l.2-1.4-.8-.3-47.8 67.4 48.4-65.7zm5-5.4l-.4.4c0 .4 0 .7-.2 1l26.6 10.6-1-18.3-25 6.3zm-1 2.2l-1.1 1.1-.3.1 32.1 82h.3l-3.9-72.5-27-10.7zm31.8 83c.6 0 1.2 0 1.7.3l43.9-52.6-49.6-19.7 4 72zm2.4.8l.5.5.2.5 93-32.2c-.2-.6 0-1.2.2-1.8l-50-19.8-44 52.8zm94.3-33.7v-.2l-39.3-32.2-10.5 12.6 49.8 19.8zm.7-.7c.2-.2.3-.4.5-.4l1.5-.6 1.8-80.9c-.6 0-1.1 0-1.6-.3L382 163l39.4 32.3zm42.1-44l1-1-25-25.4 24 26.5zm.6.7l40.4 44.6c.6-.4 1.2-.6 1.8-.6l.3-2.5L465 151l-1 1zm42.6 40.4l13.8-104.8-55 62.7 41.2 42.1zm1 .4l34.2-128.5-.7-.2-19.6 22.3-14 106.4zM545.2 58l4.4-4.7L531 22.7 542.3 58c1-.4 2-.3 2.9.1zm5.5-4.7l1.3 2.1 57.5-33-29.7-1-29 31.9zm1.7 2.8l1 1.6 115.7-33.1v-.4L611 22.5l-58.5 33.7zm116.8-32.7a4 4 0 011.7-2.3l1.4-.5-.6-33.1-59.5 34.2 57 1.7zm3.7-2.8h.5L685.1-18a3 3 0 01-1.8-1.1l-10.8 6.2.5 33.5zm10-40.4v-.2L672.3-17v3.5l10.6-6.1zm-.2-1c0-1.2.6-2.4 1.8-3.2l.6-.3-13.5-51.2h-.2l1 57.5 10.3-2.8zm30.6-33l17 10.2 1-.8c1-.6 2-.7 3-.5l21.8-41-17.9 1.6-25 30.5zm43.4-33l30.4-57.3-48 58.8 17.6-1.6zm36-60.9l72.7-.5 6.1-36.1c-1-.2-1.7-.6-2.3-1.4v-.1l-76.7 37.2.2 1zm82.9-38.9l81.6 36.4c.3-.5.7-1.1 1.4-1.5l.5-.2-9.7-37.9-73.5 2.5-.3.7zm84.3 34.3a4 4 0 011.8 0c.2-.8.8-1.6 1.7-2.2 1.6-1 3.7-.8 4.7.6l59-37.3c-.3-.3-.4-.7-.3-1.2l-76.4 2.5 9.5 37.6zm72.3-38l-.2.1c-1 .7-2 .8-3 .5l-32.6 65c.2 0 .3.2.5.3l51.2-50-15.9-16zm-40.7 67.5L963-138.2l5 21.4 23.2-4.4c0-.5.1-1 .4-1.5zm-29.7-16l-9.6-5.3-92 47.2c0 .2.1.3 0 .4L967-116.6l-5.1-22.2zM853.8-93.5v-.2l-117.2 51c.1.8 0 1.6-.4 2.4l103.5 58.7 1-.8c.5-.3 1.1-.5 1.7-.6L856.1-92a3 3 0 01-2.3-1.3zM515.9 196.4l-.2 1.3a3 3 0 012 1.3l.2.5 84.4-31.4-86.4 28.3zm-3.7 7.4l-1.7 1.5 32.4 51.3-27-52.6c-1.4.6-2.7.5-3.7-.2zm32 56l-34.1-54-25.6 23.5 59 31.2.7-.7zm-34.5-54.7l-2-3c-1.2.7-2.7.6-3.7 0l-24.5 24.6 4.3 2.3 25.9-24zm-30.8 22.2l-73.5 74 77.7-71.8-4.2-2.2zM323 265l-53.4 35.4c.2.6.3 1 .2 1.7l52.5 4.8.7-42zm-53.3 37.8c-.2.6-.6 1-1 1.6l47.3 56 4 4.6c.4-.3.9-.5 1.4-.6l1-56.9-52.7-4.7zm-1.6 2h-.1l-.4.2 21.9 25-21.4-25.2zm-5-3.6l-44.8-51.3c-1 .6-2 .7-2.9.6l-37.1 85.6 84.5-33c-.1-.6 0-1.3.3-2zm-48.3-51h-.1L178.9 299l-9.3 40.7 7.6-3 37.5-86.3zm-53.3 121l3.9-16.9-19.1-1.7 13.5 19.1c.5-.3 1.2-.4 1.7-.4zm4.1-17.8l2.9-12.7-24 9.4 1 1.6 20.1 1.7zm-22-3l-.4.2v.8l1.1.2-.7-1.1zm-5.3-1.7c.8-.4 1.6-.6 2.4-.5l.5-1.1-59.5-83.9 56.6 85.5zm3.1-.2h.1l.4-.4-.2-.2-.3.6zm.8.4l.7.7.1.3h.2l-1-1.2v.2zm1.9.6l24.6-9.6 9-39.3-34.8 47.3 1.2 1.6zm25.4-9.2l-3 13.2 3.4.3 7.1-16.4-7.5 3zm-3.2 14l-3.7 16.1 6.9-15.7-3.2-.3zm-21.3-1.8l-2-.2a4 4 0 01-1 1.5l16 17-13-18.3zm46.1-107l22 1.1a4 4 0 011.7-2.2h.3l-14.6-34.1c-.5.2-.9.3-1.4.3l-8 35zm127.2-108.8l-1.2-23c-.6 0-1.1 0-1.6-.3l-21.6 29.3 24.4-6zM531.9 22.2l18.4 30.5 28.5-31.1-45.5-1.3a4 4 0 01-1.4 2zM674.1-77l38.6 23 24.6-30-62.7 5.6c0 .5-.2.9-.5 1.4zm468.5-4.5l.8-.3-27.7-154.3c-.9.1-1.8 0-2.4-.5l-63.9 62.3 93 93 .2-.2zm-1006 432a4 4 0 011-1.2L67 242.7c-.6.4-1.3.5-2 .5l-23.7 84.9 95.2 22.3zm5.4-3.6l.4.5 35.6-48.4 12-52.6-6.2-.3L142 346.8zm48.1-101.3l7.7-33.5-13.8 33.2 6.1.3zm12.4-40.1c.4.6.5 1.4.3 2.2l36.1 7.2 48-67.8-.4-.4-84 58.8zm90.2-62.5l17.4-23.6-18.3 22.3.7.7.2.6zm26.2-29.8c-.4.3-.8.4-1.2.5l1.2 22.9 22.5-5.7-22-18c-.2 0-.4.2-.5.3zm0 24.1L320 156l50.2 20 10.7-12.8-38.8-31.8-23.1 5.8zm62.5 25.3l41.5-49.9-.5-.5c-.2-.2-.2-.5-.3-.8l-79 19.9 38.3 31.3zM428 112l37 37.7 55.6-63.6 2.2-16.2-93.9 39c.3 1 0 2.2-.9 3.1zm93.8-27.2l18.7-21.4-.5-.4-.1-.4-16.2 6.8-2 15.4zm18-22.7c-.4-1.4.2-3 1.6-3.8l.6-.2L530.6 23l-.7.1-6 45.7 15.8-6.6zm-6.4-42.7l46 1.4 16.5-18-62.5 16.4v.2zm47.2 1.4l30.2.9 61-35V-17L597.4 2.5l-16.8 18.4zm91.2-38.7l-1-57.5c-.6 0-1.3 0-1.8-.4L598.4 1.4l73.4-19.2zM876-188l73.2-2.4-28-109.7H920l-45.7 109.5a3 3 0 011.5 1c.3.6.4 1 .4 1.6zm46.5-112.6c-.1 0-.3 0-.5.2l28.1 110 76.7-2.6c.1-.6.4-1.1 1-1.7l-105-106.1-.3.2zm196.2 62.1l133.2 60.8c.3-.4.6-.8 1-1l1.2-.5-6.7-77.3c-1.2.2-2.5-.3-3.1-1.3l-.4-1-124.9 19.2c0 .4-.1.8-.3 1.1zm132.8 61.5l-133.2-60.7c-.3.4-.6.8-1 1l-.8.3 27.6 154.3c1-.2 2 0 2.6.6l105-92.3-.1-.2c-.6-.9-.5-2 0-3zm-109.9 96.3l-93-93-51.1 50 .3.3c.4.8.5 1.7.3 2.5l143.1 40.8.4-.6zm-150.1-38.7l-.4-1L968-116l29.3 128.5-2.9-130.6c-1.2 0-2.2-.3-2.8-1.3zM996 14l.5-.2-29.5-129.7-106.7 20.2c0 1.2-.6 2.4-1.7 3.1-.6.4-1.2.5-1.8.6L843 17c1 .1 1.9.6 2.4 1.4.3.4.4 1 .4 1.5l148.4-3.5a4 4 0 011.8-2.5zM613.4 164.5L518.1 200c.3 1.4-.4 2.9-1.8 3.8l28.7 55.6c1-.4 2-.5 3 0l66.4-93.6-.8-.8-.2-.5zm-70.3 96.7L483.9 230l-88.3 81.6.2.2.2.5 146.6-49c0-.7.2-1.4.5-2zm-153.9 52.5l-66.2-6-1 56.7c1 0 1.7.3 2.4.9l65.2-49.6c-.5-.6-.5-1.4-.4-2zM263 303.9v-.2L177.8 337l-7.3 16.8 17.7 1.6L263 304zm-92.9 50.8l-7.2 16.8c.4.2.7.4 1 .8l23.2-16-17-1.6zm-11.3 17.7L141.7 354l-.3.2c-1.7 1.1-4 .8-5-.7v-.3l-17 6.5 38.8 13.3c.1-.3.4-.5.6-.7zm-22.7-19.9v-1.1L61.8 340l56.3 19.3 18-6.8zM35.4 337.7l-49.1 16.6-15.2 58.6c.4 0 .7.1 1 .3l64-74.5-.6-.5-.1-.5zm-163.6 56l-18.4 7.4 109 13.7-90.6-21.1zm-.9-.3l-5.3-1.2-33 5.8v.5l19.7 2.5 18.6-7.6zm-38.5 5.8a4 4 0 01-1.6 2c-1.5 1-3.3.8-4.4-.3l-21.8 18.7.3.2.1.4 45.9-18.6-18.5-2.4zm224.3-60l-13.6-2 73.1 22.9.6-.3-60-20.6zm-252.4 80.1l21.9-18.6-.3-.2c-1-1.5-.3-3.7 1.4-4.8l.4-.1-4.7-11c-.8.4-1.7.4-2.4.2l-17 34c.2 0 .5.3.7.5zm21.1-37.5l29.6 3.6L-12.2 321l-162.3 59.8v1zM-1 318.1l41.7 9.8 23.7-84.7a3 3 0 01-1-.4l-65.2 72.4.5.5c.4.7.5 1.6.3 2.4zM69 239.7l114 5.5 14.4-34.9c-.5-.2-1-.5-1.4-1l-.3-.9-126.7 31v.3zm217-93.6c-.8-1.4-.2-3.5 1.5-4.6 1.3-.8 2.8-.8 3.9-.2l23.1-28v-.2-.1L206.1 202l80-56zm33.8-34l22.5 18.5 79.5-20v-.2l-101.3.3c-.1.5-.3 1-.7 1.5zm108.9-3.7l94-39.2 6.1-46c-.6-.1-1.1-.4-1.6-.8L428.5 108l.2.2v.3zm104.4-90L597 1.9l71.4-78L533.1 18l.1.5zm141-99.1l111.7-64.9c-.6-1.4 0-3.2 1.4-4.2l-50-95a4 4 0 01-2 .4L672.9-81.7c.5.2 1.3 1 1.3 1zm65.2-166l130.3 57.4 1-1a4 4 0 012.8-.6l45.8-109.5a3 3 0 01-1.5-1.1l-.2-.5-177.8 53.7c0 .5 0 1-.4 1.6zm184.1-54.8l105 106.1.2-.1c1-.7 2-.8 3-.5l55.1-106.8c-.5-.3-1-.6-1.2-1-.3-.5-.4-1-.4-1.6L924.4-303c-.2.6-.4 1-.9 1.6zm167-1.6l-.3.1 24.5 60.4c1.5-.6 3.3-.2 4 1 .3.4.4.8.5 1.2l124.9-19.3v-.7l-152.3-44.1c-.3.5-.7 1-1.3 1.4zm288.4 102.4l-120.6 24.3c0 1.2-.6 2.4-1.8 3.1h-.2l34.9 86.5c1-.4 1.9-.3 2.7 0l86-112.3-.7-.7c-.2-.3-.2-.6-.3-1zm-88.6 114.2l.2-.1-34.8-86.4c-1.2.4-2.4.3-3.3-.4l-105 92.4.1.1c.3.5.4 1 .5 1.5l140.5-4.6c.3-1 .8-2 1.8-2.5zm-149.4 7l-143.2-40.7c-.3.6-.7 1-1.3 1.5a5 5 0 01-1.2.5l3 131.6c1 0 1.8.4 2.4 1l140.5-91.6c-.4-.7-.4-1.5-.2-2.2zM994.2 17.3l-148.4 3.6a4 4 0 01-1.7 2.4h-.1l52 130.4c.9-.3 1.7-.2 2.5 0l96.9-134.1-.7-.7c-.3-.5-.4-1-.5-1.6zM895.1 154h.1l-52-130.4a3 3 0 01-.9.2l-20.2 137.7a3 3 0 012.3 1.3c.3.4.4 1 .4 1.4l68.5-7.4c0-1 .7-2.1 1.8-2.8zm-77.1 9.9l-113-47.2c-.2.4-.6.8-1 1.1-.4.3-.8.4-1.1.5l9.8 148.5c.8 0 1.5.2 2.1.6L818.4 167l-.3-.3c-.6-.9-.5-2-.1-3zM709 269.6c.1-.5.5-1 1-1.5l-91.5-102.4c-1.2.8-2.5.8-3.5.4l-66.4 93.6.7.7c.4.6.4 1.2.4 1.8l159.3 7.4zm-166.1-5.7l-146.6 49c.1 1.1-.5 2.3-1.6 3.2l43 62.9c1.2-.7 2.6-.7 3.6-.1l102.2-114-.5-.5-.1-.5zM435.9 381c.2-.6.6-1.2 1.2-1.7l-42.9-62.9c-1.5.9-3.2.7-4.2-.4l-65.2 49.6c.4.7.5 1.4.4 2.1L435.8 381zM188 356.3l-23.8 16.4c.3.4.4.9.4 1.3l150.4-6.4-127-11.3zm-70.1 4l-.6.2 13.8 4.3-13.2-4.5zm-76.3-22.8c-.3.5-.7 1-1.3 1.4-1.2.8-2.7.8-3.8.2l-64 74.4.5.6.1.3 141.9-54-73.4-23zM-148 401.7l-46.7 19v.6l159.7-5.4-113-14.2z" opacity=".6"/><path fill="url(#paint0_linear)" d="M1961.2 268.3l-42.6-19.7-9.9 51.8 52.5-32z"/><path fill="#3A8DDE" d="M2307 502.2l28.9 26.3 20.8-38.6-49.7 12.3zM2409.2 160.8l20.8 11.7 7-25.9-27.8 14.2z"/><path fill="url(#paint1_linear)" d="M501.4 288.8l46.6-5.6-19-49.2-27.6 54.8z"/><path fill="#3A8DDE" d="M1728.7 316.8l-3 37.4 34.7-7.7-31.7-29.7z"/><path fill="#45A041" d="M2044.3 582.9l-20.6-31.3-22.7 27.3 43.3 4z"/><path fill="#194F90" d="M2223.7 310.3l-4.5-23.6 27.6 11.5-23 12.1zM117.7 404.3l-4.5-23.6 27.6 11.5-23 12.1z"/><path fill="#45A041" d="M249 186.9l-7.8-30.2-25.2 15.4 33 14.8z"/><path fill="url(#paint2_linear)" d="M615.1 189.2l-25.8-13 32-16.7-6.2 29.7z"/></g><defs><linearGradient id="paint0_linear" x1="1956.9" x2="1901.7" y1="259.4" y2="285.9" gradientUnits="userSpaceOnUse"><stop stop-color="#3A8DDE"/><stop offset="1" stop-color="#80C67D"/></linearGradient><linearGradient id="paint1_linear" x1="509.8" x2="542.6" y1="294.2" y2="242.6" gradientUnits="userSpaceOnUse"><stop stop-color="#3A8DDE"/><stop offset="1" stop-color="#80C67D"/></linearGradient><linearGradient id="paint2_linear" x1="620.1" x2="598.4" y1="154.2" y2="174.4" gradientUnits="userSpaceOnUse"><stop stop-color="#3A8DDE"/><stop offset="1" stop-color="#0090D0"/></linearGradient><clipPath id="clip0"><path fill="#fff" d="M0 0h2500v647H0z"/></clipPath></defs>
</g>
</svg>