<svg xmlns="http://www.w3.org/2000/svg" viewBox="0 0 514 72.7"><path d="M397.09 13.42l-4.14 3.79h-.03l-4.32-3.8h-9.25l-5.2 5.98-5.89-5.97v39.77h11.8V25.83h5.3l1.66 2.83v24.53h11.8l-1.22-1.38 1.25 1.38V28.66l1.83-2.83h3.64l1.54 2.83v24.53H418V22.48l-9.33-9.07H397.1zM128.07 13.97h-8.56l-6 5.7-6.01-5.7V67h12.01V53.26l-.16-.17.16.17h17.03l10.49-9.08V24.87l-10.49-10.9h-8.47zm8.15 23.33l-4.33 4.02h-12.38V25.9h12.38l4.33 4.68v6.72zM232.5 38.15V27.76h12.72v-11.7H232.5l-6.07-6.54-6.09-5.85v40.59l11.88 8.93h15.1V41.44h-9.84l-4.98-3.29zM201.05 14.67h-17.19l-10.59 8.9V42.5l10.6 10.68h17.18l6.06-5.59 6.07 5.6V26.36l-6.07-5.63zm0 26.81h-12.5l-4.36-4.58v-6.59l4.36-3.94h12.5v15.11zM342.17 14.54l-6.06 6.13-6.1-6.13v38.65h12.16V26.28h12.53l7.53 7.62V20.65l-7.84-6.22-12.22.11zM253.26 9.95V53.2h12.15V38.82h12.72V27.1h-12.72v-10.4l4.98-3.94h9.85V1.03h-15.1l-11.88 8.92zM159.65 7.56l-6.08-6.53V27.1l.03.02-.03-.02v26.08h12.16V27.1l-.01.01V14.06l-6.07-6.5zM295.05 14.48l-10.97 8.94v19.03l10.97 10.73h17.97L324 42.45V23.42l-10.98-8.94h-17.97zm17.64 22.34l-4.53 4.6h-8.25l-4.52-4.6V30.2l4.52-3.96h8.25l4.53 3.96v6.62zM436.42.77l-11.25 10.35v31.22l11.25 10.35h18.16l11.26-10.35V11.12L454.58.77h-18.16zm17.82 25.96v9.66l-4.29 6.04h-8.9l-4.29-6.04V17.07l4.3-6.04h8.89l4.29 6.04v9.66zM504.1 21.92l-.39-.3.09.3h-.19l.1-.3H488.1l-3.17-2.97v-4.01l3.17-3.57h10.02l6.28 5.45 9.6-5.36L502.75.76h-18.17l-11.25 10.4V24l10.3 7.83h10.3v.04h4.24l4.24 2.94v4.01l-4.3 3.57h-8.9l-6.28-5.45-9.6 5.36 11.25 10.4h18.17L514 42.3V29.46l-9.9-7.53v-.01z"/><path fill="#3cd52e" d="M14.15 0h7.34L9.96 11.65 14.16 0z"/><path fill="#d70036" d="M6.02 30.82S.1 19.98 0 19.99l5.9.03z"/><path fill="#ea1d76" d="M5.9 20.02H18L6.02 30.82l-.13-10.8z"/><path fill="#ff8300" d="M17.55 40.31l.46-20.29-11.99 10.8 11.53 9.5z"/><path fill="#ffce00" d="M32.04 30.22l-14.5 10.1.47-20.3 14.03 10.2z"/><path fill="#3cd52e" d="M41.04 16.85L18 20.02l14.03 10.2 9-13.37z"/><path fill="#d70036" d="M35.72 0l-9.3 11.41 14.62 5.44L35.72 0z"/><path fill="#3e8ede" d="M57.55 0H35.73l5.32 16.85L57.56 0z"/><path fill="#ea1d76" d="M18.01 20.02l23.03-3.17-14.63-5.44-8.4 8.61z"/><path fill="#1d4f90" d="M61.7 16.85H41.03L57.56 0l4.13 16.85z"/><path fill="#47a141" d="M51.34 35.61l-19.3-5.4 9-13.36 10.3 18.76z"/><path fill="#005744" d="M61.7 16.85L51.33 35.61l-10.3-18.76h20.65z"/><path fill="#47a141" d="M68.94 30.22l-17.6 5.4 10.35-18.77 7.25 13.37z"/><path fill="#3cd52e" d="M65.74 41.17l-14.4-5.56 17.6-5.4-3.2 10.96z"/><path fill="#3e8ede" d="M57.55 0l15.9 13.09-11.76 3.76L57.56 0z"/><path fill="#00953a" d="M61.7 16.85l11.75-3.76-4.5 17.13-7.26-13.37z"/><path fill="#005744" d="M68.94 30.22l16.27 3.07-19.47 7.88 3.2-10.95z"/><path fill="none" d="M68.94 30.22l4.52-17.13-4.52 17.13z"/><path fill="#47a141" d="M85.21 33.3l.2 15.45-19.67-7.58 19.47-7.88z"/><path fill="#1d4f90" d="M65.74 41.17l19.67 7.57-14.86 2.48-4.81-10.05z"/><path fill="#3cd52e" d="M85.41 48.74l-7.63 16.83-7.23-14.35 14.86-2.48z"/><path fill="#3e8ede" d="M70.55 51.22l7.23 14.35-11.02-6.12 3.79-8.23z"/><path fill="#1d4f90" d="M77.78 65.57l-10.9 7.13-.12-13.26 11.02 6.13z"/><path fill="#3e8ede" d="M66.76 59.45l.12 13.25-5.47-8.6 5.35-4.65z"/><path fill="#1d4f90" d="M66.88 72.7H52.33l9.08-8.6 5.47 8.6z"/><path fill="#d70036" d="M61.4 64.1l-9.07 8.6 1.6-8.6h7.48z"/><path fill="#ea1d76" d="M53.93 64.1l-1.6 8.6-7-8.6h8.6z"/><path fill="#d70036" d="M53.93 64.1h-8.6l5.1-5.97 3.5 5.96z"/><path fill="#ff8300" d="M45.33 64.1V52.82l5.1 5.3-5.1 5.96z"/><path fill="#3cd52e" d="M73.45 13.09l11.76 20.2-16.27-3.07 4.52-17.13z"/><path fill="#47a141" d="M53.93 53.12l-1.16-5.77 8.6 3.88-7.44 1.89z"/><path fill="#3cd52e" d="M45.33 52.83l8.6.29-1.16-5.77-7.44 5.48z"/><path fill="#ffce00" d="M50.44 58.13l3.5-5.01-8.6-.3 5.1 5.31z"/><path fill="#47a141" d="M20.04 7.5l6.37 3.91-.3-7.73-6.07 3.82z"/><path fill="#3cd52e" d="M20.04 7.5l6.06-3.82L21.5 0l-1.46 7.5z"/><path fill="#00953a" d="M9.96 11.65L21.49 0l-1.45 7.5-10.08 4.15z"/><path fill="#005744" d="M26.41 11.41l-6.37-3.9-2.97 4.08 9.34-.18z"/><path fill="#47a141" d="M9.96 11.65L20.04 7.5l-2.97 4.09-7.11.06z"/><path fill="#ff8300" d="M5.9 20.02l11.17-8.43.94 8.43H5.9z"/><path fill="#d70036" d="M17.07 11.59l.94 8.43 8.4-8.6-9.34.17z"/><path fill="#ffce00" d="M5.9 20.02l4.06-8.37 7.11-.06L5.9 20.02z"/><path fill="#47a141" d="M33.15 40.3l-3.5 5.95h10.07l-6.57-5.96z"/><path fill="#3cd52e" d="M25.57 40.31l4.08 5.94 3.5-5.96-7.58.02z"/><path fill="#005744" d="M32.04 30.22l1.1 10.07 18.2-4.68-19.3-5.4z"/><path fill="#00953a" d="M39.72 46.25L51.34 35.6l-18.2 4.68 6.58 5.96z"/></svg>
