<svg fill="none" viewBox="0 0 204 37" xmlns="http://www.w3.org/2000/svg">
  <title>platformOS Logo</title>
  <g clip-rule="evenodd" fill-rule="evenodd">
    <g fill="#0a0c0b">
      <path
        d="m156.15 5.08173-1.647 1.51605-1.648-1.51605h-3.626l-2.043 2.37295-2.307-2.37295v15.62197h4.614v-10.74423h2.109l.659 1.12053v9.6237h4.615l-.462-.5273.462.5273v-9.6237l.725-1.12053h1.45l.593 1.12053v9.6237h4.746v-11.99662l-3.625-3.55944z" />
      <path
        d="m53.5859 14.3758-1.7138 1.582h-4.8777v-6.06424h4.8777l1.7138 1.84564zm-3.2298-9.16224h-3.3617l-2.373 2.24113-2.3729-2.24113v20.82934h4.7459v-5.4051-.0659l.0659.0659h6.7234l4.1527-3.5594v-7.64625l-4.1527-4.28451z" />
      <path
        d="m91.4214 14.7713v-4.0867h5.0096v-4.61411h-5.0096l-2.4389-2.5707-2.4389-2.30704v15.95155l4.68 3.4935h5.9324v-4.6141h-3.889z" />
      <path
        d="m79.0952 16.0896h-4.8778l-1.7138-1.7797v-2.5708l1.7138-1.516h4.8778zm0-10.48059h-6.7234l-4.1527 3.49352v7.44847l4.1527 4.2186h6.7234l2.3729-2.1752 2.4389 2.1752v-10.5465l-2.4389-2.17522z" />
      <path
        d="m134.596 5.54315-2.439 2.43887-2.439-2.43887v15.16055h4.812v-10.5465h4.944l2.966 3.0321v-5.27319l-3.098-2.43888z" />
      <path
        d="m99.595 3.76342v17.00618h4.746v-5.6687h5.009v-4.6141h-5.009v-4.08676l1.977-1.51606h3.889v-4.614083h-5.932z" />
      <path d="m62.8141 2.77468-2.4389-2.570701v10.216921 10.2169h4.746v-10.2169-5.14143z" />
      <path
        d="m122.929 14.244-1.78 1.7797h-3.23l-1.779-1.7797v-2.5707l1.779-1.5161h3.23l1.78 1.5161zm-6.921-8.76677-4.285 3.49353v7.44844l4.285 4.2186h7.053l4.284-4.2186v-7.38253l-4.284-3.49352h-7.053z" />
      <path
        d="m178.628 10.289v3.7572l-1.648 2.373h-3.494l-1.648-2.373v-7.51434l1.648-2.37296h3.494l1.648 2.37296zm-7.053-10.150941-4.417 4.086761v12.26028l4.417 4.0868h7.119l4.416-4.0868v-12.3262l-4.416-4.0867564z" />
      <path
        d="m198.204 8.44341-.197-.13183.066.13183h-.066l.066-.13183h-6.131l-1.252-1.18648v-1.58197l1.252-1.45014h3.955l2.505 2.17521 3.757-2.1093-4.416-4.0867564h-7.119l-4.416 4.0867564v5.00958l4.021 3.09802h4.02 1.648l1.648 1.1865v1.582l-1.648 1.4501h-3.493l-2.505-2.1752-3.757 2.1093 4.416 4.0867h7.119l4.416-4.0867v-5.0096z" />
      <path
        d="m74.3475 35.4477h3.6431c3.0708 0 5.1925-2.1356 5.1925-4.8854v-.0279c0-2.7498-2.1217-4.8574-5.1925-4.8574h-3.6431zm3.6431-8.2074c2.0519 0 3.3919 1.4097 3.3919 3.322v.0279c0 1.9123-1.34 3.2942-3.3919 3.2942h-1.9262v-6.6441zm11.9375 8.3749c3.001 0 5.1226-2.3031 5.1226-5.0529v-.0279c0-2.7498-2.0937-5.0249-5.0947-5.0249s-5.1227 2.3031-5.1227 5.0528v.0279c0 2.7498 2.0937 5.025 5.0948 5.025zm.0279-1.5912c-1.9402 0-3.3221-1.5634-3.3221-3.4617v-.0279c0-1.8983 1.354-3.4477 3.2942-3.4477 1.9401 0 3.322 1.5773 3.322 3.4756v.0279c0 1.8984-1.3539 3.4338-3.2941 3.4338zm11.705 1.5912c1.829 0 2.946-.67 3.965-1.7308l-1.103-1.1167c-.838.7817-1.605 1.2563-2.806 1.2563-1.8701 0-3.2241-1.5494-3.2241-3.4617v-.0279c0-1.9123 1.3679-3.4477 3.2241-3.4477 1.117 0 1.954.4886 2.736 1.2144l1.103-1.2702c-.935-.8933-2.024-1.5214-3.825-1.5214-2.9589 0-5.0387 2.2751-5.0387 5.0528v.0279c0 2.8056 2.1217 5.025 4.9687 5.025zm9.775-.014c2.554 0 4.202-1.4656 4.202-4.3828v-5.5414h-1.717v5.6251c0 1.8006-.936 2.7079-2.457 2.7079-1.535 0-2.471-.9631-2.471-2.7777v-5.5553h-1.716v5.6251c0 2.8335 1.619 4.2991 4.159 4.2991zm6.558-.1535h1.689v-6.9791l3.057 4.5783h.056l3.085-4.6062v7.007h1.716v-9.7707h-1.828l-2.973 4.6201-2.973-4.6201h-1.829zm12.118 0h7.314v-1.5354h-5.597v-2.6242h4.899v-1.5354h-4.899v-2.5403h5.527v-1.5354h-7.244zm9.351 0h1.689v-6.9512l5.388 6.9512h1.438v-9.7707h-1.689v6.7557l-5.235-6.7557h-1.591zm13.428 0h1.731v-8.1795h3.099v-1.5912h-7.928v1.5912h3.098zm4.559 0h1.759l1.005-2.3589h4.62l.991 2.3589h1.815l-4.3-9.8405h-1.591zm3.392-3.8804 1.675-3.9083 1.689 3.9083zm9.62 3.8804h1.731v-8.1795h3.098v-1.5912h-7.928v1.5912h3.099zm6.748 0h1.717v-9.7707h-1.717zm8.994.1675c3.001 0 5.123-2.3031 5.123-5.0529v-.0279c0-2.7498-2.094-5.0249-5.095-5.0249s-5.123 2.3031-5.123 5.0528v.0279c0 2.7498 2.094 5.025 5.095 5.025zm.028-1.5912c-1.94 0-3.322-1.5634-3.322-3.4617v-.0279c0-1.8983 1.354-3.4477 3.294-3.4477s3.322 1.5773 3.322 3.4756v.0279c0 1.8984-1.354 3.4338-3.294 3.4338zm7.169 1.4237h1.689v-6.9512l5.388 6.9512h1.438v-9.7707h-1.689v6.7557l-5.235-6.7557h-1.591z"
        />
    </g>

    <path d="m5.59943-.191528h2.83436l-4.48225 4.548168z" fill="#5ab147" />
    <path d="m2.36954 11.9369s-2.3070425-4.2845-2.37295797-4.2845h2.30703797z" fill="#c5243e" />
    <path d="m2.36963 7.71832h4.74591l-4.74591 4.28448z" fill="#d6256b" />
    <path d="m6.98371 15.6282.13183-7.90988-4.74591 4.28448z" fill="#e87a2c" />
    <path d="m12.6524 11.6732-5.73468 3.955.19775-7.9758z" fill="#fac924" />
    <path d="m16.1458 6.46594-9.0963 1.2524 5.471 4.02086z" fill="#5ab147" />
    <path d="m14.1025-.191528-3.6912 4.482248 5.7346 2.17522z" fill="#c5243e" />
    <path d="m22.6714-.191528h-8.569l2.1093 6.591548z" fill="#4a80b5" />
    <path d="m7.11548 7.71832 9.09632-1.2524-5.8005-2.17521z" fill="#d6256b" />
    <path d="m24.2535 6.46594h-8.1076l6.4597-6.59155z" fill="#23487c" />
    <path d="m20.2326 13.7826-7.5803-2.1093 3.4936-5.27328z" fill="#419846" />
    <path d="m24.2535 6.46594-4.0208 7.38256-4.0208-7.38256z" fill="#024c3d" />
    <path d="m27.1537 11.6733-6.9211 2.1093 4.0868-7.38258z" fill="#419846" />
    <path d="m25.8354 16.0237-5.6028-2.1752 6.9211-2.1093z" fill="#5ab147" />
    <path d="m22.6714-.191528 6.262 5.141408-4.6141 1.45014z" fill="#4a80b5" />
    <path d="m24.2535 6.46595 4.6141-1.45014-1.7797 6.72339z" fill="#038c47" />
    <path d="m27.1538 11.6733 6.3938 1.1865-7.6462 3.098z" fill="#024c3d" />
    <path d="m33.4816 12.9257.066 6.0642-7.7122-2.9662z" fill="#419846" />
    <path d="m25.8354 16.0237 7.7122 2.9662-5.8665.9887z" fill="#23487c" />
    <path d="m33.6135 18.9899-3.0321 6.5915-2.8343-5.6028z" fill="#5ab147" />
    <path d="m27.7471 19.9786 2.8343 5.6029-4.3504-2.4389z" fill="#4a80b5" />
    <path d="m30.5814 25.5814-4.2845 2.7685-.0659-5.2073z" fill="#23487c" />
    <path d="m26.2969 23.1426.0659 5.2073-2.1752-3.4276z" fill="#4a80b5" />
    <path d="m26.3629 28.3499h-5.7347l3.5595-3.4276z" fill="#23487c" />
    <path d="m24.1877 24.9882-3.5595 3.4276.6592-3.4276z" fill="#c5243e" />
    <path d="m21.2214 24.9882-.6591 3.4276-2.7685-3.4276z" fill="#d6256b" />
    <path d="m21.2214 24.9882h-3.4276l2.0433-2.307z" fill="#c5243e" />
    <path d="m17.8597 24.9882v-4.4164l2.0434 2.0434z" fill="#e87a2c" />
    <path d="m28.9335 4.94989 4.614 7.97581-6.3938-1.1865z" fill="#5ab147" />
    <path d="m21.2214 20.7037-.4615-2.307 3.4277 1.516z" fill="#419846" />
    <path d="m17.8597 20.5719 3.4276.1318-.4614-2.307z" fill="#5ab147" />
    <path d="m19.8371 22.6811 1.3843-1.9774-3.4276-.1319z" fill="#fac924" />
    <path d="m7.90643 2.77472 2.50477 1.51606-.1318-3.03211z" fill="#419846" />
    <path d="m7.90643 2.77467 2.37297-1.51606-1.77973-1.450138z" fill="#5ab147" />
    <path d="m3.95154 4.35664 4.54817-4.548168-.52733 2.966198z" fill="#038c47" />
    <path d="m10.4112 4.29071-2.43883-1.51605-1.18648 1.58197z" fill="#024c3d" />
    <path d="m3.95154 4.35663 3.95493-1.64789-1.18648 1.58197z" fill="#419846" />
    <path d="m2.36963 7.71832 4.41634-3.29577.39549 3.29577z" fill="#e87a2c" />
    <path d="m6.71991 4.35669.39549 3.29577 3.2958-3.42761z" fill="#c5243e" />
    <path d="m2.36963 7.71832 1.58197-3.29578 2.76845-.06591z" fill="#fac924" />
    <path d="m13.0478 15.6282-1.3842 2.307h3.9549z" fill="#419846" />
    <path d="m10.0817 15.6282 1.5819 2.307 1.3843-2.307z" fill="#5ab147" />
    <path d="m12.6523 11.6733.4615 3.9549 7.1847-1.8456z" fill="#024c3d" />
    <path d="m15.6185 18.0011 4.6141-4.1527-7.1189 1.8457z" fill="#038c47" />
  </g>

</svg>