<svg xmlns="http://www.w3.org/2000/svg" fill="none" viewBox="0 0 946 53">
<g opacity=".4">
<mask id="a" width="946" height="53" x="0" y="0" maskUnits="userSpaceOnUse"><path fill="#fff" d="M0 0h946v53H0z"/></mask><g mask="url(#a)"><g opacity=".6"><path fill="#777FAD" d="M1034.8 210.9c-1.1.2-2.2-.2-3-.9l-29.3 23.3c.4.4.7.9.8 1.5.2 1.7-1.3 3.4-3.3 3.6-2 .3-3.8-.9-4-2.7v-.3L821.4 221a3.7 3.7 0 01-3.1 2.5c-1.5.2-3-.5-3.6-1.5l-88.4 37.6.2.7c.2 1.7-1.2 3.4-3.2 3.6-2 .3-3.8-1-4-2.7-.1-.2 0-.5 0-.8l-126.2-25c-.4 1-1.5 2-3 2.2-1.6.2-3.1-.7-3.7-2l-138.6 35.8v.1c.2 1.7-1.2 3.4-3.3 3.7-2 .2-3.8-1-4-2.8 0-.6.1-1.1.3-1.6L350.1 229a4 4 0 01-2.6 1.4c-1.6.2-3.1-.6-3.7-1.8l-124 35.4s.2.1.1.2c.3 1.7-1.2 3.4-3.2 3.6-1.8.3-3.4-.7-3.9-2.1l-160.1 28c0 1.7-1.3 3.2-3.3 3.4-.9.2-1.8 0-2.5-.5L-76.7 416c.4.4.8 1 .9 1.6.2 1.7-1.3 3.4-3.3 3.6-2 .3-3.8-1-4-2.7v-.5l-181.3-25.9c-.4 1.2-1.5 2-3 2.3-2 .3-3.8-1-4-2.7-.1-.5 0-1 .2-1.5l-144.7-64.9c-.6.8-1.5 1.3-2.5 1.5-2 .2-3.9-1-4-2.8a3 3 0 01.7-2.3L-539.5 219c-.5.4-1 .6-1.7.7-2 .3-3.9-1-4-2.7-.1-.3 0-.6 0-.8l-163-35.5c-.5 1-1.6 1.8-2.9 2-2 .3-3.8-1-4-2.7-.3-1.7 1.2-3.4 3.2-3.6 1-.2 1.9 0 2.7.5l68.5-66.2a3 3 0 01-1-1.7c-.2-1.7 1.2-3.4 3.3-3.6 1.3-.2 2.6.3 3.3 1.2L-511.6 42c-.1-.3-.3-.5-.3-.8-.2-1.8 1.2-3.4 3.3-3.7 2-.2 3.8 1 4 2.7 0 .6 0 1-.2 1.5L-377.1 96a4 4 0 012.6-1.5c1.8-.2 3.4.8 3.9 2.3L-207 73c0-1.6 1.3-3 3.2-3.3 1.3-.1 2.5.3 3.3 1.2L-58.3-8.8l-.3-1c-.2-1.7 1.2-3.3 3.3-3.6 2-.3 3.8 1 4 2.7.1.5 0 1-.1 1.4l64.2 21.8c.5-.9 1.6-1.6 2.8-1.8 1.6-.2 3 .6 3.7 1.7l134.3-46.6-.1-.4c-.3-1.7 1.2-3.4 3.2-3.6 2-.3 3.9 1 4 2.7.2.6 0 1.2-.3 1.7l139.3 72.9a4 4 0 012.4-1.3c1.5-.1 2.8.4 3.5 1.4l138.8-59.5-.3-.6c-.2-1.7 1.3-3.3 3.3-3.6 2-.3 3.8 1 4 2.7a3 3 0 01-.5 2l93.5 57.9c.6-.6 1.4-1 2.3-1.1 2-.3 3.9 1 4 2.7.1.5 0 1-.2 1.5l140 57.8a4 4 0 012.6-1.5c2-.2 3.8 1 4 2.7a3 3 0 01-1 2.5l31.7 28.9 150.3 10.8a3.5 3.5 0 013.1-2.5c2-.3 3.9 1 4.1 2.7 0 .5 0 1-.2 1.5l146.4 62c.6-.7 1.5-1.3 2.5-1.4 2-.3 3.9 1 4 2.7.2 1.6-1.2 3.2-3.3 3.5zm-1742.8-31l163 35.5.8-1-92-103.1c-.5.2-1 .4-1.4.4-1 .2-2 0-2.7-.5l-68.5 66.2c.5.4.9 1 1 1.7l-.2.8zM549.8 42.1c-.4.4-.9.7-1.4.9l22 75.6c1.2.3 2.2 1.2 2.5 2.2l87.4-14.9-110.5-63.8zm-392.3-74l-1-.1-53.1 137c1 .4 1.9 1.2 2 2.3l89.1-6.8c.1-1.3 1-2.3 2.3-2.9L157.7-32h-.2zm-141 49c-.7 0-1.3-.1-1.9-.3l-75.2 114.8c.6.4 1 1 1.2 1.7L98.2 108c0-1 .4-1.8 1.1-2.4L18 16.5c-.5.3-1 .4-1.5.5zm-652 93.7l92 103a4.2 4.2 0 012.7-.5l26-71.8c-1.1-.4-2-1.3-2.2-2.5l.1-1-117.9-28.3c-.2.4-.4.8-.8 1zm219.2 210.5l93.7-72.6c-.3-.4-.6-.8-.7-1.4l-88.4 6c0 1.5-1.3 2.8-3.2 3h-.2l-3.3 64.2c.8.1 1.5.4 2 .8zM-80 415.1l-5.2-105.8c-1.7 0-3.2-1-3.4-2.7v-.1l-84.1 1.4c-.1.8-.5 1.5-1.1 2l92.5 105.5c.4-.1.8-.3 1.3-.3zM45.4 294l.1-.8-59-21.2-68.2 33 .2.5 127-11.5zM720 258.8a4 4 0 011.8-1l-22.6-123.5-78.6 72.3 99.4 52.2zm100.3-41c.6.4 1 1 1.1 1.7l123.4-16-103.4-11.3-21 25.6zM945 202.7c.1-.5.4-1 .8-1.3l-61.8-56.1a3.7 3.7 0 01-4 .4L842 191.5l102.8 11.2zm1.3-1.7c.5-.3 1-.6 1.8-.7 2-.3 3.8 1 4 2.7v.4l6.7.4-69.7-54.6 57.2 51.8zm5.8 2.9v.3l11 3-3.6-3-7.4-.3zm-163-15.5c-.6.3-1 .6-1.7.6H786l25.5 24.5-22.6-25zm-5.7-2c-.1-.8.1-1.6.6-2.2l-9.3-6.2 8.7 8.4zm6 1.8l26.6 29.5 1.5-.6a4 4 0 012.3.4l21-25.4-50.3-5.5a3 3 0 01-1.1 1.6zm207.4 28.3l-30.9-8.2 11.4 9 19.5-.4v-.4zm0 1.2l-18.4.4 19 14.9c.6-.4 1.2-.8 2-.9h.3l.4-11.7c-1.7 0-3.2-1.1-3.4-2.7zm-19.7.3l-4.5.1 22.3 13.9-17.8-14zm-1-.7l-12-9.5-12.3-3.3c0 .2-.2.4-.3.5l19.8 12.3h4.8zm-24.8-11.8c-.6.6-1.5 1-2.4 1.2-1.9.2-3.5-.8-4-2.4l-120.3 15.5 145.8-2.4-19.1-12zM784.7 189l-2.5 2.8 29.2 23-26.7-25.8zm-.5-.4l-13.9-13.4-60-39.9 71.4 56.1 2.5-2.8zM463.8 60.8a4 4 0 01-1.6 1l20 72.8 20.1-3 18.3-37.8-56.8-33zm-358.4 47c0 .8-.3 1.5-.8 2l41 39.4 49.8-46.6a3 3 0 01-.9-1.5l-89 6.7zM-59.2 134c0 .5-.1.9-.3 1.2l106.6 47 52.3-71.9a3 3 0 01-1-1.5L-59.3 134zm-352.5 118.4v.3l88.5-6c0-1.1.8-2.2 2-2.7l-7.6-20.8-83 29.2zm460.3 38.4h.8l9.1-51.4c-.9-.1-1.6-.6-2.1-1.2l-33.8 16.3 24.9 36.7 1.1-.4zm97.6-141.1l63.6 60.7L198 103.7a4 4 0 01-2-.6l-49.8 46.6zm-134 83.8l28.8-12-13.4-11.1-16.2 22.2c.4.2.7.5.9.9zm.3.5l.2.6v.1l43 1 .7-1.3-15-12.4-29 12zm44.6-.1c.5-.4 1.1-.7 1.8-.8h1l7.3-21.7-24.8 10.2L57.1 234zM87 200.5l-13.4-5.9-5.2 15.7 18.5-7.6-.2-.7c0-.5 0-1 .3-1.5zm.4-.7a4 4 0 012.5-1.4h.5l10.7-87L73.8 194l13.5 5.9zm-.3 3.4L68.1 211l-7.4 22.3.7.3L87.8 204l-.8-.8zM5.4 235.4l-126-3s.1.1 0 .2l89.8 32.3 36.8-28a3 3 0 01-.6-1.3v-.2zm3.2-3.5c.7 0 1.4 0 2 .3l16.3-22.4-87.6-73.2 68.2 95.7 1.1-.4zM-60 136.1l87.5 73 19.1-26.3-106.5-46.9v.2zm88.1 73.6L42 221.2l25.4-10.5 5.4-16.4-25.3-11.1L28 209.7zm45-16.2l27.3-82.7-.2-.1-52.3 71.8 25.1 11zm29.1-82.5h-.4L91 198.4c.5 0 1 .2 1.5.5l52.5-49.2-41.2-39.3c-.5.3-1 .5-1.6.6zM93 199.5c.4.4.8 1 .9 1.6l-.1.7 117 18.4-.9-8.5-64.4-61.4L93 199.5zm117.9 12l8.6 8.2 1-.5-20.7-107.9 11 100.1zm7 10.7v-.2l-6-1 .2 1.7 5.8-.5zm.1-.9c.2-.4.5-.8.8-1l-7.8-7.5.8 7.6 6.2 1zm11.5-9.3l78.5-94-1.5-4.3-4-.5-73 98.8zm256 37l40-61.3-34.3-25.1a4 4 0 01-2 .9h-.3l-5.3 86.4 1.8-1zm102.2-56a3 3 0 01-.3-1l.1-1.2-5.6-1.7 1.2 6.4 4.6-2.6zM568 124.6l-32.5 49.6 22.7 7 22.8 6.9-11.4-63.3c-.6 0-1.2 0-1.6-.2zM491.8 162l34.2 25.1 8.2-12.6-42.1-13-.3.5zm.4-3l.3.9-.1 1.2 42.2 13 32.5-49.7a4 4 0 01-.9-.9l-74 35.5zm89.6 29.4l6 1.9c.4-.7 1-1.3 1.9-1.6l-1.7-5.9-17.3-55.7 11.1 61.3zm-.7.5l-23-7-23-7.1-8.5 12.9 30.2 22.1 25.6-14-1.3-7zm-54.8-.7L487 248.1l69.1-38-29.8-21.9zm-101-44l-36.5 5.5v.2l95.5 9.6-59-15.4zm-110.2-29l43.1 21.2-39.1-20-4-1.1zm-5.7 1.2c-.6-.5-1-1.1-1.1-2v-.5l-.9-.1 1.3 3.5.7-.9zm-2.2-3.3l1.2.2c.1-.5.4-.9.7-1.3l-1.3-1c-.3.4-.7.6-1.1.8l.5 1.3zm1-2.4l-.1.2 1.3 1c0-.2.2-.3.4-.4l-1.6-.8zm7.3 3.8h.1-.1zm6.2 2.5l60.5 31 .7-.6-13.7-18-47.5-12.4zm61.9 30a6 6 0 011.1-.4 4 4 0 012.3.4l8.9-10.6-25.4-6.6 13 17.2zm4 .4c.5.4.9 1 1 1.5l34.7-5.3-26.7-7-9 10.8zm-5.8 3.5l-.3-.6c0-.7.1-1.2.4-1.8l-67-32.8c-.4.5-1 .9-1.7 1.2l17.6 56.5 51-22.5zM306.3 113l-.4-1-.3.1a4 4 0 01-2-.3l-.7.9 3.4.3zm2.2-2.8l1.9 1 .8-.3-.4-3.3-2 .6v.3c.2.6 0 1.2-.3 1.7zm7 3.6l2.7 1.4 50.2 13.2-20.7-27.3-32.3 12 .2.4v.3zm111.9 30l58.2 15.2c.4-.8 1.1-1.3 2-1.6l-6-21.9-54.2 8.3zm61 13.4c.6-.1 1-.1 1.6 0l12-24.8-19.6 3 6 21.8zm2.2.3c.6.3 1 .6 1.4 1l74-35.5v-.3l-63.1 9.6-12.3 25.2zm97.6 36l-.3.2-4.6 2.7 6.3 34.8 1.1-36.5c-1 0-2-.5-2.5-1.1zm-241.5 30.7c.5-.1 1 0 1.6 0l35.2-71.5c-.6-.3-1-.6-1.4-1L331 174.2l15.5 50 .2-.1zm-128.6-1l-.1-.3-5.8.5.3 2.2 5.6-2.4zM55.9 237.5l-.2-.7v-.2l-43-1c-.2.8-.8 1.6-1.6 2l11 16.3L56 237.5zm-87.6 28l-89.3-32.1c-.3.4-.7.9-1.3 1.1l36 68.8.8-.3c1.2-.2 2.2.2 3 .8l50.8-38.4zm-55 38l-36.1-68.8-.8.3c-.7 0-1.4 0-2-.3l-27.6 40 65.3 29.7 1.1-1zm-90 1c.7 0 1.4.1 2 .4l20.5-29.8-69.4-31.6 45.7 61.4a6 6 0 011.2-.3zm-48.5-61.7l-10.3-4.7-.4.4-.1.1 53.7 61.8-42.9-57.6zm-14.5-9.4c.3 0 .6-.2.8-.3h.6l1.4-6-19.3-26 16.5 32.3zm2.4-.1c1.3.3 2.4 1.3 2.5 2.6l4.4-.2-5.7-7.7-1.2 5.3zm2.5 3.2l-.2.9 8.8 4-3.8-5.2-4.8.3zm-82 8.3c.4.4.6.8.7 1.3l68.2-8.8c0-1.7 1.3-3.2 3.3-3.4 1.1-.2 2.2.2 2.9.8l.4-.2c.3-.4.7-.8 1.2-1l-16.8-32.7-.8.2c-1.2.2-2.2-.2-3-.8l-56 44.6zm87.8-8.5l4.3 5.9 71 32.2 27.5-40a3.1 3.1 0 01-1.5-2.1l-101.3 4zM199 103.5l22.2 115.6c.6 0 1.3 0 1.8.3L301.6 113l-100-11.8c-.3 1-1.3 1.9-2.5 2.2zm170.5 25.2l27 7 62-74.5-.7-.8-109.3 40.4 21 27.9zM461.5 62a4 4 0 01-2.3-.4l-62 74.3 28.2 7.3 56-8.5L461.7 62h-.1zm109.1 62.6l8.6 27.9-8.1-28-.5.1zm23.7 65.6c.2.2.4.6.4.9.1.6-.1 1.2-.4 1.7l19.3 10.1 31.5-40.6-50.8 27.8zm-5.5 41.2l-6.2-34.6-24.5 14 29.2 21.4c.4-.4 1-.7 1.5-.8zm-102.7 18l-.8 1.3.6.6 70.8-40.5-70.6 38.7zm-6.7 2.9l.5-.3.6-.8-19.4-20.5-6.7 16.8 25 4.8zm1.7-1.6c.5-.3 1-.5 1.6-.6h.2l5.4-86.7h-.3l-26.6 66.4 19.7 20.9zm6.2-87.5c-.6-.2-1.1-.5-1.5-1l-61 28.9 36 38.1 26.5-66zm-1.8-1.7l-.3-.7v-.5l-96.5-9.8c-.1.6-.5 1-1 1.5l36.5 38.5 61.3-29zm-98.4-9h-.1l21.7 45.3 14.7-7-36.3-38.3zm-1 .3l-.5.2c-.6 0-1.1 0-1.6-.2l-35.2 71.7c.5.2 1 .5 1.3 1L408 198l-21.8-45.3zm-55.8 21.8l-1.3.5 11.7 33-10.4-33.5zm-.3-.9l-17.5-56.6h-.2c-.6.1-1.2 0-1.7-.2l-1.3 2 19.5 55.4 1.3-.6zM308.8 120l-55.9 88 75.2-33.3-19.3-54.7zm-.6-.7l-84 100.6.5.6 26.7-11.8 56.8-89.4zM218.4 224l-5.9 2.4 4 35.2 4.5-36.3c-1.2-.1-2-.6-2.6-1.3zm-6.9 2l-.3-2.5-65.1 5.7 26.2 13 39.2-16.3zm-.3-3.3l-.3-1.8-117.2-18.5-.2.4 51.3 25.7 66.4-5.8zm-118-19.3a4 4 0 01-2.6 1.3h-1.4L76 234.5l67.5-5.9-50.3-25.2zm-4.6 1l-.4-.2L61.8 234c.6.4 1 1 1.1 1.7l12.3-1 13.4-30.2zm-25.7 32v.2l10.5 1.9 1.5-3.2-12 1zm-.2 1c-.5 1-1.6 1.9-3 2h-.6L49.9 291h.2l23-51.7-10.4-1.9zm-41 16.7l-11-16.2-1.2.4c-1.2.1-2.2-.3-3-.9L-30 265.1l16.7 6 35-17zM-31 265.7l-51 38.5 67.4-32.6-16.4-6zM-88.4 305l-65.3-29.7L-174 305c.8.5 1.3 1.3 1.5 2.2v.1l84-1.4c0-.3 0-.6.2-.9zm-90.3.4l-57.8-66.5c-.5.4-1.1.7-1.9.8h-.5l-7.1 37.8 66.7 28.4.6-.5zm-61.1-65.8c-.6 0-1.1-.4-1.6-.7-.5.6-1.4 1.1-2.5 1.3-1.9.2-3.6-.9-3.9-2.5l-68.2 8.8c0 .4 0 .8-.3 1.2l69.4 29.5 7-37.6zm-80.5 4h.3c1-.2 2.1.1 2.9.8l56.1-44.6-.3-.4-66.6 23.4 7.6 20.8zm64.5-43.5l19 25.8 4.6-21.2-22.6-5.7-1 1.1zM-236 227l6.4 8.6 101.9-4v-.3L-231.2 205l-4.7 22zm115.5 4.3v.2l126 3c.1-.7.6-1.3 1.3-1.8L-61.3 137l-1.2.4c-.6 0-1.2 0-1.8-.2l-57.7 92a3 3 0 011.6 2.1zm422.5-118.8l.8-1a3 3 0 01-1.3-2.1v-.5l-88.4-7 89 10.6zm6.4-5l2.2-.7-7.6-59.3 2.3 58.3c1.4 0 2.6.6 3.1 1.7zM303.2 44l8 62.6L344 96l-39.8-52.4-.9.3zm8.2 63.4l.4 3.5c1.4-.1 2.7.5 3.4 1.5l32-11.9-2.8-3.8-33 10.7zm36.7-7.1l96.5-35.7-99.4 32 2.9 3.7zm155.2 31.1l62.4-9.5c0-.6.2-1.1.5-1.6l-45-26-18 37.1zm63.3-11.7c.4-.4 1-.7 1.6-1l-19-69.7-1.7-5.8H546l-24.5 50.4 45.1 26.1zm2.3-1l.1-.1h.4l-9.1-31.5 8.6 31.5zm3 5.2l18.7 64.5c1-.1 2 .2 2.8.6l68.8-61.1-89.2-5.6c-.2.6-.6 1.2-1.1 1.6zm22 65.6l52.2-28.5 25.2-32.6-8-.5-69.4 61.6zm97.9-86L681.3 117l16.4 9.5-4.2-22.7c-.6 0-1.2-.1-1.7-.4zm-11 14.2l-8 10.2 25.5 1.5-.4-1.8-17.2-10zm18.4 11.8h.4l.3-.7-1-.6.3 1.3zm4 3.8a4 4 0 01-2.3-.6l-1 .8 18.4 99.8-15.1-100zm-2.9-1.2l-.6.2.1.3.5-.5zm-.5-.6l-.4-1v-.3l.2 1.4.2-.1zm-1.4-1.4l-26-1.6L648 160l50.8-27.8-.4-2zm-26.6-2.3l8.2-10.6-2.9-1.7-13.2 11.8 7.9.5zm8.7-11.3l10-12.8-12.7 11.3 2.7 1.5zm18.3 10.6l1.6 1c.5-.5 1-.8 1.5-1l-7.1-21.7 4 21.7zm-85.7 76.5l-19.2-10a4 4 0 01-2.5 1.1h-.2l-1.1 36.5c.5 0 .9.1 1.3.3l21.7-28zM454 248l-8.4 21 1.3 1 31.4-17.3-24.3-4.7zm-238.6 13.6l-3.9-35-38.3 16 40 20.1a4 4 0 012.2-1.1zM47 291.4l-25-36.7-34.4 16.8 58.4 21c.2-.5.6-.8 1-1zm-420.8-190.7h-.7L-414 250.2c.8.2 1.6.7 2 1.4l83-29.2-44.5-121.7h-.3zm1079.2 31.7a4 4 0 01-1.4.7l18.8 124.5c.7 0 1.4.2 2 .4l56.5-66-75.9-59.6zm-6.4 1l-.1-.6-52 28.5-32.6 42 5.4 3 79.3-73zM613.8 204l-20.7 26.8 26-24-5.3-2.8zm-27.7 30.8c-.1-.8.2-1.6.7-2.1l-29.3-21.5-71.1 40.6c0 .2 0 .4.2.6l99.5-17.7zM479.5 253l-25.4 14 25.6-12.4a3 3 0 01-.3-1v-.6zm-35.8 15.8h1.3l8.4-21-22.5-4.2 12.2 25.3.6-.1zm10-21.6l6.8-17.3-36.6-38.6-14.8 7 21.4 44.5 23.1 4.4zm-45.4-48.5L350.5 226l.2.7v.8l78.9 15-21.3-43.8zm-62.6 25.6l-17.3-49L252 209l-8.6 13.6 100 4.1c.3-1 1-1.9 2.2-2.4zm-95.1-14.6L225 221.2l.2.6v.3l17.2.7 8.2-13zM225 222.7a3.6 3.6 0 01-3.1 2.7h-.6l-4.5 36.2h.7l24.4-38.3-17-.6zm-12 40.8L172.3 243l-22.2 9.3 62.7 11.3.1-.2zm-41.7-20.9l-26.7-13.3-69.1 6-1.5 3.3 74.6 13.5 22.7-9.5zm-97.6-3.3l-23.1 51.8c.6.3 1.1.6 1.5 1.1l95.2-39.6-73.6-13.3zm-253.5 67.5l-66.5-28.3-20.6 109.7c.5.2.9.3 1.3.6l86.4-79a3 3 0 01-1-1.5c0-.6.2-1 .4-1.5zm-88.5 81.3h.6l20.6-110-69.6-29.6c-.4.5-1 .9-1.5 1.1l49.7 138.6h.2zM-417.7 251l-93.9-109.7-1.3.5h-1.3l-26 71.8c1 .4 2 1.3 2.2 2.5l-.1 1.1 119.6 34.7.8-.9zm-93.2-110.2l93.9 109.7c.4-.3.8-.4 1.3-.5h.8l39.5-149.4c-1-.3-1.7-.9-2.1-1.7l-132.3 39v.2c.2 1-.3 2-1.1 2.7zm138.3-40.4l44.4 121.7 66.6-23.4-.1-.4a3 3 0 01.7-2.3l-111-96-.6.4zm118.1 97v1l22.5 5.7 27.3-127-51.7 118c1 .4 1.8 1.2 2 2.3zM-203 76h-.6L-231 204.3l103.8 26.3c.5-1 1.6-1.9 2.9-2a4 4 0 011.8.2l57.7-92a3.1 3.1 0 01-1.6-2.1c0-.6 0-1 .3-1.6l-134.2-58.5c-.6.8-1.5 1.4-2.6 1.5zm404.7 24.4l100 7.9c.3-1.3 1.6-2.4 3.1-2.7l-2.4-61.6c-1.1 0-2.1-.5-2.7-1.2L201.4 99l.4 1v.5zm103.1-57.3l40 52.6 112.8-36.2-.1-.3v-.5L306.1 41.7c-.3.6-.7 1.1-1.3 1.5zm159.4 17l56.7 33 24.4-50.3c-.8-.4-1.4-1-1.7-1.8l-78.9 17.2c.1.8-.1 1.4-.5 2zM573 121.6v.2l89.8 5.5 13.6-12-15.3-8.8-88.1 15zm104.1-7l13.5-11.9c-.3-.3-.5-.7-.6-1l-27.4 4.6 14.5 8.4zm17.5-11l7.7 23.5h.4c2-.3 3.8.9 4 2.6v.3l18 1.3-29.2-28-1 .3zm12 27.2c0 .4-.2.7-.5 1l61.8 41.1-42.4-40.7-18.9-1.4zm84 55.2l50.7 5.5 38-46-.8-.8-88.2 40c.1.3.3.5.3.8v.5zM960 203.8l19.5 1-91.8-57.6 72.3 56.6zm.7.5l4.2 3.4 32 8.5c0-.2 0-.3.2-.4l-16.7-10.5-19.7-1zm36.8 10.9a4 4 0 012.3-1.1c1.7-.2 3.2.7 3.8 2l27.2-7.6-.1-.3v-.4l-48.8-2.4 15.6 9.8zm-225.5-39.6l11.3 7.5-55.8-50.9h-.7l45.2 43.4zm259 33.2l-27.3 7.6.1.4c.3 1.7-1.2 3.4-3.2 3.6h-.4l-.4 11.7c.9 0 1.7.3 2.3.9l29.3-23.3c-.2-.2-.4-.5-.5-.9zm-34.5 24.9l-25-15.6-145.5 2.5 170 14 .5-1zm-181.7-15.2l-33.2-26-56.4 65.9.7.7 88.5-37.7-.3-.6c0-.9.2-1.6.7-2.3zm-95.3 41l-99.7-52.3-27.3 25.2c.4.4.7 1 .8 1.5v.9l126.1 25 .1-.3zM486.7 253c.1 1.6-1.2 3.2-3.2 3.5-1.5.2-2.9-.4-3.6-1.5l-32.3 15.6h-.2v.2l134.1-34.7-94.8 16.9zm-44.3 16.3l-12.5-25.8-79.4-15.2-.1.2 90.7 41.8c.4-.4.7-.8 1.3-1zm-99-41.8L243 223.4 218.5 262c.5.3.9.7 1.1 1.3l124-35.4-.1-.2v-.3zm-130.7 37L149 252.9l-96.4 40 160.1-28 .1-.4zM45.5 294.7l-126.9 11.5c0 1.5-1.3 2.9-3 3.1l5.2 105.8c.7 0 1.3.2 1.9.5L46.3 296c-.5-.4-.8-1.4-.8-1.4zM-82 416l-92.6-105.5-1.4.4a4 4 0 01-2.7-.6l-86.4 79c.4.4.8 1 .9 1.6l-.1.5 181.3 25.9c.2-.5.5-1 1-1.3zm-187.4-27.5L-319 249.9h-.2c-1.1.2-2.2-.1-3-.7l-93.6 72.6c.3.4.6.8.6 1.4.1.5 0 1-.3 1.5l144.8 64.8c.3-.4.8-.8 1.4-1zm-150-68h.3l3.3-64.2c-1.6 0-3-1.1-3.2-2.6v-1.2l-119.6-34.7-.3.6L-421 321.2c.5-.3 1-.6 1.8-.7zm-215.2-211.4l117.9 28.3c.5-1 1.5-1.8 2.9-2h.2l4.8-91.7c-1-.1-1.9-.6-2.5-1.2l-123.5 64.7.3.9-.1 1zm126.7-65.4h-.3l-4.8 91.8c1.3 0 2.3.8 2.8 1.7l132.3-39V98c-.1-.5 0-1 .2-1.5l-127.6-54.3c-.6.8-1.5 1.4-2.6 1.5zm136.5 55.8l111 96c.5-.4 1.1-.7 1.8-.8h1.3l52.1-119a3 3 0 01-1.8-1.9l-163.6 23.6c0 .8-.3 1.5-.8 2zM-200 74l134.2 58.5a4 4 0 012.5-1.5h.2l7.6-138.2c-.9-.1-1.6-.5-2.2-1L-200 71.4l.4 1-.3 1.5zM-54.5-7.1h-.1L-62.3 131c.4 0 .6 0 .9.2L13.8 16.5a3 3 0 01-1.4-2.2c0-.4 0-1 .2-1.3L-51.7-9c-.5 1-1.5 1.7-2.8 1.9zm73 23.1l81.4 89.2c.4-.3 1-.5 1.5-.6h1.1l53-136.9c-.7-.3-1.3-.7-1.7-1.3L19.5 13l.1.4c.2 1-.3 2-1 2.6zM160-33.2c-.4.4-1 .7-1.5 1l39.2 129.5c1.4-.2 2.6.3 3.3 1.2l98.3-56.1c-.2-.4-.4-.7-.4-1 0-.7.1-1.2.4-1.8L160-33.2zM306 41l151.4 17.2c.4-1.1 1.4-2 2.7-2.3l-12.2-74c-1.3 0-2.6-.5-3.3-1.5L306 40l.2.5v.5zm144.4-60.2c-.5.4-1.1.8-1.8 1l12.2 74c1.7-.1 3.1.8 3.6 2.2l79-17.3h-.1c-.1-.8.1-1.4.5-2l-93.4-58zm211.2 125l28-4.8.3-1.3L552.8 43l108.9 62.8zm64.4 25.6h.5l-10.5-9.5 10 9.5zm58.7 52.1c.5-.4 1-.6 1.7-.7 1.5-.2 2.8.4 3.5 1.4l88.2-40-.2-.7v-.3l-149.3-10.7 56 51zm196.4 21.4l49.7 2.5.1-.6-145-61.5 95.2 59.6z" opacity=".8"/></g><path fill="#45A041" d="M354.4 27l1.3-14.7L342 15l12.4 12z"/><path fill="#0F7B0A" d="M43.5 34l-18-1 4 16.6 14-15.5z"/><path fill="url(#paint0_linear)" d="M161.2 36.9l34 5.5-4.4-32.4-29.6 26.9z"/></g><defs><linearGradient id="paint0_linear" x1="158" x2="194" y1="30.8" y2="21.4" gradientUnits="userSpaceOnUse"><stop stop-color="#3A8DDE"/><stop offset="1" stop-color="#80C67D"/></linearGradient></defs>
</g>
</svg>